<svg width="351" height="120" viewBox="0 0 351 120" fill="none" xmlns="http://www.w3.org/2000/svg">
<path d="M156.916 45.44V50.816C156.916 51.2453 157.093 51.5533 157.448 51.74C157.821 51.908 158.447 52.048 159.324 52.16C159.585 52.1973 159.716 52.384 159.716 52.72C159.716 52.8693 159.697 53.0373 159.66 53.224C159.119 53.1867 158.437 53.1493 157.616 53.112C156.813 53.0933 155.936 53.084 154.984 53.084C154.312 53.084 153.659 53.0933 153.024 53.112C152.408 53.1493 151.829 53.1867 151.288 53.224C151.251 53.1493 151.232 53.0653 151.232 52.972C151.232 52.8787 151.232 52.804 151.232 52.748C151.232 52.4307 151.335 52.2533 151.54 52.216C151.932 52.1413 152.249 52.076 152.492 52.02C152.735 51.9453 152.921 51.8707 153.052 51.796C153.183 51.7027 153.267 51.6 153.304 51.488C153.36 51.3573 153.388 51.1987 153.388 51.012V36.984C153.388 36.6107 153.248 36.34 152.968 36.172C152.707 36.004 152.193 35.8733 151.428 35.78C151.335 35.7427 151.26 35.6867 151.204 35.612C151.148 35.5373 151.12 35.4067 151.12 35.22C151.12 35.1453 151.12 35.0613 151.12 34.968C151.12 34.8747 151.139 34.8 151.176 34.744C151.699 34.7813 152.296 34.8186 152.968 34.856C153.659 34.8747 154.275 34.884 154.816 34.884H159.044C161.041 34.884 162.6 35.332 163.72 36.228C164.84 37.124 165.4 38.3747 165.4 39.98C165.4 40.708 165.26 41.408 164.98 42.08C164.7 42.7333 164.28 43.312 163.72 43.816C163.179 44.3013 162.516 44.6933 161.732 44.992C160.948 45.2907 160.052 45.44 159.044 45.44H156.916ZM157.756 44.04C158.895 44.04 159.809 43.7507 160.5 43.172C161.209 42.5933 161.564 41.6133 161.564 40.232C161.564 38.9813 161.284 38.0107 160.724 37.32C160.183 36.6293 159.193 36.284 157.756 36.284H156.916V44.04H157.756ZM175.127 40.764C175.668 40.764 176.069 40.904 176.331 41.184C176.611 41.464 176.751 41.8187 176.751 42.248C176.751 42.3787 176.723 42.4907 176.667 42.584C176.629 42.6773 176.527 42.78 176.359 42.892C176.209 43.004 175.995 43.1347 175.715 43.284C175.435 43.4147 175.071 43.5827 174.623 43.788C174.324 43.4893 174.044 43.2933 173.783 43.2C173.54 43.088 173.297 43.032 173.055 43.032C172.831 43.032 172.607 43.0693 172.383 43.144C172.177 43.2187 171.991 43.368 171.823 43.592C171.655 43.7973 171.515 44.0773 171.403 44.432C171.309 44.7867 171.263 45.244 171.263 45.804V51.012C171.263 51.3853 171.412 51.6653 171.711 51.852C172.009 52.02 172.597 52.1787 173.475 52.328C173.68 52.3653 173.783 52.4867 173.783 52.692C173.783 52.9533 173.764 53.1307 173.727 53.224C173.484 53.2053 173.185 53.1867 172.831 53.168C172.476 53.168 172.103 53.1587 171.711 53.14C171.319 53.1213 170.927 53.1027 170.535 53.084C170.161 53.084 169.825 53.084 169.527 53.084C168.817 53.084 168.211 53.0933 167.707 53.112C167.203 53.1493 166.727 53.1867 166.279 53.224C166.241 53.1307 166.223 52.9533 166.223 52.692C166.223 52.4867 166.325 52.3653 166.531 52.328C167.128 52.216 167.539 52.0947 167.763 51.964C167.987 51.8333 168.099 51.628 168.099 51.348V43.816C168.099 43.3867 168.015 43.0413 167.847 42.78C167.697 42.5187 167.259 42.3413 166.531 42.248C166.269 42.2107 166.139 42.0707 166.139 41.828C166.139 41.772 166.139 41.6973 166.139 41.604C166.139 41.5107 166.157 41.436 166.195 41.38C166.307 41.38 166.465 41.38 166.671 41.38C166.876 41.3613 167.1 41.352 167.343 41.352C167.585 41.3333 167.828 41.3147 168.071 41.296C168.313 41.2773 168.528 41.2493 168.715 41.212C169.125 41.156 169.545 41.0907 169.975 41.016C170.423 40.9227 170.721 40.876 170.871 40.876C171.132 40.876 171.263 41.016 171.263 41.296V42.808C171.916 42.0987 172.541 41.5853 173.139 41.268C173.736 40.932 174.399 40.764 175.127 40.764ZM176.437 47.092C176.437 46.1773 176.596 45.3373 176.913 44.572C177.249 43.788 177.707 43.116 178.285 42.556C178.864 41.9773 179.555 41.5293 180.357 41.212C181.16 40.8947 182.037 40.736 182.989 40.736C183.979 40.736 184.875 40.8947 185.677 41.212C186.48 41.5293 187.171 41.9773 187.749 42.556C188.328 43.116 188.767 43.788 189.065 44.572C189.383 45.3373 189.541 46.1773 189.541 47.092C189.541 48.0067 189.373 48.856 189.037 49.64C188.72 50.4053 188.263 51.068 187.665 51.628C187.087 52.188 186.396 52.6267 185.593 52.944C184.791 53.2613 183.913 53.42 182.961 53.42C181.972 53.42 181.076 53.2613 180.273 52.944C179.471 52.6267 178.78 52.188 178.201 51.628C177.641 51.068 177.203 50.4053 176.885 49.64C176.587 48.856 176.437 48.0067 176.437 47.092ZM179.965 46.532C179.965 48.2493 180.245 49.6213 180.805 50.648C181.384 51.6747 182.205 52.188 183.269 52.188C184.259 52.188 184.959 51.796 185.369 51.012C185.799 50.2093 186.013 49.0893 186.013 47.652C186.013 45.9533 185.724 44.5813 185.145 43.536C184.567 42.4907 183.755 41.968 182.709 41.968C181.72 41.968 181.011 42.3787 180.581 43.2C180.171 44.0027 179.965 45.1133 179.965 46.532ZM203.349 50.48C203.349 50.704 203.359 50.9 203.377 51.068C203.396 51.2173 203.452 51.348 203.545 51.46C203.639 51.572 203.779 51.6653 203.965 51.74C204.152 51.796 204.404 51.8427 204.721 51.88C204.983 51.9173 205.113 52.0387 205.113 52.244C205.113 52.3373 205.113 52.4307 205.113 52.524C205.113 52.6173 205.095 52.692 205.057 52.748C204.815 52.748 204.432 52.7667 203.909 52.804C203.405 52.8227 202.976 52.86 202.621 52.916C202.211 52.972 201.8 53.0373 201.389 53.112C200.997 53.2053 200.727 53.252 200.577 53.252C200.409 53.252 200.297 53.2147 200.241 53.14C200.204 53.084 200.185 52.9813 200.185 52.832V51.152C199.943 51.488 199.691 51.796 199.429 52.076C199.168 52.356 198.869 52.5987 198.533 52.804C198.216 52.9907 197.852 53.14 197.441 53.252C197.031 53.364 196.564 53.42 196.041 53.42C195.313 53.42 194.632 53.2893 193.997 53.028C193.381 52.7667 192.84 52.384 192.373 51.88C191.907 51.3573 191.543 50.7227 191.281 49.976C191.02 49.2293 190.889 48.38 190.889 47.428C190.889 46.4013 191.085 45.4773 191.477 44.656C191.888 43.816 192.401 43.1067 193.017 42.528C193.633 41.9493 194.305 41.5107 195.033 41.212C195.761 40.8947 196.461 40.736 197.133 40.736C197.675 40.736 198.169 40.792 198.617 40.904C199.084 40.9973 199.607 41.1373 200.185 41.324V36.676C200.185 36.0973 200.092 35.6773 199.905 35.416C199.719 35.136 199.28 34.9587 198.589 34.884C198.477 34.8467 198.384 34.8 198.309 34.744C198.235 34.688 198.197 34.5853 198.197 34.436C198.197 34.324 198.216 34.1746 198.253 33.988C198.384 33.988 198.552 33.988 198.757 33.988C198.963 33.9693 199.187 33.96 199.429 33.96C199.672 33.9413 199.915 33.9227 200.157 33.904C200.4 33.8853 200.624 33.8666 200.829 33.848C201.315 33.792 201.763 33.7173 202.173 33.624C202.603 33.5306 202.892 33.484 203.041 33.484C203.359 33.484 203.517 33.624 203.517 33.904C203.517 34.2587 203.489 34.6693 203.433 35.136C203.377 35.584 203.349 36.1066 203.349 36.704V50.48ZM200.185 43.256C199.327 42.3973 198.356 41.968 197.273 41.968C196.303 41.968 195.584 42.3973 195.117 43.256C194.651 44.096 194.417 45.2533 194.417 46.728C194.417 47.4373 194.473 48.1093 194.585 48.744C194.716 49.36 194.903 49.9013 195.145 50.368C195.388 50.816 195.696 51.1707 196.069 51.432C196.461 51.6933 196.928 51.824 197.469 51.824C197.805 51.824 198.132 51.7213 198.449 51.516C198.785 51.292 199.075 51.012 199.317 50.676C199.579 50.34 199.784 49.9573 199.933 49.528C200.101 49.0987 200.185 48.6693 200.185 48.24V43.256ZM212.684 53.224C212.199 53.1867 211.695 53.1493 211.172 53.112C210.649 53.0933 210.089 53.084 209.492 53.084C208.764 53.084 208.148 53.0933 207.644 53.112C207.159 53.1493 206.683 53.1867 206.216 53.224C206.179 53.0373 206.16 52.86 206.16 52.692C206.16 52.5613 206.188 52.4773 206.244 52.44C206.319 52.384 206.393 52.3467 206.468 52.328C207.065 52.2347 207.476 52.1227 207.7 51.992C207.924 51.8427 208.036 51.628 208.036 51.348V36.676C208.036 36.116 207.943 35.696 207.756 35.416C207.569 35.1173 207.131 34.94 206.44 34.884C206.197 34.8467 206.076 34.6973 206.076 34.436C206.076 34.38 206.076 34.3147 206.076 34.24C206.076 34.1467 206.095 34.0627 206.132 33.988C206.244 33.988 206.403 33.988 206.608 33.988C206.832 33.9693 207.065 33.96 207.308 33.96C207.551 33.9413 207.793 33.9227 208.036 33.904C208.279 33.8853 208.503 33.8666 208.708 33.848C209.175 33.792 209.623 33.7173 210.052 33.624C210.481 33.5306 210.771 33.484 210.92 33.484C211.219 33.484 211.368 33.624 211.368 33.904C211.368 34.1093 211.34 34.38 211.284 34.716C211.228 35.0333 211.2 35.4906 211.2 36.088V43.34C211.797 42.556 212.46 41.9307 213.188 41.464C213.916 40.9787 214.672 40.736 215.456 40.736C216.595 40.736 217.491 41.0533 218.144 41.688C218.797 42.3227 219.124 43.2747 219.124 44.544V51.376C219.124 51.6373 219.227 51.8333 219.432 51.964C219.656 52.0947 220.076 52.216 220.692 52.328C220.767 52.3467 220.832 52.384 220.888 52.44C220.963 52.4773 221 52.5613 221 52.692C221 52.86 220.981 53.0373 220.944 53.224C220.459 53.1867 219.973 53.1493 219.488 53.112C219.003 53.0933 218.396 53.084 217.668 53.084C217.071 53.084 216.511 53.0933 215.988 53.112C215.465 53.1493 214.961 53.1867 214.476 53.224C214.439 53.1493 214.42 53.0653 214.42 52.972C214.42 52.8787 214.42 52.7853 214.42 52.692C214.42 52.4867 214.523 52.3653 214.728 52.328C215.232 52.2347 215.559 52.1227 215.708 51.992C215.876 51.8613 215.96 51.656 215.96 51.376V45.888C215.96 44.7867 215.82 44.0307 215.54 43.62C215.279 43.1907 214.849 42.976 214.252 42.976C213.412 42.976 212.693 43.2653 212.096 43.844C211.499 44.404 211.2 45.244 211.2 46.364V51.376C211.2 51.656 211.275 51.8613 211.424 51.992C211.573 52.1227 211.909 52.2347 212.432 52.328C212.637 52.3653 212.74 52.4867 212.74 52.692C212.74 52.7853 212.74 52.8787 212.74 52.972C212.74 53.0653 212.721 53.1493 212.684 53.224ZM225.368 53.084C224.64 53.084 224.015 53.0933 223.492 53.112C222.969 53.1493 222.465 53.1867 221.98 53.224C221.943 53.0373 221.924 52.86 221.924 52.692C221.924 52.5613 221.952 52.4773 222.008 52.44C222.083 52.384 222.157 52.3467 222.232 52.328C222.829 52.216 223.24 52.0947 223.464 51.964C223.688 51.8333 223.8 51.628 223.8 51.348V43.956C223.8 43.396 223.707 42.9667 223.52 42.668C223.333 42.3693 222.895 42.192 222.204 42.136C221.961 42.0987 221.84 41.9493 221.84 41.688C221.84 41.632 221.84 41.5667 221.84 41.492C221.84 41.3987 221.859 41.3147 221.896 41.24C222.008 41.24 222.167 41.24 222.372 41.24C222.596 41.2213 222.829 41.212 223.072 41.212C223.315 41.1933 223.557 41.1747 223.8 41.156C224.043 41.1373 224.267 41.1187 224.472 41.1C224.939 41.044 225.387 40.9693 225.816 40.876C226.245 40.7827 226.535 40.736 226.684 40.736C226.983 40.736 227.132 40.876 227.132 41.156C227.132 41.3613 227.104 41.632 227.048 41.968C226.992 42.304 226.964 42.7707 226.964 43.368V51.348C226.964 51.628 227.085 51.8333 227.328 51.964C227.571 52.0947 227.972 52.216 228.532 52.328C228.737 52.3653 228.84 52.4867 228.84 52.692C228.84 52.7853 228.84 52.8787 228.84 52.972C228.84 53.0653 228.821 53.1493 228.784 53.224C228.317 53.1867 227.813 53.1493 227.272 53.112C226.731 53.0933 226.096 53.084 225.368 53.084ZM223.324 36.648C223.324 36.0507 223.511 35.5653 223.884 35.192C224.276 34.8 224.761 34.604 225.34 34.604C225.937 34.604 226.423 34.8 226.796 35.192C227.169 35.5653 227.356 36.0507 227.356 36.648C227.356 37.2453 227.169 37.74 226.796 38.132C226.423 38.5053 225.937 38.692 225.34 38.692C224.761 38.692 224.276 38.5053 223.884 38.132C223.511 37.74 223.324 37.2453 223.324 36.648ZM242.441 43.48C243.095 42.64 243.776 41.9773 244.485 41.492C245.213 40.988 245.951 40.736 246.697 40.736C249.031 40.736 250.197 42.0053 250.197 44.544V51.376C250.197 51.6373 250.309 51.8333 250.533 51.964C250.757 52.0947 251.168 52.216 251.765 52.328C251.971 52.3653 252.073 52.4867 252.073 52.692C252.073 52.7853 252.073 52.8787 252.073 52.972C252.073 53.0653 252.055 53.1493 252.017 53.224C251.551 53.1867 251.075 53.1493 250.589 53.112C250.104 53.0933 249.497 53.084 248.769 53.084C248.153 53.084 247.584 53.0933 247.061 53.112C246.557 53.1493 246.053 53.1867 245.549 53.224C245.512 53.0373 245.493 52.86 245.493 52.692C245.493 52.5613 245.521 52.4773 245.577 52.44C245.652 52.384 245.727 52.3467 245.801 52.328C246.305 52.2347 246.632 52.1227 246.781 51.992C246.949 51.8613 247.033 51.656 247.033 51.376V45.888C247.033 44.7867 246.921 44.0307 246.697 43.62C246.492 43.1907 246.1 42.976 245.521 42.976C244.681 42.976 243.972 43.2653 243.393 43.844C242.815 44.404 242.525 45.244 242.525 46.364V51.376C242.525 51.656 242.609 51.8613 242.777 51.992C242.945 52.1227 243.272 52.2347 243.757 52.328C243.963 52.3653 244.065 52.4867 244.065 52.692C244.065 52.7853 244.065 52.8787 244.065 52.972C244.065 53.0653 244.047 53.1493 244.009 53.224C243.561 53.1867 243.113 53.1493 242.665 53.112C242.217 53.0933 241.695 53.084 241.097 53.084C240.481 53.084 239.912 53.0933 239.389 53.112C238.885 53.1493 238.381 53.1867 237.877 53.224C237.84 53.0373 237.821 52.86 237.821 52.692C237.821 52.5613 237.849 52.4773 237.905 52.44C237.98 52.384 238.055 52.3467 238.129 52.328C238.633 52.2347 238.96 52.1227 239.109 51.992C239.277 51.8613 239.361 51.656 239.361 51.376V45.888C239.361 44.7867 239.249 44.0307 239.025 43.62C238.82 43.1907 238.428 42.976 237.849 42.976C237.009 42.976 236.3 43.2653 235.721 43.844C235.143 44.404 234.853 45.244 234.853 46.364V51.376C234.853 51.656 234.937 51.8613 235.105 51.992C235.273 52.1227 235.6 52.2347 236.085 52.328C236.291 52.3653 236.393 52.4867 236.393 52.692C236.393 52.7853 236.393 52.8787 236.393 52.972C236.393 53.0653 236.375 53.1493 236.337 53.224C235.852 53.1867 235.348 53.1493 234.825 53.112C234.303 53.0933 233.743 53.084 233.145 53.084C232.417 53.084 231.801 53.0933 231.297 53.112C230.812 53.1493 230.336 53.1867 229.869 53.224C229.832 53.0373 229.813 52.86 229.813 52.692C229.813 52.5613 229.841 52.4773 229.897 52.44C229.972 52.384 230.047 52.3467 230.121 52.328C230.719 52.216 231.129 52.0947 231.353 51.964C231.577 51.8333 231.689 51.628 231.689 51.348V43.956C231.689 43.396 231.587 42.9667 231.381 42.668C231.176 42.3693 230.747 42.192 230.093 42.136C229.851 42.08 229.729 41.9307 229.729 41.688C229.729 41.632 229.729 41.5667 229.729 41.492C229.729 41.3987 229.748 41.3147 229.785 41.24C229.897 41.24 230.056 41.24 230.261 41.24C230.485 41.2213 230.719 41.212 230.961 41.212C231.204 41.1933 231.447 41.1747 231.689 41.156C231.932 41.1373 232.156 41.1187 232.361 41.1C232.828 41.044 233.276 40.9693 233.705 40.876C234.135 40.7827 234.424 40.736 234.573 40.736C234.872 40.736 235.021 40.876 235.021 41.156C235.021 41.3613 234.993 41.632 234.937 41.968C234.881 42.304 234.853 42.7707 234.853 43.368C235.451 42.584 236.104 41.9493 236.813 41.464C237.541 40.9787 238.279 40.736 239.025 40.736C240.985 40.736 242.124 41.6507 242.441 43.48ZM270.85 50.48C270.85 50.704 270.859 50.9 270.878 51.068C270.897 51.2173 270.953 51.348 271.046 51.46C271.139 51.572 271.279 51.6653 271.466 51.74C271.653 51.796 271.905 51.8427 272.222 51.88C272.483 51.9173 272.614 52.0387 272.614 52.244C272.614 52.3373 272.614 52.4307 272.614 52.524C272.614 52.6173 272.595 52.692 272.558 52.748C272.315 52.748 271.933 52.7667 271.41 52.804C270.906 52.8227 270.477 52.86 270.122 52.916C269.711 52.972 269.301 53.0373 268.89 53.112C268.498 53.2053 268.227 53.252 268.078 53.252C267.91 53.252 267.798 53.2147 267.742 53.14C267.705 53.084 267.686 52.9813 267.686 52.832V51.152C267.443 51.488 267.191 51.796 266.93 52.076C266.669 52.356 266.37 52.5987 266.034 52.804C265.717 52.9907 265.353 53.14 264.942 53.252C264.531 53.364 264.065 53.42 263.542 53.42C262.814 53.42 262.133 53.2893 261.498 53.028C260.882 52.7667 260.341 52.384 259.874 51.88C259.407 51.3573 259.043 50.7227 258.782 49.976C258.521 49.2293 258.39 48.38 258.39 47.428C258.39 46.4013 258.586 45.4773 258.978 44.656C259.389 43.816 259.902 43.1067 260.518 42.528C261.134 41.9493 261.806 41.5107 262.534 41.212C263.262 40.8947 263.962 40.736 264.634 40.736C265.175 40.736 265.67 40.792 266.118 40.904C266.585 40.9973 267.107 41.1373 267.686 41.324V36.676C267.686 36.0973 267.593 35.6773 267.406 35.416C267.219 35.136 266.781 34.9587 266.09 34.884C265.978 34.8467 265.885 34.8 265.81 34.744C265.735 34.688 265.698 34.5853 265.698 34.436C265.698 34.324 265.717 34.1746 265.754 33.988C265.885 33.988 266.053 33.988 266.258 33.988C266.463 33.9693 266.687 33.96 266.93 33.96C267.173 33.9413 267.415 33.9227 267.658 33.904C267.901 33.8853 268.125 33.8666 268.33 33.848C268.815 33.792 269.263 33.7173 269.674 33.624C270.103 33.5306 270.393 33.484 270.542 33.484C270.859 33.484 271.018 33.624 271.018 33.904C271.018 34.2587 270.99 34.6693 270.934 35.136C270.878 35.584 270.85 36.1066 270.85 36.704V50.48ZM267.686 43.256C266.827 42.3973 265.857 41.968 264.774 41.968C263.803 41.968 263.085 42.3973 262.618 43.256C262.151 44.096 261.918 45.2533 261.918 46.728C261.918 47.4373 261.974 48.1093 262.086 48.744C262.217 49.36 262.403 49.9013 262.646 50.368C262.889 50.816 263.197 51.1707 263.57 51.432C263.962 51.6933 264.429 51.824 264.97 51.824C265.306 51.824 265.633 51.7213 265.95 51.516C266.286 51.292 266.575 51.012 266.818 50.676C267.079 50.34 267.285 49.9573 267.434 49.528C267.602 49.0987 267.686 48.6693 267.686 48.24V43.256ZM280.185 53.224C279.699 53.1867 279.195 53.1493 278.673 53.112C278.15 53.0933 277.59 53.084 276.993 53.084C276.265 53.084 275.649 53.0933 275.145 53.112C274.659 53.1493 274.183 53.1867 273.717 53.224C273.679 53.0373 273.661 52.86 273.661 52.692C273.661 52.5613 273.689 52.4773 273.745 52.44C273.819 52.384 273.894 52.3467 273.969 52.328C274.566 52.2347 274.977 52.1227 275.201 51.992C275.425 51.8427 275.537 51.628 275.537 51.348V36.676C275.537 36.116 275.443 35.696 275.257 35.416C275.07 35.1173 274.631 34.94 273.941 34.884C273.698 34.8467 273.577 34.6973 273.577 34.436C273.577 34.38 273.577 34.3147 273.577 34.24C273.577 34.1467 273.595 34.0627 273.633 33.988C273.745 33.988 273.903 33.988 274.109 33.988C274.333 33.9693 274.566 33.96 274.809 33.96C275.051 33.9413 275.294 33.9227 275.537 33.904C275.779 33.8853 276.003 33.8666 276.209 33.848C276.675 33.792 277.123 33.7173 277.553 33.624C277.982 33.5306 278.271 33.484 278.421 33.484C278.719 33.484 278.869 33.624 278.869 33.904C278.869 34.1093 278.841 34.38 278.785 34.716C278.729 35.0333 278.701 35.4906 278.701 36.088V43.34C279.298 42.556 279.961 41.9307 280.689 41.464C281.417 40.9787 282.173 40.736 282.957 40.736C284.095 40.736 284.991 41.0533 285.645 41.688C286.298 42.3227 286.625 43.2747 286.625 44.544V51.376C286.625 51.6373 286.727 51.8333 286.933 51.964C287.157 52.0947 287.577 52.216 288.193 52.328C288.267 52.3467 288.333 52.384 288.389 52.44C288.463 52.4773 288.501 52.5613 288.501 52.692C288.501 52.86 288.482 53.0373 288.445 53.224C287.959 53.1867 287.474 53.1493 286.989 53.112C286.503 53.0933 285.897 53.084 285.169 53.084C284.571 53.084 284.011 53.0933 283.489 53.112C282.966 53.1493 282.462 53.1867 281.977 53.224C281.939 53.1493 281.921 53.0653 281.921 52.972C281.921 52.8787 281.921 52.7853 281.921 52.692C281.921 52.4867 282.023 52.3653 282.229 52.328C282.733 52.2347 283.059 52.1227 283.209 51.992C283.377 51.8613 283.461 51.656 283.461 51.376V45.888C283.461 44.7867 283.321 44.0307 283.041 43.62C282.779 43.1907 282.35 42.976 281.753 42.976C280.913 42.976 280.194 43.2653 279.597 43.844C278.999 44.404 278.701 45.244 278.701 46.364V51.376C278.701 51.656 278.775 51.8613 278.925 51.992C279.074 52.1227 279.41 52.2347 279.933 52.328C280.138 52.3653 280.241 52.4867 280.241 52.692C280.241 52.7853 280.241 52.8787 280.241 52.972C280.241 53.0653 280.222 53.1493 280.185 53.224ZM300.093 50.508C300.261 50.3773 300.41 50.312 300.541 50.312C300.634 50.312 300.737 50.3587 300.849 50.452C300.98 50.5267 301.11 50.6853 301.241 50.928C300.513 51.7867 299.673 52.4213 298.721 52.832C297.788 53.224 296.677 53.42 295.389 53.42C294.661 53.42 293.942 53.308 293.233 53.084C292.542 52.8413 291.917 52.4773 291.357 51.992C290.797 51.488 290.34 50.8627 289.985 50.116C289.649 49.3693 289.481 48.4733 289.481 47.428C289.481 46.4013 289.677 45.4773 290.069 44.656C290.48 43.816 290.993 43.1067 291.609 42.528C292.225 41.9493 292.897 41.5107 293.625 41.212C294.353 40.8947 295.053 40.736 295.725 40.736C297.536 40.736 298.898 41.2587 299.813 42.304C300.746 43.3493 301.213 44.7773 301.213 46.588C301.213 46.7187 301.148 46.784 301.017 46.784L292.981 47.12C292.981 48.576 293.308 49.696 293.961 50.48C294.614 51.2453 295.594 51.628 296.901 51.628C297.48 51.628 298.049 51.5347 298.609 51.348C299.169 51.1613 299.664 50.8813 300.093 50.508ZM295.305 41.968C294.577 41.968 293.989 42.2853 293.541 42.92C293.112 43.536 292.897 44.516 292.897 45.86L297.265 45.664C297.545 45.6453 297.685 45.524 297.685 45.3C297.685 44.9453 297.638 44.572 297.545 44.18C297.452 43.788 297.302 43.4333 297.097 43.116C296.91 42.78 296.668 42.5093 296.369 42.304C296.07 42.08 295.716 41.968 295.305 41.968ZM163.412 81.48C163.412 81.704 163.421 81.9 163.44 82.068C163.459 82.2173 163.515 82.348 163.608 82.46C163.701 82.572 163.841 82.6653 164.028 82.74C164.215 82.796 164.467 82.8427 164.784 82.88C165.045 82.9173 165.176 83.0387 165.176 83.244C165.176 83.3373 165.176 83.4307 165.176 83.524C165.176 83.6173 165.157 83.692 165.12 83.748C164.877 83.748 164.495 83.7667 163.972 83.804C163.468 83.8227 163.039 83.86 162.684 83.916C162.273 83.972 161.863 84.0373 161.452 84.112C161.06 84.2053 160.789 84.252 160.64 84.252C160.472 84.252 160.36 84.2147 160.304 84.14C160.267 84.084 160.248 83.9813 160.248 83.832V82.152C160.005 82.488 159.753 82.796 159.492 83.076C159.231 83.356 158.932 83.5987 158.596 83.804C158.279 83.9907 157.915 84.14 157.504 84.252C157.093 84.364 156.627 84.42 156.104 84.42C155.376 84.42 154.695 84.2893 154.06 84.028C153.444 83.7667 152.903 83.384 152.436 82.88C151.969 82.3573 151.605 81.7227 151.344 80.976C151.083 80.2293 150.952 79.38 150.952 78.428C150.952 77.4013 151.148 76.4773 151.54 75.656C151.951 74.816 152.464 74.1067 153.08 73.528C153.696 72.9493 154.368 72.5107 155.096 72.212C155.824 71.8947 156.524 71.736 157.196 71.736C157.737 71.736 158.232 71.792 158.68 71.904C159.147 71.9973 159.669 72.1373 160.248 72.324V67.676C160.248 67.0973 160.155 66.6773 159.968 66.416C159.781 66.136 159.343 65.9587 158.652 65.884C158.54 65.8467 158.447 65.8 158.372 65.744C158.297 65.688 158.26 65.5853 158.26 65.436C158.26 65.324 158.279 65.1746 158.316 64.988C158.447 64.988 158.615 64.988 158.82 64.988C159.025 64.9693 159.249 64.96 159.492 64.96C159.735 64.9413 159.977 64.9227 160.22 64.904C160.463 64.8853 160.687 64.8666 160.892 64.848C161.377 64.792 161.825 64.7173 162.236 64.624C162.665 64.5306 162.955 64.484 163.104 64.484C163.421 64.484 163.58 64.624 163.58 64.904C163.58 65.2587 163.552 65.6693 163.496 66.136C163.44 66.584 163.412 67.1066 163.412 67.704V81.48ZM160.248 74.256C159.389 73.3973 158.419 72.968 157.336 72.968C156.365 72.968 155.647 73.3973 155.18 74.256C154.713 75.096 154.48 76.2533 154.48 77.728C154.48 78.4373 154.536 79.1093 154.648 79.744C154.779 80.36 154.965 80.9013 155.208 81.368C155.451 81.816 155.759 82.1707 156.132 82.432C156.524 82.6933 156.991 82.824 157.532 82.824C157.868 82.824 158.195 82.7213 158.512 82.516C158.848 82.292 159.137 82.012 159.38 81.676C159.641 81.34 159.847 80.9573 159.996 80.528C160.164 80.0987 160.248 79.6693 160.248 79.24V74.256ZM166.279 78.092C166.279 77.1773 166.437 76.3373 166.755 75.572C167.091 74.788 167.548 74.116 168.127 73.556C168.705 72.9773 169.396 72.5293 170.199 72.212C171.001 71.8947 171.879 71.736 172.831 71.736C173.82 71.736 174.716 71.8947 175.519 72.212C176.321 72.5293 177.012 72.9773 177.591 73.556C178.169 74.116 178.608 74.788 178.907 75.572C179.224 76.3373 179.383 77.1773 179.383 78.092C179.383 79.0067 179.215 79.856 178.879 80.64C178.561 81.4053 178.104 82.068 177.507 82.628C176.928 83.188 176.237 83.6267 175.435 83.944C174.632 84.2613 173.755 84.42 172.803 84.42C171.813 84.42 170.917 84.2613 170.115 83.944C169.312 83.6267 168.621 83.188 168.043 82.628C167.483 82.068 167.044 81.4053 166.727 80.64C166.428 79.856 166.279 79.0067 166.279 78.092ZM169.807 77.532C169.807 79.2493 170.087 80.6213 170.647 81.648C171.225 82.6747 172.047 83.188 173.111 83.188C174.1 83.188 174.8 82.796 175.211 82.012C175.64 81.2093 175.855 80.0893 175.855 78.652C175.855 76.9533 175.565 75.5813 174.987 74.536C174.408 73.4907 173.596 72.968 172.551 72.968C171.561 72.968 170.852 73.3787 170.423 74.2C170.012 75.0027 169.807 76.1133 169.807 77.532ZM189.578 71.764C190.12 71.764 190.521 71.904 190.782 72.184C191.062 72.464 191.202 72.8187 191.202 73.248C191.202 73.3787 191.174 73.4907 191.118 73.584C191.081 73.6773 190.978 73.78 190.81 73.892C190.661 74.004 190.446 74.1347 190.166 74.284C189.886 74.4147 189.522 74.5827 189.074 74.788C188.776 74.4893 188.496 74.2933 188.234 74.2C187.992 74.088 187.749 74.032 187.506 74.032C187.282 74.032 187.058 74.0693 186.834 74.144C186.629 74.2187 186.442 74.368 186.274 74.592C186.106 74.7973 185.966 75.0773 185.854 75.432C185.761 75.7867 185.714 76.244 185.714 76.804V82.012C185.714 82.3853 185.864 82.6653 186.162 82.852C186.461 83.02 187.049 83.1787 187.926 83.328C188.132 83.3653 188.234 83.4867 188.234 83.692C188.234 83.9533 188.216 84.1307 188.178 84.224C187.936 84.2053 187.637 84.1867 187.282 84.168C186.928 84.168 186.554 84.1587 186.162 84.14C185.77 84.1213 185.378 84.1027 184.986 84.084C184.613 84.084 184.277 84.084 183.978 84.084C183.269 84.084 182.662 84.0933 182.158 84.112C181.654 84.1493 181.178 84.1867 180.73 84.224C180.693 84.1307 180.674 83.9533 180.674 83.692C180.674 83.4867 180.777 83.3653 180.982 83.328C181.58 83.216 181.99 83.0947 182.214 82.964C182.438 82.8333 182.55 82.628 182.55 82.348V74.816C182.55 74.3867 182.466 74.0413 182.298 73.78C182.149 73.5187 181.71 73.3413 180.982 73.248C180.721 73.2107 180.59 73.0707 180.59 72.828C180.59 72.772 180.59 72.6973 180.59 72.604C180.59 72.5107 180.609 72.436 180.646 72.38C180.758 72.38 180.917 72.38 181.122 72.38C181.328 72.3613 181.552 72.352 181.794 72.352C182.037 72.3333 182.28 72.3147 182.522 72.296C182.765 72.2773 182.98 72.2493 183.166 72.212C183.577 72.156 183.997 72.0907 184.426 72.016C184.874 71.9227 185.173 71.876 185.322 71.876C185.584 71.876 185.714 72.016 185.714 72.296V73.808C186.368 73.0987 186.993 72.5853 187.59 72.268C188.188 71.932 188.85 71.764 189.578 71.764ZM201.501 81.508C201.669 81.3773 201.819 81.312 201.949 81.312C202.043 81.312 202.145 81.3587 202.257 81.452C202.388 81.5267 202.519 81.6853 202.649 81.928C201.921 82.7867 201.081 83.4213 200.129 83.832C199.196 84.224 198.085 84.42 196.797 84.42C196.069 84.42 195.351 84.308 194.641 84.084C193.951 83.8413 193.325 83.4773 192.765 82.992C192.205 82.488 191.748 81.8627 191.393 81.116C191.057 80.3693 190.889 79.4733 190.889 78.428C190.889 77.4013 191.085 76.4773 191.477 75.656C191.888 74.816 192.401 74.1067 193.017 73.528C193.633 72.9493 194.305 72.5107 195.033 72.212C195.761 71.8947 196.461 71.736 197.133 71.736C198.944 71.736 200.307 72.2587 201.221 73.304C202.155 74.3493 202.621 75.7773 202.621 77.588C202.621 77.7187 202.556 77.784 202.425 77.784L194.389 78.12C194.389 79.576 194.716 80.696 195.369 81.48C196.023 82.2453 197.003 82.628 198.309 82.628C198.888 82.628 199.457 82.5347 200.017 82.348C200.577 82.1613 201.072 81.8813 201.501 81.508ZM196.713 72.968C195.985 72.968 195.397 73.2853 194.949 73.92C194.52 74.536 194.305 75.516 194.305 76.86L198.673 76.664C198.953 76.6453 199.093 76.524 199.093 76.3C199.093 75.9453 199.047 75.572 198.953 75.18C198.86 74.788 198.711 74.4333 198.505 74.116C198.319 73.78 198.076 73.5093 197.777 73.304C197.479 73.08 197.124 72.968 196.713 72.968ZM196.265 67.48C196.265 68.0027 196.097 68.4413 195.761 68.796C195.444 69.132 195.043 69.3 194.557 69.3C194.035 69.3 193.596 69.132 193.241 68.796C192.887 68.4413 192.709 68.0027 192.709 67.48C192.709 66.9947 192.887 66.5653 193.241 66.192C193.596 65.8186 194.035 65.632 194.557 65.632C195.043 65.632 195.444 65.8186 195.761 66.192C196.097 66.5653 196.265 66.9947 196.265 67.48ZM201.781 67.48C201.781 68.0027 201.613 68.4413 201.277 68.796C200.96 69.132 200.559 69.3 200.073 69.3C199.532 69.3 199.084 69.132 198.729 68.796C198.393 68.4413 198.225 68.0027 198.225 67.48C198.225 66.9947 198.393 66.5653 198.729 66.192C199.084 65.8186 199.532 65.632 200.073 65.632C200.559 65.632 200.96 65.8186 201.277 66.192C201.613 66.5653 201.781 66.9947 201.781 67.48ZM206.531 73.304C205.934 73.304 205.495 73.444 205.215 73.724C204.954 74.004 204.758 74.5547 204.627 75.376C204.608 75.5627 204.468 75.656 204.207 75.656C204.17 75.656 204.095 75.6467 203.983 75.628C203.89 75.6093 203.815 75.5907 203.759 75.572C203.796 75.0867 203.815 74.592 203.815 74.088C203.834 73.5653 203.862 73.136 203.899 72.8C203.918 72.5573 203.955 72.38 204.011 72.268C204.067 72.1373 204.198 72.072 204.403 72.072H213.839C213.858 72.1467 213.867 72.212 213.867 72.268C213.867 72.3053 213.858 72.3613 213.839 72.436C213.82 72.492 213.774 72.5667 213.699 72.66L207.791 82.852H211.403C211.888 82.852 212.271 82.6653 212.551 82.292C212.831 81.9 213.074 81.34 213.279 80.612C213.316 80.5 213.372 80.4253 213.447 80.388C213.54 80.3507 213.624 80.332 213.699 80.332C213.755 80.332 213.83 80.3413 213.923 80.36C214.016 80.3787 214.11 80.3973 214.203 80.416L213.895 83.86C213.858 84.028 213.811 84.1213 213.755 84.14C213.699 84.1773 213.606 84.196 213.475 84.196C213.363 84.196 213.204 84.196 212.999 84.196C212.812 84.196 212.626 84.1773 212.439 84.14C212.122 84.1213 211.795 84.1027 211.459 84.084C211.142 84.084 210.843 84.084 210.563 84.084H203.647C203.628 84.0467 203.619 84 203.619 83.944C203.619 83.888 203.628 83.8413 203.647 83.804C203.666 83.748 203.722 83.6453 203.815 83.496L209.891 73.304H206.531ZM218.751 84.084C218.023 84.084 217.398 84.0933 216.875 84.112C216.352 84.1493 215.848 84.1867 215.363 84.224C215.326 84.0373 215.307 83.86 215.307 83.692C215.307 83.5613 215.335 83.4773 215.391 83.44C215.466 83.384 215.54 83.3467 215.615 83.328C216.212 83.216 216.623 83.0947 216.847 82.964C217.071 82.8333 217.183 82.628 217.183 82.348V74.956C217.183 74.396 217.09 73.9667 216.903 73.668C216.716 73.3693 216.278 73.192 215.587 73.136C215.344 73.0987 215.223 72.9493 215.223 72.688C215.223 72.632 215.223 72.5667 215.223 72.492C215.223 72.3987 215.242 72.3147 215.279 72.24C215.391 72.24 215.55 72.24 215.755 72.24C215.979 72.2213 216.212 72.212 216.455 72.212C216.698 72.1933 216.94 72.1747 217.183 72.156C217.426 72.1373 217.65 72.1187 217.855 72.1C218.322 72.044 218.77 71.9693 219.199 71.876C219.628 71.7827 219.918 71.736 220.067 71.736C220.366 71.736 220.515 71.876 220.515 72.156C220.515 72.3613 220.487 72.632 220.431 72.968C220.375 73.304 220.347 73.7707 220.347 74.368V82.348C220.347 82.628 220.468 82.8333 220.711 82.964C220.954 83.0947 221.355 83.216 221.915 83.328C222.12 83.3653 222.223 83.4867 222.223 83.692C222.223 83.7853 222.223 83.8787 222.223 83.972C222.223 84.0653 222.204 84.1493 222.167 84.224C221.7 84.1867 221.196 84.1493 220.655 84.112C220.114 84.0933 219.479 84.084 218.751 84.084ZM216.707 67.648C216.707 67.0507 216.894 66.5653 217.267 66.192C217.659 65.8 218.144 65.604 218.723 65.604C219.32 65.604 219.806 65.8 220.179 66.192C220.552 66.5653 220.739 67.0507 220.739 67.648C220.739 68.2453 220.552 68.74 220.179 69.132C219.806 69.5053 219.32 69.692 218.723 69.692C218.144 69.692 217.659 69.5053 217.267 69.132C216.894 68.74 216.707 68.2453 216.707 67.648ZM235.824 74.48C236.477 73.64 237.159 72.9773 237.868 72.492C238.596 71.988 239.333 71.736 240.08 71.736C242.413 71.736 243.58 73.0053 243.58 75.544V82.376C243.58 82.6373 243.692 82.8333 243.916 82.964C244.14 83.0947 244.551 83.216 245.148 83.328C245.353 83.3653 245.456 83.4867 245.456 83.692C245.456 83.7853 245.456 83.8787 245.456 83.972C245.456 84.0653 245.437 84.1493 245.4 84.224C244.933 84.1867 244.457 84.1493 243.972 84.112C243.487 84.0933 242.88 84.084 242.152 84.084C241.536 84.084 240.967 84.0933 240.444 84.112C239.94 84.1493 239.436 84.1867 238.932 84.224C238.895 84.0373 238.876 83.86 238.876 83.692C238.876 83.5613 238.904 83.4773 238.96 83.44C239.035 83.384 239.109 83.3467 239.184 83.328C239.688 83.2347 240.015 83.1227 240.164 82.992C240.332 82.8613 240.416 82.656 240.416 82.376V76.888C240.416 75.7867 240.304 75.0307 240.08 74.62C239.875 74.1907 239.483 73.976 238.904 73.976C238.064 73.976 237.355 74.2653 236.776 74.844C236.197 75.404 235.908 76.244 235.908 77.364V82.376C235.908 82.656 235.992 82.8613 236.16 82.992C236.328 83.1227 236.655 83.2347 237.14 83.328C237.345 83.3653 237.448 83.4867 237.448 83.692C237.448 83.7853 237.448 83.8787 237.448 83.972C237.448 84.0653 237.429 84.1493 237.392 84.224C236.944 84.1867 236.496 84.1493 236.048 84.112C235.6 84.0933 235.077 84.084 234.48 84.084C233.864 84.084 233.295 84.0933 232.772 84.112C232.268 84.1493 231.764 84.1867 231.26 84.224C231.223 84.0373 231.204 83.86 231.204 83.692C231.204 83.5613 231.232 83.4773 231.288 83.44C231.363 83.384 231.437 83.3467 231.512 83.328C232.016 83.2347 232.343 83.1227 232.492 82.992C232.66 82.8613 232.744 82.656 232.744 82.376V76.888C232.744 75.7867 232.632 75.0307 232.408 74.62C232.203 74.1907 231.811 73.976 231.232 73.976C230.392 73.976 229.683 74.2653 229.104 74.844C228.525 75.404 228.236 76.244 228.236 77.364V82.376C228.236 82.656 228.32 82.8613 228.488 82.992C228.656 83.1227 228.983 83.2347 229.468 83.328C229.673 83.3653 229.776 83.4867 229.776 83.692C229.776 83.7853 229.776 83.8787 229.776 83.972C229.776 84.0653 229.757 84.1493 229.72 84.224C229.235 84.1867 228.731 84.1493 228.208 84.112C227.685 84.0933 227.125 84.084 226.528 84.084C225.8 84.084 225.184 84.0933 224.68 84.112C224.195 84.1493 223.719 84.1867 223.252 84.224C223.215 84.0373 223.196 83.86 223.196 83.692C223.196 83.5613 223.224 83.4773 223.28 83.44C223.355 83.384 223.429 83.3467 223.504 83.328C224.101 83.216 224.512 83.0947 224.736 82.964C224.96 82.8333 225.072 82.628 225.072 82.348V74.956C225.072 74.396 224.969 73.9667 224.764 73.668C224.559 73.3693 224.129 73.192 223.476 73.136C223.233 73.08 223.112 72.9307 223.112 72.688C223.112 72.632 223.112 72.5667 223.112 72.492C223.112 72.3987 223.131 72.3147 223.168 72.24C223.28 72.24 223.439 72.24 223.644 72.24C223.868 72.2213 224.101 72.212 224.344 72.212C224.587 72.1933 224.829 72.1747 225.072 72.156C225.315 72.1373 225.539 72.1187 225.744 72.1C226.211 72.044 226.659 71.9693 227.088 71.876C227.517 71.7827 227.807 71.736 227.956 71.736C228.255 71.736 228.404 71.876 228.404 72.156C228.404 72.3613 228.376 72.632 228.32 72.968C228.264 73.304 228.236 73.7707 228.236 74.368C228.833 73.584 229.487 72.9493 230.196 72.464C230.924 71.9787 231.661 71.736 232.408 71.736C234.368 71.736 235.507 72.6507 235.824 74.48ZM255.161 84.084C254.433 84.084 253.807 84.0933 253.285 84.112C252.762 84.1493 252.258 84.1867 251.773 84.224C251.735 84.0373 251.717 83.86 251.717 83.692C251.717 83.5613 251.745 83.4773 251.801 83.44C251.875 83.384 251.95 83.3467 252.025 83.328C252.622 83.216 253.033 83.0947 253.257 82.964C253.481 82.8333 253.593 82.628 253.593 82.348V74.956C253.593 74.396 253.499 73.9667 253.313 73.668C253.126 73.3693 252.687 73.192 251.997 73.136C251.754 73.0987 251.633 72.9493 251.633 72.688C251.633 72.632 251.633 72.5667 251.633 72.492C251.633 72.3987 251.651 72.3147 251.689 72.24C251.801 72.24 251.959 72.24 252.165 72.24C252.389 72.2213 252.622 72.212 252.865 72.212C253.107 72.1933 253.35 72.1747 253.593 72.156C253.835 72.1373 254.059 72.1187 254.265 72.1C254.731 72.044 255.179 71.9693 255.609 71.876C256.038 71.7827 256.327 71.736 256.477 71.736C256.775 71.736 256.925 71.876 256.925 72.156C256.925 72.3613 256.897 72.632 256.841 72.968C256.785 73.304 256.757 73.7707 256.757 74.368V82.348C256.757 82.628 256.878 82.8333 257.121 82.964C257.363 83.0947 257.765 83.216 258.325 83.328C258.53 83.3653 258.633 83.4867 258.633 83.692C258.633 83.7853 258.633 83.8787 258.633 83.972C258.633 84.0653 258.614 84.1493 258.577 84.224C258.11 84.1867 257.606 84.1493 257.065 84.112C256.523 84.0933 255.889 84.084 255.161 84.084ZM253.117 67.648C253.117 67.0507 253.303 66.5653 253.677 66.192C254.069 65.8 254.554 65.604 255.133 65.604C255.73 65.604 256.215 65.8 256.589 66.192C256.962 66.5653 257.149 67.0507 257.149 67.648C257.149 68.2453 256.962 68.74 256.589 69.132C256.215 69.5053 255.73 69.692 255.133 69.692C254.554 69.692 254.069 69.5053 253.677 69.132C253.303 68.74 253.117 68.2453 253.117 67.648ZM272.877 75.488C272.616 75.4693 272.466 75.3667 272.429 75.18C272.298 74.4147 272 73.8547 271.533 73.5C271.066 73.1453 270.478 72.968 269.769 72.968C269.134 72.968 268.649 73.1267 268.313 73.444C267.977 73.7613 267.809 74.1347 267.809 74.564C267.809 74.7693 267.837 74.956 267.893 75.124C267.949 75.292 268.061 75.4507 268.229 75.6C268.416 75.7493 268.668 75.8987 268.985 76.048C269.302 76.1787 269.732 76.328 270.273 76.496C270.908 76.6827 271.468 76.888 271.953 77.112C272.438 77.3173 272.849 77.5693 273.185 77.868C273.521 78.1667 273.773 78.5307 273.941 78.96C274.128 79.3707 274.221 79.8653 274.221 80.444C274.221 80.9853 274.128 81.4987 273.941 81.984C273.773 82.4693 273.493 82.8987 273.101 83.272C272.709 83.6267 272.214 83.9067 271.617 84.112C271.02 84.3173 270.301 84.42 269.461 84.42C268.864 84.42 268.173 84.3547 267.389 84.224C266.624 84.0933 265.924 83.86 265.289 83.524C265.252 83.0387 265.214 82.5253 265.177 81.984C265.158 81.424 265.149 80.8733 265.149 80.332H265.513C265.718 80.332 265.896 80.3693 266.045 80.444C266.194 80.5 266.278 80.6027 266.297 80.752C266.372 81.536 266.68 82.1427 267.221 82.572C267.762 82.9827 268.509 83.188 269.461 83.188C270.114 83.188 270.646 83.0387 271.057 82.74C271.468 82.4413 271.673 82.0493 271.673 81.564C271.673 81.116 271.486 80.7333 271.113 80.416C270.758 80.0987 270.077 79.7907 269.069 79.492C267.706 79.1 266.745 78.5867 266.185 77.952C265.644 77.2987 265.373 76.524 265.373 75.628C265.373 74.452 265.765 73.5093 266.549 72.8C267.352 72.0907 268.388 71.736 269.657 71.736C270.385 71.736 271.085 71.8293 271.757 72.016C272.448 72.184 272.998 72.3707 273.409 72.576C273.428 72.7253 273.446 72.9307 273.465 73.192C273.484 73.4347 273.502 73.7053 273.521 74.004C273.54 74.284 273.549 74.564 273.549 74.844C273.568 75.1053 273.577 75.3293 273.577 75.516L272.877 75.488ZM281.908 84.224C281.423 84.1867 280.919 84.1493 280.396 84.112C279.874 84.0933 279.314 84.084 278.716 84.084C277.988 84.084 277.372 84.0933 276.868 84.112C276.383 84.1493 275.907 84.1867 275.44 84.224C275.403 84.0373 275.384 83.86 275.384 83.692C275.384 83.5613 275.412 83.4773 275.468 83.44C275.543 83.384 275.618 83.3467 275.692 83.328C276.29 83.2347 276.7 83.1227 276.924 82.992C277.148 82.8427 277.26 82.628 277.26 82.348V67.676C277.26 67.116 277.167 66.696 276.98 66.416C276.794 66.1173 276.355 65.94 275.664 65.884C275.422 65.8467 275.3 65.6973 275.3 65.436C275.3 65.38 275.3 65.3147 275.3 65.24C275.3 65.1467 275.319 65.0627 275.356 64.988C275.468 64.988 275.627 64.988 275.832 64.988C276.056 64.9693 276.29 64.96 276.532 64.96C276.775 64.9413 277.018 64.9227 277.26 64.904C277.503 64.8853 277.727 64.8666 277.932 64.848C278.399 64.792 278.847 64.7173 279.276 64.624C279.706 64.5306 279.995 64.484 280.144 64.484C280.443 64.484 280.592 64.624 280.592 64.904C280.592 65.1093 280.564 65.38 280.508 65.716C280.452 66.0333 280.424 66.4906 280.424 67.088V74.34C281.022 73.556 281.684 72.9307 282.412 72.464C283.14 71.9787 283.896 71.736 284.68 71.736C285.819 71.736 286.715 72.0533 287.368 72.688C288.022 73.3227 288.348 74.2747 288.348 75.544V82.376C288.348 82.6373 288.451 82.8333 288.656 82.964C288.88 83.0947 289.3 83.216 289.916 83.328C289.991 83.3467 290.056 83.384 290.112 83.44C290.187 83.4773 290.224 83.5613 290.224 83.692C290.224 83.86 290.206 84.0373 290.168 84.224C289.683 84.1867 289.198 84.1493 288.712 84.112C288.227 84.0933 287.62 84.084 286.892 84.084C286.295 84.084 285.735 84.0933 285.212 84.112C284.69 84.1493 284.186 84.1867 283.7 84.224C283.663 84.1493 283.644 84.0653 283.644 83.972C283.644 83.8787 283.644 83.7853 283.644 83.692C283.644 83.4867 283.747 83.3653 283.952 83.328C284.456 83.2347 284.783 83.1227 284.932 82.992C285.1 82.8613 285.184 82.656 285.184 82.376V76.888C285.184 75.7867 285.044 75.0307 284.764 74.62C284.503 74.1907 284.074 73.976 283.476 73.976C282.636 73.976 281.918 74.2653 281.32 74.844C280.723 75.404 280.424 76.244 280.424 77.364V82.376C280.424 82.656 280.499 82.8613 280.648 82.992C280.798 83.1227 281.134 83.2347 281.656 83.328C281.862 83.3653 281.964 83.4867 281.964 83.692C281.964 83.7853 281.964 83.8787 281.964 83.972C281.964 84.0653 281.946 84.1493 281.908 84.224ZM292.829 74.564C292.829 74.116 292.754 73.7893 292.605 73.584C292.474 73.36 292.091 73.2107 291.457 73.136C291.195 73.08 291.065 72.9493 291.065 72.744C291.065 72.6693 291.065 72.5853 291.065 72.492C291.065 72.3987 291.083 72.3147 291.121 72.24C291.233 72.24 291.391 72.24 291.597 72.24C291.802 72.2213 292.017 72.212 292.241 72.212C292.465 72.1933 292.689 72.1747 292.913 72.156C293.155 72.1373 293.37 72.1093 293.557 72.072C293.986 72.016 294.397 71.9507 294.789 71.876C295.181 71.7827 295.451 71.736 295.601 71.736C295.769 71.736 295.871 71.7733 295.909 71.848C295.965 71.9227 295.993 72.0253 295.993 72.156V74.06C296.534 73.3507 297.15 72.7907 297.841 72.38C298.531 71.9507 299.297 71.736 300.137 71.736C300.865 71.736 301.537 71.876 302.153 72.156C302.787 72.4173 303.338 72.8093 303.805 73.332C304.271 73.836 304.635 74.4613 304.897 75.208C305.158 75.9547 305.289 76.804 305.289 77.756C305.289 78.8013 305.083 79.7347 304.673 80.556C304.281 81.3773 303.777 82.0773 303.161 82.656C302.545 83.2347 301.873 83.6733 301.145 83.972C300.417 84.2707 299.717 84.42 299.045 84.42C298.503 84.42 297.999 84.3733 297.533 84.28C297.085 84.2053 296.571 84.0653 295.993 83.86V88.508C295.993 88.732 296.011 88.9187 296.049 89.068C296.105 89.236 296.217 89.376 296.385 89.488C296.553 89.6 296.814 89.6933 297.169 89.768C297.523 89.8613 298.009 89.9453 298.625 90.02C298.867 90.0573 298.989 90.1973 298.989 90.44C298.989 90.6827 298.97 90.8507 298.933 90.944C298.447 90.9067 297.831 90.8693 297.085 90.832C296.338 90.8133 295.61 90.804 294.901 90.804C294.285 90.804 293.659 90.8133 293.025 90.832C292.409 90.8693 291.849 90.9067 291.345 90.944C291.307 90.7573 291.289 90.58 291.289 90.412C291.289 90.2813 291.317 90.188 291.373 90.132C291.447 90.0947 291.522 90.0667 291.597 90.048C292.119 89.9173 292.455 89.796 292.605 89.684C292.754 89.572 292.829 89.376 292.829 89.096V74.564ZM295.993 81.844C296.851 82.74 297.822 83.188 298.905 83.188C299.857 83.188 300.566 82.768 301.033 81.928C301.518 81.0693 301.761 79.912 301.761 78.456C301.761 77.7467 301.705 77.084 301.593 76.468C301.481 75.8333 301.303 75.292 301.061 74.844C300.818 74.3773 300.501 74.0133 300.109 73.752C299.735 73.472 299.287 73.332 298.765 73.332C298.41 73.332 298.065 73.444 297.729 73.668C297.411 73.8733 297.122 74.1533 296.861 74.508C296.599 74.844 296.385 75.2267 296.217 75.656C296.067 76.0853 295.993 76.5147 295.993 76.944V81.844ZM317.253 81.508C317.421 81.3773 317.57 81.312 317.701 81.312C317.794 81.312 317.897 81.3587 318.009 81.452C318.139 81.5267 318.27 81.6853 318.401 81.928C317.673 82.7867 316.833 83.4213 315.881 83.832C314.947 84.224 313.837 84.42 312.549 84.42C311.821 84.42 311.102 84.308 310.393 84.084C309.702 83.8413 309.077 83.4773 308.517 82.992C307.957 82.488 307.499 81.8627 307.145 81.116C306.809 80.3693 306.641 79.4733 306.641 78.428C306.641 77.4013 306.837 76.4773 307.229 75.656C307.639 74.816 308.153 74.1067 308.769 73.528C309.385 72.9493 310.057 72.5107 310.785 72.212C311.513 71.8947 312.213 71.736 312.885 71.736C314.695 71.736 316.058 72.2587 316.973 73.304C317.906 74.3493 318.373 75.7773 318.373 77.588C318.373 77.7187 318.307 77.784 318.177 77.784L310.141 78.12C310.141 79.576 310.467 80.696 311.121 81.48C311.774 82.2453 312.754 82.628 314.061 82.628C314.639 82.628 315.209 82.5347 315.769 82.348C316.329 82.1613 316.823 81.8813 317.253 81.508ZM312.465 72.968C311.737 72.968 311.149 73.2853 310.701 73.92C310.271 74.536 310.057 75.516 310.057 76.86L314.425 76.664C314.705 76.6453 314.845 76.524 314.845 76.3C314.845 75.9453 314.798 75.572 314.705 75.18C314.611 74.788 314.462 74.4333 314.257 74.116C314.07 73.78 313.827 73.5093 313.529 73.304C313.23 73.08 312.875 72.968 312.465 72.968ZM321.436 74.956C321.436 74.396 321.333 73.9853 321.128 73.724C320.923 73.444 320.447 73.2573 319.7 73.164C319.439 73.108 319.308 72.9493 319.308 72.688C319.308 72.5387 319.327 72.3893 319.364 72.24C319.495 72.24 319.663 72.24 319.868 72.24C320.092 72.2213 320.325 72.212 320.568 72.212C320.829 72.1933 321.081 72.1747 321.324 72.156C321.585 72.1373 321.819 72.1187 322.024 72.1C322.491 72.044 322.948 71.9693 323.396 71.876C323.844 71.7827 324.143 71.736 324.292 71.736C324.609 71.736 324.768 71.876 324.768 72.156C324.768 72.3613 324.74 72.632 324.684 72.968C324.628 73.304 324.6 73.7707 324.6 74.368V81.284C324.6 82.5347 324.535 83.5707 324.404 84.392C324.273 85.232 324.012 85.988 323.62 86.66C323.247 87.332 322.705 87.976 321.996 88.592C321.287 89.2267 320.353 89.964 319.196 90.804C319.084 90.7107 318.981 90.608 318.888 90.496C318.813 90.4027 318.776 90.2907 318.776 90.16C318.776 90.0667 318.795 89.9827 318.832 89.908C318.888 89.8333 318.935 89.768 318.972 89.712C319.476 89.208 319.887 88.7507 320.204 88.34C320.521 87.9293 320.773 87.5187 320.96 87.108C321.147 86.6973 321.268 86.2493 321.324 85.764C321.399 85.2973 321.436 84.7373 321.436 84.084V74.956ZM320.932 67.648C320.932 67.0507 321.119 66.5653 321.492 66.192C321.884 65.8 322.379 65.604 322.976 65.604C323.555 65.604 324.031 65.8 324.404 66.192C324.796 66.5653 324.992 67.0507 324.992 67.648C324.992 68.2453 324.796 68.74 324.404 69.132C324.031 69.5053 323.555 69.692 322.976 69.692C322.379 69.692 321.884 69.5053 321.492 69.132C321.119 68.74 320.932 68.2453 320.932 67.648ZM334.65 82.264C334.837 82.152 334.996 82.096 335.126 82.096C335.313 82.096 335.509 82.292 335.714 82.684C334.93 83.3933 334.24 83.86 333.642 84.084C333.064 84.308 332.448 84.42 331.794 84.42C331.421 84.42 331.057 84.3733 330.702 84.28C330.366 84.1867 330.058 84.0187 329.778 83.776C329.498 83.5333 329.274 83.2067 329.106 82.796C328.938 82.3667 328.854 81.8253 328.854 81.172V73.472H327.174V72.772C327.174 72.6973 327.193 72.604 327.23 72.492C327.268 72.38 327.38 72.324 327.566 72.324C328.07 72.324 328.537 72.184 328.966 71.904C329.396 71.6053 329.741 71.1667 330.002 70.588C330.208 70.1587 330.432 69.8133 330.674 69.552C330.936 69.2906 331.188 69.16 331.43 69.16H332.018V72.072H335.294C335.294 72.6693 335.248 73.052 335.154 73.22C335.08 73.388 334.93 73.472 334.706 73.472H332.018V80.388C332.018 80.948 332.037 81.396 332.074 81.732C332.112 82.0493 332.168 82.292 332.242 82.46C332.336 82.628 332.448 82.74 332.578 82.796C332.728 82.8333 332.896 82.852 333.082 82.852C333.288 82.852 333.53 82.8053 333.81 82.712C334.09 82.6 334.37 82.4507 334.65 82.264ZM346.69 81.508C346.858 81.3773 347.007 81.312 347.138 81.312C347.231 81.312 347.334 81.3587 347.446 81.452C347.577 81.5267 347.707 81.6853 347.838 81.928C347.11 82.7867 346.27 83.4213 345.318 83.832C344.385 84.224 343.274 84.42 341.986 84.42C341.258 84.42 340.539 84.308 339.83 84.084C339.139 83.8413 338.514 83.4773 337.954 82.992C337.394 82.488 336.937 81.8627 336.582 81.116C336.246 80.3693 336.078 79.4733 336.078 78.428C336.078 77.4013 336.274 76.4773 336.666 75.656C337.077 74.816 337.59 74.1067 338.206 73.528C338.822 72.9493 339.494 72.5107 340.222 72.212C340.95 71.8947 341.65 71.736 342.322 71.736C344.133 71.736 345.495 72.2587 346.41 73.304C347.343 74.3493 347.81 75.7773 347.81 77.588C347.81 77.7187 347.745 77.784 347.614 77.784L339.578 78.12C339.578 79.576 339.905 80.696 340.558 81.48C341.211 82.2453 342.191 82.628 343.498 82.628C344.077 82.628 344.646 82.5347 345.206 82.348C345.766 82.1613 346.261 81.8813 346.69 81.508ZM341.902 72.968C341.174 72.968 340.586 73.2853 340.138 73.92C339.709 74.536 339.494 75.516 339.494 76.86L343.862 76.664C344.142 76.6453 344.282 76.524 344.282 76.3C344.282 75.9453 344.235 75.572 344.142 75.18C344.049 74.788 343.899 74.4333 343.694 74.116C343.507 73.78 343.265 73.5093 342.966 73.304C342.667 73.08 342.313 72.968 341.902 72.968ZM341.454 67.48C341.454 68.0027 341.286 68.4413 340.95 68.796C340.633 69.132 340.231 69.3 339.746 69.3C339.223 69.3 338.785 69.132 338.43 68.796C338.075 68.4413 337.898 68.0027 337.898 67.48C337.898 66.9947 338.075 66.5653 338.43 66.192C338.785 65.8186 339.223 65.632 339.746 65.632C340.231 65.632 340.633 65.8186 340.95 66.192C341.286 66.5653 341.454 66.9947 341.454 67.48ZM346.97 67.48C346.97 68.0027 346.802 68.4413 346.466 68.796C346.149 69.132 345.747 69.3 345.262 69.3C344.721 69.3 344.273 69.132 343.918 68.796C343.582 68.4413 343.414 68.0027 343.414 67.48C343.414 66.9947 343.582 66.5653 343.918 66.192C344.273 65.8186 344.721 65.632 345.262 65.632C345.747 65.632 346.149 65.8186 346.466 66.192C346.802 66.5653 346.97 66.9947 346.97 67.48Z" fill="black"/>
<path d="M3.39687 59.3832C-0.329987 58.7218 -0.0150408 53.7614 0.0217029 51.0371C0.0689448 47.5622 0.646346 43.8616 0.74083 40.3552C0.793321 38.4812 -0.240752 36.9223 0.809068 34.7649C2.00061 32.3293 6.67231 32.9802 8.89793 33.4421C9.49108 22.0463 15.9527 12.1412 28.0991 11.4011C27.5165 8.17293 27.9364 3.391 30.0676 0.755948C31.7525 -1.3227 32.1987 1.39634 32.6134 2.7926C33.3377 5.23343 33.5162 7.56403 33.4742 10.1046L34.0096 10.64L37.7155 10.535C38.2929 10.1361 37.9675 8.26216 38.1302 7.39606C38.3821 6.07854 39.7731 3.20728 41.3899 3.55372C42.1825 3.72694 42.4764 9.38022 42.3137 10.3356L62.7695 10.3198C78.8055 11.4904 95.8598 12.1098 111.707 15.0597C116.903 16.0256 123.974 17.8995 126.856 22.6604C129.627 27.2482 129.612 35.0011 129.779 40.3552C129.995 47.2945 130.551 58.7008 129.779 65.2727C129.716 65.7923 129.737 66.186 129.228 66.5009H122.294V81.9648L121.964 82.6997L120.73 82.8729C119.911 82.6944 120.074 74.6843 120.147 73.4193C120.273 71.2199 120.709 68.6531 121.229 66.5062L112.678 65.9918C112.048 62.6219 112.657 60.7059 109.67 58.3333C107.597 56.6851 106.61 56.7796 103.996 56.9056C95.9858 57.2888 87.8392 58.4016 79.8185 59.0315C76.8738 59.2624 72.706 58.979 69.9502 59.4776C67.9976 59.8293 67.0632 62.1914 66.5908 63.9341C65.7982 66.8579 65.2418 71.7973 65.0738 74.8575C64.9583 76.9781 64.7326 82.5684 65.1473 84.3741C65.7509 87.0039 68.5435 85.7126 70.2127 85.6812C88.3956 85.3347 109.271 83.1878 127.097 84.6366C130.861 84.941 135.401 86.0171 135.832 90.4788C136.346 95.8434 135.401 101.486 135.086 106.835C134.913 109.822 136.005 115.517 133.228 117.417C131.071 118.897 128.142 118.262 125.685 118.404C113.15 119.139 99.8963 119.265 87.309 119.48C64.5542 119.869 41.8203 119.727 19.0444 119.821L18.0734 119.018C17.1075 115.055 15.517 111.302 14.4252 107.381C10.121 91.8751 8.8087 75.4507 8.91368 59.3937C7.23922 59.1889 4.98735 59.6771 3.40212 59.3937L3.39687 59.3832ZM17.097 110.557L132.987 109.349C133.632 108.898 133.249 103.176 133.323 101.864C133.48 99.0874 134.446 94.4681 134.299 91.9958C134.078 88.2847 130.908 87.2454 127.764 86.794C117.344 85.298 103.371 86.8202 92.6368 87.1142C86.107 87.2926 79.5666 87.6863 73.0787 87.828C71.6404 87.8595 63.1211 88.0327 62.7275 87.4816C62.8797 81.7863 63.5936 75.9756 64.0135 70.233C64.2077 67.5403 63.7038 64.7897 64.4492 62.1337C66.3441 55.3781 76.9735 57.2205 82.3014 56.8846C87.015 56.5854 91.8127 56.1865 96.5212 55.819C100.39 55.5146 108.505 53.5514 111.754 55.5198C115.003 57.4882 113.014 63.4617 114.095 64.1966C116.977 64.3488 125.465 66.2385 127.438 63.9866C127.948 63.404 127.932 62.7688 127.995 62.055C128.64 54.9687 128.703 34.3502 126.808 28.0145C124.399 19.9414 118.158 18.2774 110.626 16.8287C87.9284 12.4719 57.3786 11.1597 34.2983 12.4352C20.131 13.2173 12.0631 18.3194 11.0343 33.2479C10.184 45.6095 10.2889 60.6954 11.0186 73.0728C11.7639 85.7336 13.9948 98.2947 17.0918 110.546L17.097 110.557ZM8.90843 35.2163C6.1789 34.8331 3.17116 34.4919 2.86672 38.0561L8.32578 37.7359L8.90843 35.2163ZM8.55149 38.7699H2.50978L2.15284 42.6805C4.29447 42.7698 6.39411 43.2422 8.55674 43.0375V38.7699H8.55149ZM2.683 46.9428H8.54624V44.0978L2.14759 43.7408C2.20008 44.502 1.84839 46.6856 2.683 46.9428ZM8.499 48.0608L2.15284 47.6567V50.8586L8.90843 50.5017L8.499 48.0661V48.0608ZM2.15284 54.0553H8.01608C8.15256 54.0553 8.5305 54.7167 8.86119 53.8349L8.90843 51.9189L2.15284 51.562V54.0501V54.0553ZM8.37302 55.1209H2.86147C3.72232 57.3098 6.76155 57.6877 8.90318 57.609L8.36777 55.1209H8.37302Z" fill="black"/>
<path d="M46.3505 30.844C46.4135 30.949 46.7652 30.949 46.9332 30.9543L46.9437 31.4792C46.8754 31.7836 46.3295 31.5369 46.2298 31.8991C45.8938 33.1431 46.0461 34.5289 45.4424 36.0301C43.9884 39.631 39.5477 42.8907 35.7158 43.3631C31.4641 43.8881 24.53 40.6441 22.4776 36.7545C20.3412 32.7127 21.1128 26.1513 25.3593 23.7682C30.2463 21.0282 37.9834 22.246 42.5659 25.196C45.6891 27.2064 44.9175 28.5187 46.3505 30.8493V30.844ZM44.4503 30.9438C45.1485 29.5895 41.1591 25.0385 40.5397 25.6159C41.6316 27.1907 42.8231 28.9281 42.6761 30.9438H44.4503ZM41.9623 35.5682C45.2062 36.9015 45.8413 30.8073 43.243 31.6891L41.9623 35.5682ZM39.4794 39.4788C40.8075 40.6021 45.1695 35.9462 42.1512 36.2769C41.4321 36.3556 39.217 39.2583 39.4794 39.4788ZM39.4742 40.1927L37.6842 40.3554L34.1411 41.9616C35.9153 41.9931 38.3141 41.6992 39.4689 40.1927H39.4742Z" fill="black"/>
<path d="M28.2779 52.6328C28.6086 52.7273 30.6348 55.7823 31.6164 56.0657L30.6085 65.2779C27.5378 65.7083 21.6641 65.9393 21.3229 61.7243C21.0814 58.79 22.5617 55.6458 20.9922 52.6381H28.2779V52.6328ZM29.165 55.8295V62.4066C29.165 63.4932 23.3543 62.1547 22.4094 62.4066C23.9212 65.0364 27.3488 64.2596 29.8789 64.3593L30.2306 56.7166L29.165 55.8243V55.8295Z" fill="black"/>
<path d="M43.7414 64.3599H37.1643C37.0593 64.3599 36.6813 64.9426 36.4556 65.0633C33.0857 61.7459 35.1486 57.5151 35.2116 53.342C37.138 53.5573 39.4739 52.5022 41.3583 53.0586C42.0774 53.2738 44.0616 55.5414 44.0668 56.355C44.0668 56.6805 43.7414 56.9587 43.7414 57.0689V64.3547V64.3599ZM41.6103 54.4076V61.6934C40.1038 62.8902 37.7364 61.7249 35.9255 62.5857C37.264 64.9006 40.5027 62.7432 42.6811 63.2943C42.9698 61.8928 42.3189 60.4913 42.2926 59.2053C42.2664 57.6568 43.5262 55.6726 41.6103 54.4076Z" fill="black"/>
</svg>
