<svg width="339" height="98" viewBox="0 0 339 98" fill="none" xmlns="http://www.w3.org/2000/svg">
<path d="M199.032 35.084C199.032 36.148 198.92 37.128 198.696 38.024C198.472 38.9013 198.08 39.6667 197.52 40.32C196.979 40.9547 196.241 41.4493 195.308 41.804C194.393 42.1587 193.236 42.336 191.836 42.336C190.175 42.336 188.831 42.1493 187.804 41.776C186.796 41.4027 186.012 40.8987 185.452 40.264C184.911 39.6107 184.547 38.8547 184.36 37.996C184.173 37.1187 184.08 36.1853 184.08 35.196V25.9C184.08 25.508 183.959 25.2373 183.716 25.088C183.473 24.92 182.979 24.7893 182.232 24.696C182.027 24.6587 181.924 24.4813 181.924 24.164C181.924 24.108 181.924 24.0333 181.924 23.94C181.924 23.8467 181.943 23.7533 181.98 23.66C182.521 23.6973 183.091 23.7347 183.688 23.772C184.304 23.7907 185.032 23.8 185.872 23.8C186.525 23.8 187.207 23.7907 187.916 23.772C188.625 23.7347 189.26 23.6973 189.82 23.66C189.839 23.7533 189.848 23.8467 189.848 23.94C189.867 24.0333 189.876 24.108 189.876 24.164C189.876 24.4813 189.773 24.6587 189.568 24.696C188.803 24.7893 188.28 24.92 188 25.088C187.739 25.256 187.608 25.5267 187.608 25.9V34.58C187.608 36.5213 187.963 37.996 188.672 39.004C189.4 40.012 190.641 40.516 192.396 40.516C194.188 40.516 195.457 40.0493 196.204 39.116C196.969 38.164 197.352 36.624 197.352 34.496V25.9C197.352 25.5267 197.221 25.256 196.96 25.088C196.699 24.92 196.204 24.7893 195.476 24.696C195.252 24.64 195.14 24.4627 195.14 24.164C195.14 24.108 195.14 24.0333 195.14 23.94C195.159 23.8467 195.177 23.7533 195.196 23.66C195.737 23.716 196.232 23.7533 196.68 23.772C197.147 23.7907 197.641 23.8 198.164 23.8C198.761 23.8 199.293 23.7907 199.76 23.772C200.227 23.7533 200.684 23.716 201.132 23.66C201.151 23.7533 201.16 23.8467 201.16 23.94C201.179 24.0333 201.188 24.108 201.188 24.164C201.188 24.4627 201.076 24.64 200.852 24.696C200.161 24.7707 199.685 24.9013 199.424 25.088C199.163 25.256 199.032 25.5267 199.032 25.9V35.084ZM215.409 40.292C215.409 40.5533 215.521 40.7587 215.745 40.908C215.969 41.0387 216.38 41.1507 216.977 41.244C217.052 41.2627 217.117 41.3 217.173 41.356C217.248 41.3933 217.285 41.4773 217.285 41.608C217.285 41.72 217.276 41.8227 217.257 41.916C217.257 41.9907 217.248 42.0653 217.229 42.14C216.744 42.1027 216.259 42.0653 215.773 42.028C215.288 42.0093 214.681 42 213.953 42C213.356 42 212.796 42.0093 212.273 42.028C211.751 42.0653 211.247 42.1027 210.761 42.14C210.724 42.0467 210.705 41.8693 210.705 41.608C210.705 41.4027 210.808 41.2813 211.013 41.244C211.499 41.1507 211.825 41.0387 211.993 40.908C212.161 40.7773 212.245 40.572 212.245 40.292V34.804C212.245 33.7027 212.105 32.9467 211.825 32.536C211.564 32.1067 211.135 31.892 210.537 31.892C209.697 31.892 208.979 32.1813 208.381 32.76C207.784 33.32 207.485 34.16 207.485 35.28V40.292C207.485 40.572 207.569 40.7773 207.737 40.908C207.905 41.0387 208.232 41.1507 208.717 41.244C208.923 41.2813 209.025 41.4027 209.025 41.608C209.025 41.8693 209.007 42.0467 208.969 42.14C208.484 42.1027 207.98 42.0653 207.457 42.028C206.935 42.0093 206.375 42 205.777 42C205.049 42 204.433 42.0093 203.929 42.028C203.444 42.0653 202.968 42.1027 202.501 42.14C202.483 42.0653 202.464 41.9907 202.445 41.916C202.445 41.8227 202.445 41.72 202.445 41.608C202.445 41.4773 202.473 41.3933 202.529 41.356C202.604 41.3 202.679 41.2627 202.753 41.244C203.351 41.132 203.761 41.0107 203.985 40.88C204.209 40.7493 204.321 40.544 204.321 40.264V32.872C204.321 32.312 204.219 31.8827 204.013 31.584C203.808 31.2853 203.379 31.108 202.725 31.052C202.483 30.996 202.361 30.8467 202.361 30.604C202.361 30.548 202.361 30.4827 202.361 30.408C202.361 30.3147 202.38 30.2307 202.417 30.156C202.529 30.156 202.688 30.156 202.893 30.156C203.117 30.1373 203.351 30.128 203.593 30.128C203.836 30.1093 204.079 30.0907 204.321 30.072C204.564 30.0533 204.788 30.0347 204.993 30.016C205.46 29.96 205.908 29.8853 206.337 29.792C206.767 29.6987 207.056 29.652 207.205 29.652C207.504 29.652 207.653 29.792 207.653 30.072C207.653 30.2773 207.625 30.548 207.569 30.884C207.513 31.22 207.485 31.6867 207.485 32.284C208.083 31.5 208.745 30.8653 209.473 30.38C210.201 29.8947 210.957 29.652 211.741 29.652C212.88 29.652 213.776 29.9693 214.429 30.604C215.083 31.2387 215.409 32.1907 215.409 33.46V40.292ZM221.654 42C220.926 42 220.3 42.0093 219.778 42.028C219.255 42.0653 218.751 42.1027 218.266 42.14C218.228 41.9533 218.21 41.776 218.21 41.608C218.21 41.4773 218.238 41.3933 218.294 41.356C218.368 41.3 218.443 41.2627 218.518 41.244C219.115 41.132 219.526 41.0107 219.75 40.88C219.974 40.7493 220.086 40.544 220.086 40.264V32.872C220.086 32.312 219.992 31.8827 219.806 31.584C219.619 31.2853 219.18 31.108 218.49 31.052C218.247 31.0147 218.126 30.8653 218.126 30.604C218.126 30.548 218.126 30.4827 218.126 30.408C218.126 30.3147 218.144 30.2307 218.182 30.156C218.294 30.156 218.452 30.156 218.658 30.156C218.882 30.1373 219.115 30.128 219.358 30.128C219.6 30.1093 219.843 30.0907 220.086 30.072C220.328 30.0533 220.552 30.0347 220.758 30.016C221.224 29.96 221.672 29.8853 222.102 29.792C222.531 29.6987 222.82 29.652 222.97 29.652C223.268 29.652 223.418 29.792 223.418 30.072C223.418 30.2773 223.39 30.548 223.334 30.884C223.278 31.22 223.25 31.6867 223.25 32.284V40.264C223.25 40.544 223.371 40.7493 223.614 40.88C223.856 41.0107 224.258 41.132 224.818 41.244C225.023 41.2813 225.126 41.4027 225.126 41.608C225.126 41.7013 225.126 41.7947 225.126 41.888C225.126 41.9813 225.107 42.0653 225.07 42.14C224.603 42.1027 224.099 42.0653 223.558 42.028C223.016 42.0093 222.382 42 221.654 42ZM219.61 25.564C219.61 24.9667 219.796 24.4813 220.17 24.108C220.562 23.716 221.047 23.52 221.626 23.52C222.223 23.52 222.708 23.716 223.082 24.108C223.455 24.4813 223.642 24.9667 223.642 25.564C223.642 26.1613 223.455 26.656 223.082 27.048C222.708 27.4213 222.223 27.608 221.626 27.608C221.047 27.608 220.562 27.4213 220.17 27.048C219.796 26.656 219.61 26.1613 219.61 25.564ZM227.975 31.388H226.295V30.66C226.295 30.4733 226.379 30.3613 226.547 30.324C226.733 30.268 226.929 30.2307 227.135 30.212C227.34 30.1747 227.527 30.1 227.695 29.988C227.881 29.876 227.975 29.652 227.975 29.316V28.42C227.975 27.468 228.124 26.6187 228.423 25.872C228.721 25.1253 229.113 24.5 229.599 23.996C230.103 23.4733 230.672 23.0813 231.307 22.82C231.96 22.54 232.632 22.4 233.323 22.4C234.723 22.4 235.787 22.6333 236.515 23.1C237.261 23.548 237.635 24.0893 237.635 24.724C237.635 24.8733 237.523 25.0227 237.299 25.172C237.093 25.3027 236.851 25.424 236.571 25.536C236.309 25.6293 236.048 25.7133 235.787 25.788C235.544 25.844 235.376 25.872 235.283 25.872C235.115 25.872 234.984 25.844 234.891 25.788C234.797 25.732 234.723 25.6107 234.667 25.424C234.517 24.9387 234.303 24.5187 234.023 24.164C233.743 23.7907 233.332 23.604 232.791 23.604C232.193 23.604 231.764 23.828 231.503 24.276C231.26 24.724 231.139 25.508 231.139 26.628V29.988H234.443C234.443 30.5107 234.415 30.8747 234.359 31.08C234.303 31.2853 234.144 31.388 233.883 31.388H231.139V39.704C231.139 39.928 231.157 40.124 231.195 40.292C231.251 40.4413 231.363 40.572 231.531 40.684C231.699 40.796 231.96 40.8987 232.315 40.992C232.669 41.0667 233.155 41.1413 233.771 41.216C234.013 41.2533 234.135 41.384 234.135 41.608C234.135 41.6827 234.125 41.7853 234.107 41.916C234.107 42.028 234.097 42.1213 234.079 42.196C233.612 42.1587 232.996 42.112 232.231 42.056C231.484 42.0187 230.747 42 230.019 42C229.365 42 228.731 42.0093 228.115 42.028C227.517 42.0653 226.976 42.1027 226.491 42.14C226.453 41.9533 226.435 41.776 226.435 41.608C226.435 41.4027 226.537 41.2813 226.743 41.244C227.265 41.132 227.601 41.02 227.751 40.908C227.9 40.7773 227.975 40.572 227.975 40.292V31.388ZM235.11 36.008C235.11 35.0933 235.269 34.2533 235.586 33.488C235.922 32.704 236.38 32.032 236.958 31.472C237.537 30.8933 238.228 30.4453 239.03 30.128C239.833 29.8107 240.71 29.652 241.662 29.652C242.652 29.652 243.548 29.8107 244.35 30.128C245.153 30.4453 245.844 30.8933 246.422 31.472C247.001 32.032 247.44 32.704 247.738 33.488C248.056 34.2533 248.214 35.0933 248.214 36.008C248.214 36.9227 248.046 37.772 247.71 38.556C247.393 39.3213 246.936 39.984 246.338 40.544C245.76 41.104 245.069 41.5427 244.266 41.86C243.464 42.1773 242.586 42.336 241.634 42.336C240.645 42.336 239.749 42.1773 238.946 41.86C238.144 41.5427 237.453 41.104 236.874 40.544C236.314 39.984 235.876 39.3213 235.558 38.556C235.26 37.772 235.11 36.9227 235.11 36.008ZM238.638 35.448C238.638 37.1653 238.918 38.5373 239.478 39.564C240.057 40.5907 240.878 41.104 241.942 41.104C242.932 41.104 243.632 40.712 244.042 39.928C244.472 39.1253 244.686 38.0053 244.686 36.568C244.686 34.8693 244.397 33.4973 243.818 32.452C243.24 31.4067 242.428 30.884 241.382 30.884C240.393 30.884 239.684 31.2947 239.254 32.116C238.844 32.9187 238.638 34.0293 238.638 35.448ZM258.41 29.68C258.951 29.68 259.353 29.82 259.614 30.1C259.894 30.38 260.034 30.7347 260.034 31.164C260.034 31.2947 260.006 31.4067 259.95 31.5C259.913 31.5933 259.81 31.696 259.642 31.808C259.493 31.92 259.278 32.0507 258.998 32.2C258.718 32.3307 258.354 32.4987 257.906 32.704C257.607 32.4053 257.327 32.2093 257.066 32.116C256.823 32.004 256.581 31.948 256.338 31.948C256.114 31.948 255.89 31.9853 255.666 32.06C255.461 32.1347 255.274 32.284 255.106 32.508C254.938 32.7133 254.798 32.9933 254.686 33.348C254.593 33.7027 254.546 34.16 254.546 34.72V39.928C254.546 40.3013 254.695 40.5813 254.994 40.768C255.293 40.936 255.881 41.0947 256.758 41.244C256.963 41.2813 257.066 41.4027 257.066 41.608C257.066 41.8693 257.047 42.0467 257.01 42.14C256.767 42.1213 256.469 42.1027 256.114 42.084C255.759 42.084 255.386 42.0747 254.994 42.056C254.602 42.0373 254.21 42.0187 253.818 42C253.445 42 253.109 42 252.81 42C252.101 42 251.494 42.0093 250.99 42.028C250.486 42.0653 250.01 42.1027 249.562 42.14C249.525 42.0467 249.506 41.8693 249.506 41.608C249.506 41.4027 249.609 41.2813 249.814 41.244C250.411 41.132 250.822 41.0107 251.046 40.88C251.27 40.7493 251.382 40.544 251.382 40.264V32.732C251.382 32.3027 251.298 31.9573 251.13 31.696C250.981 31.4347 250.542 31.2573 249.814 31.164C249.553 31.1267 249.422 30.9867 249.422 30.744C249.422 30.688 249.422 30.6133 249.422 30.52C249.422 30.4267 249.441 30.352 249.478 30.296C249.59 30.296 249.749 30.296 249.954 30.296C250.159 30.2773 250.383 30.268 250.626 30.268C250.869 30.2493 251.111 30.2307 251.354 30.212C251.597 30.1933 251.811 30.1653 251.998 30.128C252.409 30.072 252.829 30.0067 253.258 29.932C253.706 29.8387 254.005 29.792 254.154 29.792C254.415 29.792 254.546 29.932 254.546 30.212V31.724C255.199 31.0147 255.825 30.5013 256.422 30.184C257.019 29.848 257.682 29.68 258.41 29.68ZM273.004 32.396C273.657 31.556 274.339 30.8933 275.048 30.408C275.776 29.904 276.513 29.652 277.26 29.652C279.593 29.652 280.76 30.9213 280.76 33.46V40.292C280.76 40.5533 280.872 40.7493 281.096 40.88C281.32 41.0107 281.731 41.132 282.328 41.244C282.533 41.2813 282.636 41.4027 282.636 41.608C282.636 41.7013 282.636 41.7947 282.636 41.888C282.636 41.9813 282.617 42.0653 282.58 42.14C282.113 42.1027 281.637 42.0653 281.152 42.028C280.667 42.0093 280.06 42 279.332 42C278.716 42 278.147 42.0093 277.624 42.028C277.12 42.0653 276.616 42.1027 276.112 42.14C276.075 41.9533 276.056 41.776 276.056 41.608C276.056 41.4773 276.084 41.3933 276.14 41.356C276.215 41.3 276.289 41.2627 276.364 41.244C276.868 41.1507 277.195 41.0387 277.344 40.908C277.512 40.7773 277.596 40.572 277.596 40.292V34.804C277.596 33.7027 277.484 32.9467 277.26 32.536C277.055 32.1067 276.663 31.892 276.084 31.892C275.244 31.892 274.535 32.1813 273.956 32.76C273.377 33.32 273.088 34.16 273.088 35.28V40.292C273.088 40.572 273.172 40.7773 273.34 40.908C273.508 41.0387 273.835 41.1507 274.32 41.244C274.525 41.2813 274.628 41.4027 274.628 41.608C274.628 41.7013 274.628 41.7947 274.628 41.888C274.628 41.9813 274.609 42.0653 274.572 42.14C274.124 42.1027 273.676 42.0653 273.228 42.028C272.78 42.0093 272.257 42 271.66 42C271.044 42 270.475 42.0093 269.952 42.028C269.448 42.0653 268.944 42.1027 268.44 42.14C268.403 41.9533 268.384 41.776 268.384 41.608C268.384 41.4773 268.412 41.3933 268.468 41.356C268.543 41.3 268.617 41.2627 268.692 41.244C269.196 41.1507 269.523 41.0387 269.672 40.908C269.84 40.7773 269.924 40.572 269.924 40.292V34.804C269.924 33.7027 269.812 32.9467 269.588 32.536C269.383 32.1067 268.991 31.892 268.412 31.892C267.572 31.892 266.863 32.1813 266.284 32.76C265.705 33.32 265.416 34.16 265.416 35.28V40.292C265.416 40.572 265.5 40.7773 265.668 40.908C265.836 41.0387 266.163 41.1507 266.648 41.244C266.853 41.2813 266.956 41.4027 266.956 41.608C266.956 41.7013 266.956 41.7947 266.956 41.888C266.956 41.9813 266.937 42.0653 266.9 42.14C266.415 42.1027 265.911 42.0653 265.388 42.028C264.865 42.0093 264.305 42 263.708 42C262.98 42 262.364 42.0093 261.86 42.028C261.375 42.0653 260.899 42.1027 260.432 42.14C260.395 41.9533 260.376 41.776 260.376 41.608C260.376 41.4773 260.404 41.3933 260.46 41.356C260.535 41.3 260.609 41.2627 260.684 41.244C261.281 41.132 261.692 41.0107 261.916 40.88C262.14 40.7493 262.252 40.544 262.252 40.264V32.872C262.252 32.312 262.149 31.8827 261.944 31.584C261.739 31.2853 261.309 31.108 260.656 31.052C260.413 30.996 260.292 30.8467 260.292 30.604C260.292 30.548 260.292 30.4827 260.292 30.408C260.292 30.3147 260.311 30.2307 260.348 30.156C260.46 30.156 260.619 30.156 260.824 30.156C261.048 30.1373 261.281 30.128 261.524 30.128C261.767 30.1093 262.009 30.0907 262.252 30.072C262.495 30.0533 262.719 30.0347 262.924 30.016C263.391 29.96 263.839 29.8853 264.268 29.792C264.697 29.6987 264.987 29.652 265.136 29.652C265.435 29.652 265.584 29.792 265.584 30.072C265.584 30.2773 265.556 30.548 265.5 30.884C265.444 31.22 265.416 31.6867 265.416 32.284C266.013 31.5 266.667 30.8653 267.376 30.38C268.104 29.8947 268.841 29.652 269.588 29.652C271.548 29.652 272.687 30.5667 273.004 32.396ZM295.758 41.132C296.038 41.132 296.178 41.3653 296.178 41.832C295.935 42 295.627 42.1213 295.254 42.196C294.899 42.2893 294.535 42.336 294.162 42.336C293.322 42.336 292.678 42.1307 292.23 41.72C291.782 41.3093 291.52 40.8333 291.446 40.292C291.072 41.0387 290.568 41.5707 289.934 41.888C289.318 42.1867 288.59 42.336 287.75 42.336C287.358 42.336 286.919 42.2987 286.434 42.224C285.967 42.168 285.528 42.0373 285.118 41.832C284.726 41.6267 284.39 41.3373 284.11 40.964C283.83 40.5907 283.69 40.096 283.69 39.48C283.69 38.7893 283.867 38.2013 284.222 37.716C284.576 37.2307 285.015 36.8293 285.538 36.512C286.079 36.176 286.667 35.9147 287.302 35.728C287.936 35.5227 288.534 35.3547 289.094 35.224C289.336 35.168 289.588 35.112 289.85 35.056C290.111 34.9813 290.316 34.9253 290.466 34.888C290.671 34.832 290.802 34.7573 290.858 34.664C290.914 34.552 290.942 34.2813 290.942 33.852C290.942 32.9 290.802 32.172 290.522 31.668C290.242 31.1453 289.766 30.884 289.094 30.884C288.552 30.884 288.16 31.052 287.918 31.388C287.694 31.724 287.479 32.256 287.274 32.984C287.218 33.1893 287.05 33.348 286.77 33.46C286.508 33.5533 286.172 33.656 285.762 33.768C285.538 33.824 285.304 33.8707 285.062 33.908C284.838 33.9453 284.632 33.964 284.446 33.964C284.334 33.964 284.259 33.9267 284.222 33.852C284.184 33.7587 284.166 33.5907 284.166 33.348C284.166 32.8813 284.334 32.424 284.67 31.976C285.024 31.528 285.463 31.136 285.986 30.8C286.508 30.4453 287.078 30.1653 287.694 29.96C288.328 29.7547 288.935 29.652 289.514 29.652C290.204 29.652 290.83 29.7173 291.39 29.848C291.95 29.96 292.426 30.1747 292.818 30.492C293.228 30.7907 293.546 31.2013 293.77 31.724C293.994 32.228 294.106 32.8813 294.106 33.684V38.612C294.106 39.2653 294.115 39.7413 294.134 40.04C294.171 40.3387 294.227 40.5627 294.302 40.712C294.47 41.048 294.731 41.216 295.086 41.216C295.235 41.216 295.356 41.2067 295.45 41.188C295.562 41.1507 295.664 41.132 295.758 41.132ZM290.942 35.896L290.326 36.008C289.896 36.0827 289.495 36.1947 289.122 36.344C288.748 36.4747 288.422 36.6613 288.142 36.904C287.88 37.128 287.666 37.4173 287.498 37.772C287.348 38.108 287.274 38.5187 287.274 39.004C287.274 39.732 287.386 40.2453 287.61 40.544C287.852 40.824 288.198 40.964 288.646 40.964C289.355 40.964 289.915 40.7027 290.326 40.18C290.736 39.6573 290.942 38.9293 290.942 37.996V35.896ZM309.401 40.18C309.588 40.068 309.746 40.012 309.877 40.012C310.064 40.012 310.26 40.208 310.465 40.6C309.681 41.3093 308.99 41.776 308.393 42C307.814 42.224 307.198 42.336 306.545 42.336C306.172 42.336 305.808 42.2893 305.453 42.196C305.117 42.1027 304.809 41.9347 304.529 41.692C304.249 41.4493 304.025 41.1227 303.857 40.712C303.689 40.2827 303.605 39.7413 303.605 39.088V31.388H301.925V30.688C301.925 30.6133 301.944 30.52 301.981 30.408C302.018 30.296 302.13 30.24 302.317 30.24C302.821 30.24 303.288 30.1 303.717 29.82C304.146 29.5213 304.492 29.0827 304.753 28.504C304.958 28.0747 305.182 27.7293 305.425 27.468C305.686 27.2067 305.938 27.076 306.181 27.076H306.769V29.988H310.045C310.045 30.5853 309.998 30.968 309.905 31.136C309.83 31.304 309.681 31.388 309.457 31.388H306.769V38.304C306.769 38.864 306.788 39.312 306.825 39.648C306.862 39.9653 306.918 40.208 306.993 40.376C307.086 40.544 307.198 40.656 307.329 40.712C307.478 40.7493 307.646 40.768 307.833 40.768C308.038 40.768 308.281 40.7213 308.561 40.628C308.841 40.516 309.121 40.3667 309.401 40.18ZM321.577 39.424C321.745 39.2933 321.895 39.228 322.025 39.228C322.119 39.228 322.221 39.2747 322.333 39.368C322.464 39.4427 322.595 39.6013 322.725 39.844C321.997 40.7027 321.157 41.3373 320.205 41.748C319.272 42.14 318.161 42.336 316.873 42.336C316.145 42.336 315.427 42.224 314.717 42C314.027 41.7573 313.401 41.3933 312.841 40.908C312.281 40.404 311.824 39.7787 311.469 39.032C311.133 38.2853 310.965 37.3893 310.965 36.344C310.965 35.3173 311.161 34.3933 311.553 33.572C311.964 32.732 312.477 32.0227 313.093 31.444C313.709 30.8653 314.381 30.4267 315.109 30.128C315.837 29.8107 316.537 29.652 317.209 29.652C319.02 29.652 320.383 30.1747 321.297 31.22C322.231 32.2653 322.697 33.6933 322.697 35.504C322.697 35.6347 322.632 35.7 322.501 35.7L314.465 36.036C314.465 37.492 314.792 38.612 315.445 39.396C316.099 40.1613 317.079 40.544 318.385 40.544C318.964 40.544 319.533 40.4507 320.093 40.264C320.653 40.0773 321.148 39.7973 321.577 39.424ZM316.789 30.884C316.061 30.884 315.473 31.2013 315.025 31.836C314.596 32.452 314.381 33.432 314.381 34.776L318.749 34.58C319.029 34.5613 319.169 34.44 319.169 34.216C319.169 33.8613 319.123 33.488 319.029 33.096C318.936 32.704 318.787 32.3493 318.581 32.032C318.395 31.696 318.152 31.4253 317.853 31.22C317.555 30.996 317.2 30.884 316.789 30.884ZM316.341 25.396C316.341 25.9187 316.173 26.3573 315.837 26.712C315.52 27.048 315.119 27.216 314.633 27.216C314.111 27.216 313.672 27.048 313.317 26.712C312.963 26.3573 312.785 25.9187 312.785 25.396C312.785 24.9107 312.963 24.4813 313.317 24.108C313.672 23.7347 314.111 23.548 314.633 23.548C315.119 23.548 315.52 23.7347 315.837 24.108C316.173 24.4813 316.341 24.9107 316.341 25.396ZM321.857 25.396C321.857 25.9187 321.689 26.3573 321.353 26.712C321.036 27.048 320.635 27.216 320.149 27.216C319.608 27.216 319.16 27.048 318.805 26.712C318.469 26.3573 318.301 25.9187 318.301 25.396C318.301 24.9107 318.469 24.4813 318.805 24.108C319.16 23.7347 319.608 23.548 320.149 23.548C320.635 23.548 321.036 23.7347 321.353 24.108C321.689 24.4813 321.857 24.9107 321.857 25.396ZM183.576 63.48C183.576 63.032 183.501 62.7053 183.352 62.5C183.221 62.276 182.839 62.1267 182.204 62.052C181.943 61.996 181.812 61.8653 181.812 61.66C181.812 61.5853 181.812 61.5013 181.812 61.408C181.812 61.3147 181.831 61.2307 181.868 61.156C181.98 61.156 182.139 61.156 182.344 61.156C182.549 61.1373 182.764 61.128 182.988 61.128C183.212 61.1093 183.436 61.0907 183.66 61.072C183.903 61.0533 184.117 61.0253 184.304 60.988C184.733 60.932 185.144 60.8667 185.536 60.792C185.928 60.6987 186.199 60.652 186.348 60.652C186.516 60.652 186.619 60.6893 186.656 60.764C186.712 60.8387 186.74 60.9413 186.74 61.072V62.976C187.281 62.2667 187.897 61.7067 188.588 61.296C189.279 60.8667 190.044 60.652 190.884 60.652C191.612 60.652 192.284 60.792 192.9 61.072C193.535 61.3333 194.085 61.7253 194.552 62.248C195.019 62.752 195.383 63.3773 195.644 64.124C195.905 64.8707 196.036 65.72 196.036 66.672C196.036 67.7173 195.831 68.6507 195.42 69.472C195.028 70.2933 194.524 70.9933 193.908 71.572C193.292 72.1507 192.62 72.5893 191.892 72.888C191.164 73.1867 190.464 73.336 189.792 73.336C189.251 73.336 188.747 73.2893 188.28 73.196C187.832 73.1213 187.319 72.9813 186.74 72.776V77.424C186.74 77.648 186.759 77.8347 186.796 77.984C186.852 78.152 186.964 78.292 187.132 78.404C187.3 78.516 187.561 78.6093 187.916 78.684C188.271 78.7773 188.756 78.8613 189.372 78.936C189.615 78.9733 189.736 79.1133 189.736 79.356C189.736 79.5987 189.717 79.7667 189.68 79.86C189.195 79.8227 188.579 79.7853 187.832 79.748C187.085 79.7293 186.357 79.72 185.648 79.72C185.032 79.72 184.407 79.7293 183.772 79.748C183.156 79.7853 182.596 79.8227 182.092 79.86C182.055 79.6733 182.036 79.496 182.036 79.328C182.036 79.1973 182.064 79.104 182.12 79.048C182.195 79.0107 182.269 78.9827 182.344 78.964C182.867 78.8333 183.203 78.712 183.352 78.6C183.501 78.488 183.576 78.292 183.576 78.012V63.48ZM186.74 70.76C187.599 71.656 188.569 72.104 189.652 72.104C190.604 72.104 191.313 71.684 191.78 70.844C192.265 69.9853 192.508 68.828 192.508 67.372C192.508 66.6627 192.452 66 192.34 65.384C192.228 64.7493 192.051 64.208 191.808 63.76C191.565 63.2933 191.248 62.9293 190.856 62.668C190.483 62.388 190.035 62.248 189.512 62.248C189.157 62.248 188.812 62.36 188.476 62.584C188.159 62.7893 187.869 63.0693 187.608 63.424C187.347 63.76 187.132 64.1427 186.964 64.572C186.815 65.0013 186.74 65.4307 186.74 65.86V70.76ZM208 70.424C208.168 70.2933 208.317 70.228 208.448 70.228C208.541 70.228 208.644 70.2747 208.756 70.368C208.887 70.4427 209.017 70.6013 209.148 70.844C208.42 71.7027 207.58 72.3373 206.628 72.748C205.695 73.14 204.584 73.336 203.296 73.336C202.568 73.336 201.849 73.224 201.14 73C200.449 72.7573 199.824 72.3933 199.264 71.908C198.704 71.404 198.247 70.7787 197.892 70.032C197.556 69.2853 197.388 68.3893 197.388 67.344C197.388 66.3173 197.584 65.3933 197.976 64.572C198.387 63.732 198.9 63.0227 199.516 62.444C200.132 61.8653 200.804 61.4267 201.532 61.128C202.26 60.8107 202.96 60.652 203.632 60.652C205.443 60.652 206.805 61.1747 207.72 62.22C208.653 63.2653 209.12 64.6933 209.12 66.504C209.12 66.6347 209.055 66.7 208.924 66.7L200.888 67.036C200.888 68.492 201.215 69.612 201.868 70.396C202.521 71.1613 203.501 71.544 204.808 71.544C205.387 71.544 205.956 71.4507 206.516 71.264C207.076 71.0773 207.571 70.7973 208 70.424ZM203.212 61.884C202.484 61.884 201.896 62.2013 201.448 62.836C201.019 63.452 200.804 64.432 200.804 65.776L205.172 65.58C205.452 65.5613 205.592 65.44 205.592 65.216C205.592 64.8613 205.545 64.488 205.452 64.096C205.359 63.704 205.209 63.3493 205.004 63.032C204.817 62.696 204.575 62.4253 204.276 62.22C203.977 61.996 203.623 61.884 203.212 61.884ZM219.211 60.68C219.753 60.68 220.154 60.82 220.415 61.1C220.695 61.38 220.835 61.7347 220.835 62.164C220.835 62.2947 220.807 62.4067 220.751 62.5C220.714 62.5933 220.611 62.696 220.443 62.808C220.294 62.92 220.079 63.0507 219.799 63.2C219.519 63.3307 219.155 63.4987 218.707 63.704C218.409 63.4053 218.129 63.2093 217.867 63.116C217.625 63.004 217.382 62.948 217.139 62.948C216.915 62.948 216.691 62.9853 216.467 63.06C216.262 63.1347 216.075 63.284 215.907 63.508C215.739 63.7133 215.599 63.9933 215.487 64.348C215.394 64.7027 215.347 65.16 215.347 65.72V70.928C215.347 71.3013 215.497 71.5813 215.795 71.768C216.094 71.936 216.682 72.0947 217.559 72.244C217.765 72.2813 217.867 72.4027 217.867 72.608C217.867 72.8693 217.849 73.0467 217.811 73.14C217.569 73.1213 217.27 73.1027 216.915 73.084C216.561 73.084 216.187 73.0747 215.795 73.056C215.403 73.0373 215.011 73.0187 214.619 73C214.246 73 213.91 73 213.611 73C212.902 73 212.295 73.0093 211.791 73.028C211.287 73.0653 210.811 73.1027 210.363 73.14C210.326 73.0467 210.307 72.8693 210.307 72.608C210.307 72.4027 210.41 72.2813 210.615 72.244C211.213 72.132 211.623 72.0107 211.847 71.88C212.071 71.7493 212.183 71.544 212.183 71.264V63.732C212.183 63.3027 212.099 62.9573 211.931 62.696C211.782 62.4347 211.343 62.2573 210.615 62.164C210.354 62.1267 210.223 61.9867 210.223 61.744C210.223 61.688 210.223 61.6133 210.223 61.52C210.223 61.4267 210.242 61.352 210.279 61.296C210.391 61.296 210.55 61.296 210.755 61.296C210.961 61.2773 211.185 61.268 211.427 61.268C211.67 61.2493 211.913 61.2307 212.155 61.212C212.398 61.1933 212.613 61.1653 212.799 61.128C213.21 61.072 213.63 61.0067 214.059 60.932C214.507 60.8387 214.806 60.792 214.955 60.792C215.217 60.792 215.347 60.932 215.347 61.212V62.724C216.001 62.0147 216.626 61.5013 217.223 61.184C217.821 60.848 218.483 60.68 219.211 60.68ZM228.856 64.404C228.594 64.3853 228.445 64.2827 228.408 64.096C228.277 63.3307 227.978 62.7707 227.511 62.416C227.045 62.0613 226.457 61.884 225.748 61.884C225.113 61.884 224.627 62.0427 224.292 62.36C223.955 62.6773 223.787 63.0507 223.787 63.48C223.787 63.6853 223.815 63.872 223.872 64.04C223.927 64.208 224.039 64.3667 224.207 64.516C224.394 64.6653 224.646 64.8147 224.963 64.964C225.281 65.0947 225.71 65.244 226.251 65.412C226.886 65.5987 227.446 65.804 227.932 66.028C228.417 66.2333 228.828 66.4853 229.164 66.784C229.5 67.0827 229.752 67.4467 229.919 67.876C230.106 68.2867 230.2 68.7813 230.2 69.36C230.2 69.9013 230.106 70.4147 229.919 70.9C229.752 71.3853 229.472 71.8147 229.079 72.188C228.687 72.5427 228.193 72.8227 227.596 73.028C226.998 73.2333 226.279 73.336 225.439 73.336C224.842 73.336 224.151 73.2707 223.367 73.14C222.602 73.0093 221.902 72.776 221.267 72.44C221.23 71.9547 221.193 71.4413 221.155 70.9C221.137 70.34 221.127 69.7893 221.127 69.248H221.491C221.697 69.248 221.874 69.2853 222.023 69.36C222.173 69.416 222.257 69.5187 222.275 69.668C222.35 70.452 222.658 71.0587 223.199 71.488C223.741 71.8987 224.487 72.104 225.439 72.104C226.093 72.104 226.625 71.9547 227.036 71.656C227.446 71.3573 227.651 70.9653 227.651 70.48C227.651 70.032 227.465 69.6493 227.092 69.332C226.737 69.0147 226.055 68.7067 225.047 68.408C223.685 68.016 222.723 67.5027 222.163 66.868C221.622 66.2147 221.351 65.44 221.351 64.544C221.351 63.368 221.743 62.4253 222.527 61.716C223.33 61.0067 224.366 60.652 225.635 60.652C226.363 60.652 227.064 60.7453 227.736 60.932C228.426 61.1 228.977 61.2867 229.387 61.492C229.406 61.6413 229.425 61.8467 229.444 62.108C229.462 62.3507 229.481 62.6213 229.5 62.92C229.518 63.2 229.527 63.48 229.527 63.76C229.546 64.0213 229.556 64.2453 229.556 64.432L228.856 64.404ZM231.419 67.008C231.419 66.0933 231.578 65.2533 231.895 64.488C232.231 63.704 232.688 63.032 233.267 62.472C233.846 61.8933 234.536 61.4453 235.339 61.128C236.142 60.8107 237.019 60.652 237.971 60.652C238.96 60.652 239.856 60.8107 240.659 61.128C241.462 61.4453 242.152 61.8933 242.731 62.472C243.31 63.032 243.748 63.704 244.047 64.488C244.364 65.2533 244.523 66.0933 244.523 67.008C244.523 67.9227 244.355 68.772 244.019 69.556C243.702 70.3213 243.244 70.984 242.647 71.544C242.068 72.104 241.378 72.5427 240.575 72.86C239.772 73.1773 238.895 73.336 237.943 73.336C236.954 73.336 236.058 73.1773 235.255 72.86C234.452 72.5427 233.762 72.104 233.183 71.544C232.623 70.984 232.184 70.3213 231.867 69.556C231.568 68.772 231.419 67.9227 231.419 67.008ZM234.947 66.448C234.947 68.1653 235.227 69.5373 235.787 70.564C236.366 71.5907 237.187 72.104 238.251 72.104C239.24 72.104 239.94 71.712 240.351 70.928C240.78 70.1253 240.995 69.0053 240.995 67.568C240.995 65.8693 240.706 64.4973 240.127 63.452C239.548 62.4067 238.736 61.884 237.691 61.884C236.702 61.884 235.992 62.2947 235.563 63.116C235.152 63.9187 234.947 65.0293 234.947 66.448ZM258.779 71.292C258.779 71.5533 258.891 71.7587 259.115 71.908C259.339 72.0387 259.749 72.1507 260.347 72.244C260.421 72.2627 260.487 72.3 260.543 72.356C260.617 72.3933 260.655 72.4773 260.655 72.608C260.655 72.72 260.645 72.8227 260.627 72.916C260.627 72.9907 260.617 73.0653 260.599 73.14C260.113 73.1027 259.628 73.0653 259.143 73.028C258.657 73.0093 258.051 73 257.323 73C256.725 73 256.165 73.0093 255.643 73.028C255.12 73.0653 254.616 73.1027 254.131 73.14C254.093 73.0467 254.075 72.8693 254.075 72.608C254.075 72.4027 254.177 72.2813 254.383 72.244C254.868 72.1507 255.195 72.0387 255.363 71.908C255.531 71.7773 255.615 71.572 255.615 71.292V65.804C255.615 64.7027 255.475 63.9467 255.195 63.536C254.933 63.1067 254.504 62.892 253.907 62.892C253.067 62.892 252.348 63.1813 251.751 63.76C251.153 64.32 250.855 65.16 250.855 66.28V71.292C250.855 71.572 250.939 71.7773 251.107 71.908C251.275 72.0387 251.601 72.1507 252.087 72.244C252.292 72.2813 252.395 72.4027 252.395 72.608C252.395 72.8693 252.376 73.0467 252.339 73.14C251.853 73.1027 251.349 73.0653 250.827 73.028C250.304 73.0093 249.744 73 249.147 73C248.419 73 247.803 73.0093 247.299 73.028C246.813 73.0653 246.337 73.1027 245.871 73.14C245.852 73.0653 245.833 72.9907 245.815 72.916C245.815 72.8227 245.815 72.72 245.815 72.608C245.815 72.4773 245.843 72.3933 245.899 72.356C245.973 72.3 246.048 72.2627 246.123 72.244C246.72 72.132 247.131 72.0107 247.355 71.88C247.579 71.7493 247.691 71.544 247.691 71.264V63.872C247.691 63.312 247.588 62.8827 247.383 62.584C247.177 62.2853 246.748 62.108 246.095 62.052C245.852 61.996 245.731 61.8467 245.731 61.604C245.731 61.548 245.731 61.4827 245.731 61.408C245.731 61.3147 245.749 61.2307 245.787 61.156C245.899 61.156 246.057 61.156 246.263 61.156C246.487 61.1373 246.72 61.128 246.963 61.128C247.205 61.1093 247.448 61.0907 247.691 61.072C247.933 61.0533 248.157 61.0347 248.363 61.016C248.829 60.96 249.277 60.8853 249.707 60.792C250.136 60.6987 250.425 60.652 250.575 60.652C250.873 60.652 251.023 60.792 251.023 61.072C251.023 61.2773 250.995 61.548 250.939 61.884C250.883 62.22 250.855 62.6867 250.855 63.284C251.452 62.5 252.115 61.8653 252.843 61.38C253.571 60.8947 254.327 60.652 255.111 60.652C256.249 60.652 257.145 60.9693 257.799 61.604C258.452 62.2387 258.779 63.1907 258.779 64.46V71.292ZM273.759 72.132C274.039 72.132 274.179 72.3653 274.179 72.832C273.936 73 273.628 73.1213 273.255 73.196C272.9 73.2893 272.536 73.336 272.163 73.336C271.323 73.336 270.679 73.1307 270.231 72.72C269.783 72.3093 269.522 71.8333 269.447 71.292C269.074 72.0387 268.57 72.5707 267.935 72.888C267.319 73.1867 266.591 73.336 265.751 73.336C265.359 73.336 264.92 73.2987 264.435 73.224C263.968 73.168 263.53 73.0373 263.119 72.832C262.727 72.6267 262.391 72.3373 262.111 71.964C261.831 71.5907 261.691 71.096 261.691 70.48C261.691 69.7893 261.868 69.2013 262.223 68.716C262.578 68.2307 263.016 67.8293 263.539 67.512C264.08 67.176 264.668 66.9147 265.303 66.728C265.938 66.5227 266.535 66.3547 267.095 66.224C267.338 66.168 267.59 66.112 267.851 66.056C268.112 65.9813 268.318 65.9253 268.467 65.888C268.672 65.832 268.803 65.7573 268.859 65.664C268.915 65.552 268.943 65.2813 268.943 64.852C268.943 63.9 268.803 63.172 268.523 62.668C268.243 62.1453 267.767 61.884 267.095 61.884C266.554 61.884 266.162 62.052 265.919 62.388C265.695 62.724 265.48 63.256 265.275 63.984C265.219 64.1893 265.051 64.348 264.771 64.46C264.51 64.5533 264.174 64.656 263.763 64.768C263.539 64.824 263.306 64.8707 263.063 64.908C262.839 64.9453 262.634 64.964 262.447 64.964C262.335 64.964 262.26 64.9267 262.223 64.852C262.186 64.7587 262.167 64.5907 262.167 64.348C262.167 63.8813 262.335 63.424 262.671 62.976C263.026 62.528 263.464 62.136 263.987 61.8C264.51 61.4453 265.079 61.1653 265.695 60.96C266.33 60.7547 266.936 60.652 267.515 60.652C268.206 60.652 268.831 60.7173 269.391 60.848C269.951 60.96 270.427 61.1747 270.819 61.492C271.23 61.7907 271.547 62.2013 271.771 62.724C271.995 63.228 272.107 63.8813 272.107 64.684V69.612C272.107 70.2653 272.116 70.7413 272.135 71.04C272.172 71.3387 272.228 71.5627 272.303 71.712C272.471 72.048 272.732 72.216 273.087 72.216C273.236 72.216 273.358 72.2067 273.451 72.188C273.563 72.1507 273.666 72.132 273.759 72.132ZM268.943 66.896L268.327 67.008C267.898 67.0827 267.496 67.1947 267.123 67.344C266.75 67.4747 266.423 67.6613 266.143 67.904C265.882 68.128 265.667 68.4173 265.499 68.772C265.35 69.108 265.275 69.5187 265.275 70.004C265.275 70.732 265.387 71.2453 265.611 71.544C265.854 71.824 266.199 71.964 266.647 71.964C267.356 71.964 267.916 71.7027 268.327 71.18C268.738 70.6573 268.943 69.9293 268.943 68.996V66.896ZM281.524 73.14C281.038 73.1027 280.478 73.0653 279.844 73.028C279.228 73.0093 278.649 73 278.108 73C277.51 73 276.913 73.0093 276.316 73.028C275.737 73.0653 275.205 73.1027 274.72 73.14C274.701 73.0653 274.682 72.9907 274.664 72.916C274.664 72.8227 274.664 72.72 274.664 72.608C274.664 72.4773 274.692 72.3933 274.748 72.356C274.822 72.3 274.897 72.2627 274.972 72.244C275.569 72.132 275.98 72.0107 276.204 71.88C276.428 71.7493 276.54 71.544 276.54 71.264V56.592C276.54 56.032 276.437 55.612 276.232 55.332C276.026 55.0333 275.597 54.856 274.944 54.8C274.701 54.744 274.58 54.5947 274.58 54.352C274.58 54.296 274.58 54.2213 274.58 54.128C274.58 54.0347 274.598 53.96 274.636 53.904C274.748 53.904 274.906 53.904 275.112 53.904C275.336 53.8853 275.569 53.876 275.812 53.876C276.054 53.8573 276.297 53.8387 276.54 53.82C276.782 53.8013 277.006 53.7827 277.212 53.764C277.678 53.708 278.126 53.6333 278.556 53.54C278.985 53.4467 279.274 53.4 279.424 53.4C279.722 53.4 279.872 53.54 279.872 53.82C279.872 54.0253 279.844 54.296 279.788 54.632C279.732 54.9493 279.704 55.4067 279.704 56.004V71.264C279.704 71.544 279.816 71.7493 280.04 71.88C280.264 72.0107 280.674 72.132 281.272 72.244C281.477 72.2813 281.58 72.4027 281.58 72.608C281.58 72.8693 281.561 73.0467 281.524 73.14ZM285.969 73C285.241 73 284.616 73.0093 284.093 73.028C283.571 73.0653 283.067 73.1027 282.581 73.14C282.544 72.9533 282.525 72.776 282.525 72.608C282.525 72.4773 282.553 72.3933 282.609 72.356C282.684 72.3 282.759 72.2627 282.833 72.244C283.431 72.132 283.841 72.0107 284.065 71.88C284.289 71.7493 284.401 71.544 284.401 71.264V63.872C284.401 63.312 284.308 62.8827 284.121 62.584C283.935 62.2853 283.496 62.108 282.805 62.052C282.563 62.0147 282.441 61.8653 282.441 61.604C282.441 61.548 282.441 61.4827 282.441 61.408C282.441 61.3147 282.46 61.2307 282.497 61.156C282.609 61.156 282.768 61.156 282.973 61.156C283.197 61.1373 283.431 61.128 283.673 61.128C283.916 61.1093 284.159 61.0907 284.401 61.072C284.644 61.0533 284.868 61.0347 285.073 61.016C285.54 60.96 285.988 60.8853 286.417 60.792C286.847 60.6987 287.136 60.652 287.285 60.652C287.584 60.652 287.733 60.792 287.733 61.072C287.733 61.2773 287.705 61.548 287.649 61.884C287.593 62.22 287.565 62.6867 287.565 63.284V71.264C287.565 71.544 287.687 71.7493 287.929 71.88C288.172 72.0107 288.573 72.132 289.133 72.244C289.339 72.2813 289.441 72.4027 289.441 72.608C289.441 72.7013 289.441 72.7947 289.441 72.888C289.441 72.9813 289.423 73.0653 289.385 73.14C288.919 73.1027 288.415 73.0653 287.873 73.028C287.332 73.0093 286.697 73 285.969 73ZM283.925 56.564C283.925 55.9667 284.112 55.4813 284.485 55.108C284.877 54.716 285.363 54.52 285.941 54.52C286.539 54.52 287.024 54.716 287.397 55.108C287.771 55.4813 287.957 55.9667 287.957 56.564C287.957 57.1613 287.771 57.656 287.397 58.048C287.024 58.4213 286.539 58.608 285.941 58.608C285.363 58.608 284.877 58.4213 284.485 58.048C284.112 57.656 283.925 57.1613 283.925 56.564ZM293.411 62.22C292.813 62.22 292.375 62.36 292.095 62.64C291.833 62.92 291.637 63.4707 291.507 64.292C291.488 64.4787 291.348 64.572 291.087 64.572C291.049 64.572 290.975 64.5627 290.863 64.544C290.769 64.5253 290.695 64.5067 290.639 64.488C290.676 64.0027 290.695 63.508 290.695 63.004C290.713 62.4813 290.741 62.052 290.779 61.716C290.797 61.4733 290.835 61.296 290.891 61.184C290.947 61.0533 291.077 60.988 291.283 60.988H300.719C300.737 61.0627 300.747 61.128 300.747 61.184C300.747 61.2213 300.737 61.2773 300.719 61.352C300.7 61.408 300.653 61.4827 300.579 61.576L294.671 71.768H298.283C298.768 71.768 299.151 71.5813 299.431 71.208C299.711 70.816 299.953 70.256 300.159 69.528C300.196 69.416 300.252 69.3413 300.327 69.304C300.42 69.2667 300.504 69.248 300.579 69.248C300.635 69.248 300.709 69.2573 300.803 69.276C300.896 69.2947 300.989 69.3133 301.083 69.332L300.775 72.776C300.737 72.944 300.691 73.0373 300.635 73.056C300.579 73.0933 300.485 73.112 300.355 73.112C300.243 73.112 300.084 73.112 299.879 73.112C299.692 73.112 299.505 73.0933 299.319 73.056C299.001 73.0373 298.675 73.0187 298.339 73C298.021 73 297.723 73 297.443 73H290.527C290.508 72.9627 290.499 72.916 290.499 72.86C290.499 72.804 290.508 72.7573 290.527 72.72C290.545 72.664 290.601 72.5613 290.695 72.412L296.771 62.22H293.411ZM314.367 72.132C314.647 72.132 314.787 72.3653 314.787 72.832C314.544 73 314.236 73.1213 313.863 73.196C313.508 73.2893 313.144 73.336 312.771 73.336C311.931 73.336 311.287 73.1307 310.839 72.72C310.391 72.3093 310.129 71.8333 310.055 71.292C309.681 72.0387 309.177 72.5707 308.543 72.888C307.927 73.1867 307.199 73.336 306.359 73.336C305.967 73.336 305.528 73.2987 305.043 73.224C304.576 73.168 304.137 73.0373 303.727 72.832C303.335 72.6267 302.999 72.3373 302.719 71.964C302.439 71.5907 302.299 71.096 302.299 70.48C302.299 69.7893 302.476 69.2013 302.831 68.716C303.185 68.2307 303.624 67.8293 304.147 67.512C304.688 67.176 305.276 66.9147 305.911 66.728C306.545 66.5227 307.143 66.3547 307.703 66.224C307.945 66.168 308.197 66.112 308.459 66.056C308.72 65.9813 308.925 65.9253 309.075 65.888C309.28 65.832 309.411 65.7573 309.467 65.664C309.523 65.552 309.551 65.2813 309.551 64.852C309.551 63.9 309.411 63.172 309.131 62.668C308.851 62.1453 308.375 61.884 307.703 61.884C307.161 61.884 306.769 62.052 306.527 62.388C306.303 62.724 306.088 63.256 305.883 63.984C305.827 64.1893 305.659 64.348 305.379 64.46C305.117 64.5533 304.781 64.656 304.371 64.768C304.147 64.824 303.913 64.8707 303.671 64.908C303.447 64.9453 303.241 64.964 303.055 64.964C302.943 64.964 302.868 64.9267 302.831 64.852C302.793 64.7587 302.775 64.5907 302.775 64.348C302.775 63.8813 302.943 63.424 303.279 62.976C303.633 62.528 304.072 62.136 304.595 61.8C305.117 61.4453 305.687 61.1653 306.303 60.96C306.937 60.7547 307.544 60.652 308.123 60.652C308.813 60.652 309.439 60.7173 309.999 60.848C310.559 60.96 311.035 61.1747 311.427 61.492C311.837 61.7907 312.155 62.2013 312.379 62.724C312.603 63.228 312.715 63.8813 312.715 64.684V69.612C312.715 70.2653 312.724 70.7413 312.743 71.04C312.78 71.3387 312.836 71.5627 312.911 71.712C313.079 72.048 313.34 72.216 313.695 72.216C313.844 72.216 313.965 72.2067 314.059 72.188C314.171 72.1507 314.273 72.132 314.367 72.132ZM309.551 66.896L308.935 67.008C308.505 67.0827 308.104 67.1947 307.731 67.344C307.357 67.4747 307.031 67.6613 306.751 67.904C306.489 68.128 306.275 68.4173 306.107 68.772C305.957 69.108 305.883 69.5187 305.883 70.004C305.883 70.732 305.995 71.2453 306.219 71.544C306.461 71.824 306.807 71.964 307.255 71.964C307.964 71.964 308.524 71.7027 308.935 71.18C309.345 70.6573 309.551 69.9293 309.551 68.996V66.896ZM324.175 60.68C324.716 60.68 325.118 60.82 325.379 61.1C325.659 61.38 325.799 61.7347 325.799 62.164C325.799 62.2947 325.771 62.4067 325.715 62.5C325.678 62.5933 325.575 62.696 325.407 62.808C325.258 62.92 325.043 63.0507 324.763 63.2C324.483 63.3307 324.119 63.4987 323.671 63.704C323.372 63.4053 323.092 63.2093 322.831 63.116C322.588 63.004 322.346 62.948 322.103 62.948C321.879 62.948 321.655 62.9853 321.431 63.06C321.226 63.1347 321.039 63.284 320.871 63.508C320.703 63.7133 320.563 63.9933 320.451 64.348C320.358 64.7027 320.311 65.16 320.311 65.72V70.928C320.311 71.3013 320.46 71.5813 320.759 71.768C321.058 71.936 321.646 72.0947 322.523 72.244C322.728 72.2813 322.831 72.4027 322.831 72.608C322.831 72.8693 322.812 73.0467 322.775 73.14C322.532 73.1213 322.234 73.1027 321.879 73.084C321.524 73.084 321.151 73.0747 320.759 73.056C320.367 73.0373 319.975 73.0187 319.583 73C319.21 73 318.874 73 318.575 73C317.866 73 317.259 73.0093 316.755 73.028C316.251 73.0653 315.775 73.1027 315.327 73.14C315.29 73.0467 315.271 72.8693 315.271 72.608C315.271 72.4027 315.374 72.2813 315.579 72.244C316.176 72.132 316.587 72.0107 316.811 71.88C317.035 71.7493 317.147 71.544 317.147 71.264V63.732C317.147 63.3027 317.063 62.9573 316.895 62.696C316.746 62.4347 316.307 62.2573 315.579 62.164C315.318 62.1267 315.187 61.9867 315.187 61.744C315.187 61.688 315.187 61.6133 315.187 61.52C315.187 61.4267 315.206 61.352 315.243 61.296C315.355 61.296 315.514 61.296 315.719 61.296C315.924 61.2773 316.148 61.268 316.391 61.268C316.634 61.2493 316.876 61.2307 317.119 61.212C317.362 61.1933 317.576 61.1653 317.763 61.128C318.174 61.072 318.594 61.0067 319.023 60.932C319.471 60.8387 319.77 60.792 319.919 60.792C320.18 60.792 320.311 60.932 320.311 61.212V62.724C320.964 62.0147 321.59 61.5013 322.187 61.184C322.784 60.848 323.447 60.68 324.175 60.68ZM337.774 72.132C338.054 72.132 338.194 72.3653 338.194 72.832C337.951 73 337.643 73.1213 337.27 73.196C336.915 73.2893 336.551 73.336 336.178 73.336C335.338 73.336 334.694 73.1307 334.246 72.72C333.798 72.3093 333.537 71.8333 333.462 71.292C333.089 72.0387 332.585 72.5707 331.95 72.888C331.334 73.1867 330.606 73.336 329.766 73.336C329.374 73.336 328.935 73.2987 328.45 73.224C327.983 73.168 327.545 73.0373 327.134 72.832C326.742 72.6267 326.406 72.3373 326.126 71.964C325.846 71.5907 325.706 71.096 325.706 70.48C325.706 69.7893 325.883 69.2013 326.238 68.716C326.593 68.2307 327.031 67.8293 327.554 67.512C328.095 67.176 328.683 66.9147 329.318 66.728C329.953 66.5227 330.55 66.3547 331.11 66.224C331.353 66.168 331.605 66.112 331.866 66.056C332.127 65.9813 332.333 65.9253 332.482 65.888C332.687 65.832 332.818 65.7573 332.874 65.664C332.93 65.552 332.958 65.2813 332.958 64.852C332.958 63.9 332.818 63.172 332.538 62.668C332.258 62.1453 331.782 61.884 331.11 61.884C330.569 61.884 330.177 62.052 329.934 62.388C329.71 62.724 329.495 63.256 329.29 63.984C329.234 64.1893 329.066 64.348 328.786 64.46C328.525 64.5533 328.189 64.656 327.778 64.768C327.554 64.824 327.321 64.8707 327.078 64.908C326.854 64.9453 326.649 64.964 326.462 64.964C326.35 64.964 326.275 64.9267 326.238 64.852C326.201 64.7587 326.182 64.5907 326.182 64.348C326.182 63.8813 326.35 63.424 326.686 62.976C327.041 62.528 327.479 62.136 328.002 61.8C328.525 61.4453 329.094 61.1653 329.71 60.96C330.345 60.7547 330.951 60.652 331.53 60.652C332.221 60.652 332.846 60.7173 333.406 60.848C333.966 60.96 334.442 61.1747 334.834 61.492C335.245 61.7907 335.562 62.2013 335.786 62.724C336.01 63.228 336.122 63.8813 336.122 64.684V69.612C336.122 70.2653 336.131 70.7413 336.15 71.04C336.187 71.3387 336.243 71.5627 336.318 71.712C336.486 72.048 336.747 72.216 337.102 72.216C337.251 72.216 337.373 72.2067 337.466 72.188C337.578 72.1507 337.681 72.132 337.774 72.132ZM332.958 66.896L332.342 67.008C331.913 67.0827 331.511 67.1947 331.138 67.344C330.765 67.4747 330.438 67.6613 330.158 67.904C329.897 68.128 329.682 68.4173 329.514 68.772C329.365 69.108 329.29 69.5187 329.29 70.004C329.29 70.732 329.402 71.2453 329.626 71.544C329.869 71.824 330.214 71.964 330.662 71.964C331.371 71.964 331.931 71.7027 332.342 71.18C332.753 70.6573 332.958 69.9293 332.958 68.996V66.896Z" fill="black"/>
<path d="M1.09394 97.9918C-0.0361056 96.1194 0.996521 93.7771 1.04848 91.7596C1.11992 88.9751 1.15888 85.8452 1.04848 83.0746C0.821169 77.2638 -0.672567 71.4047 0.360059 65.6008L1.33424 65.9187L2.17852 64.8339C54.1476 55.7136 106.578 49.6748 158.904 43.332L159.943 44.2164L162.71 80.2417L162.145 81.0294C132.893 87.1027 103.11 89.4381 73.4038 91.9185C62.7138 92.8098 51.894 93.1138 41.2105 94.088C27.8448 95.311 14.5116 97.6671 1.09394 97.9918ZM48.1531 59.8315V65.0619L47.4777 65.4281L47.14 60.1908L41.7495 60.9508L41.7106 64.5161C40.6844 65.9463 41.165 61.0545 41.0352 60.9094L35.2615 61.8007L34.9758 62.2014C35.2356 63.1273 35.7161 65.8219 34.7615 66.3194C34.125 66.5336 33.9431 65.3728 33.9367 65.0204C33.9042 63.991 34.4043 63.0375 34.2614 62.0011L27.4811 62.7196V67.4111H26.468V63.0789L21.1944 63.7768L21.3828 68.4889L20.3372 68.2747L20.0254 63.7975L14.2648 64.523C14.3427 65.2139 15.2065 68.5373 14.4272 68.8413C13.7842 69.097 13.7452 67.9086 13.6803 67.4802C13.5569 66.6027 13.5504 65.7528 13.5829 64.8754L7.79627 65.3936L7.47804 70.2854C7.06239 70.8727 6.86755 70.2785 6.80261 69.7533C6.71169 69.014 6.93899 65.7459 6.80261 65.6008L1.3797 66.3263C2.62015 72.4203 2.61365 78.6802 2.72406 84.9124C2.73705 85.7761 3.10724 86.5845 3.10074 87.4205C3.08775 90.3224 2.50325 93.6804 2.39933 96.6169C9.90049 94.8964 17.629 94.088 25.2795 93.3764C64.5972 89.7006 104.103 88.7333 143.181 82.4942C149.032 81.5614 155.027 80.5526 160.716 79.081C158.975 68.0053 157.689 56.6394 158.657 45.4117L153.234 46.1303C153.156 47.0216 154.351 50.3726 153.403 50.8148C152.832 51.0774 152.728 50.2137 152.65 49.8268C152.422 48.6315 152.552 47.3187 152.221 46.1303L147.136 46.8558C146.883 47.1183 148.857 50.9116 147.642 51.181C146.331 51.4643 146.987 47.1529 145.973 46.9456L140.024 47.5744L140.362 51.5403H139.349L139.005 47.9337L131.211 48.6591C130.854 49.0184 132.803 52.9153 131.38 53.696L130.231 49.2257L125.425 49.5366L124.931 52.6251C123.912 53.0327 124.678 49.9995 124.425 49.7439L118.326 50.4694L118.144 54.0691L117.313 50.6214L111.76 51.2363L111.228 51.7683L111.54 55.147C109.896 55.3474 110.319 51.6923 110.182 51.5403L104.759 52.2658C104.512 52.4938 106.039 55.2714 104.922 55.5063C103.805 55.7412 104.038 52.7495 103.532 52.6044L98.3167 52.9844C98.2582 53.9586 98.6479 55.1539 97.8036 55.8656C96.732 56.0176 97.5633 53.62 97.3036 53.3437L90.861 54.0691C90.5947 54.3317 92.0885 58.0697 91.0299 58.0282C90.2245 57.9936 89.9778 55.1815 89.8089 54.4699L83.9573 55.1332L83.7365 59.1199H82.7234V55.1539L76.9628 55.8725C76.9043 56.5496 77.255 59.797 76.4562 59.8315C75.6444 59.8661 76.6575 56.826 75.9042 56.2801C75.6444 56.1005 70.3319 56.7914 69.7409 57.0263C68.4225 57.5515 69.9162 60.4188 69.5006 61.6418L68.4874 60.7367V57.3096L62.3956 58.0489C62.1488 58.422 63.4672 61.2687 62.2137 61.9942C61.3954 62.1669 61.7331 61.2963 61.7137 60.7367C61.6812 59.8384 61.7396 58.9264 61.7137 58.0282L55.953 58.7468L56.2907 62.7127C54.6671 62.7127 55.5179 60.6745 55.2256 59.7003L54.7126 59.1406L48.1531 59.8246V59.8315Z" fill="black"/>
<path d="M114.471 1.36784C127.174 -0.950447 140.268 1.3099 153.059 1.66416C154.756 1.85844 154.268 3.61494 153.693 4.75979C151.984 8.17823 138.175 18.3796 134.301 21.0922C131.792 22.8493 127.397 25.9741 124.665 27.0098C115.579 30.4619 103.389 33.0684 93.777 35.7391C59.8184 45.1661 48.8292 48.3568 14.7107 57.0616C14.1712 57.1955 13.8529 57.8518 13.3136 57.9936C12.4649 58.2187 9.86349 57.6137 8.95226 57.2746C0.0883266 54.0241 -2.64091 38.27 4.80631 32.2994C48.8676 19.3523 70.1112 13.3239 114.471 1.36784ZM139.165 2.93061L118.825 2.15855C118.749 3.75887 117.942 4.77126 119.208 6.18025C119.894 6.93584 121.919 7.31711 121.975 8.60551C121.709 9.63521 118.056 8.97923 117.522 12.1845C116.951 15.613 121.162 16.4055 123.703 15.3005C124.45 17.1852 122.76 16.9113 121.501 18.0803C119.274 20.1603 119.661 23.8318 122.816 24.1914C124.219 24.3495 124.627 23.2226 125.881 24.3214C127.661 22.8278 141.51 13.915 141.363 12.9142C138.313 10.7629 137.175 6.11374 139.165 2.9147L139.165 2.93061ZM117.368 2.71729C73.9247 15.458 53.4829 21.9859 9.45774 32.6648L10.8989 39.96C54.068 25.6152 75.1626 20.4322 118.845 7.74426C117.331 6.25074 116.988 4.82261 117.36 2.70943L117.368 2.71729ZM118.608 19.0464C107.251 21.4995 95.9613 24.2543 84.7795 27.3817C63.5024 33.3289 64.6936 32.7493 43.5836 39.3549C33.4844 42.5169 23.4528 45.9045 13.4362 49.7246L15.0129 55.0766C28.4465 51.2853 42.1088 47.9846 55.6239 44.3515C85.4457 36.3274 91.9599 33.5331 121.824 25.7074C121.187 25.0387 120.279 24.9463 119.553 24.1435C117.989 22.4198 118.204 21.1599 118.608 19.0464ZM8.35369 32.8293C-2.09826 37.0858 2.36399 55.9858 13.2353 56.1326C10.6368 48.541 9.15818 40.7768 8.35369 32.8293Z" fill="black"/>
</svg>
