<svg width="1446" height="15" viewBox="0 0 1446 15" fill="none" xmlns="http://www.w3.org/2000/svg">
<path d="M478.878 0L471.582 7.29579L478.878 14.5916L486.174 7.29579L478.878 0Z" fill="#F7E0C6"/>
<path d="M1027.03 0L1019.73 7.29579L1027.03 14.5916L1034.32 7.29579L1027.03 0Z" fill="#F7E0C6"/>
<path d="M235.29 0L227.733 7.29579L235.29 14.5916L242.846 7.29579L235.29 0Z" fill="#F7E0C6"/>
<path d="M721.984 0L714.428 7.29579L721.984 14.5916L729.54 7.29579L721.984 0Z" fill="#F7E0C6"/>
<path d="M1270.13 0L1262.58 7.29579L1270.13 14.5916L1277.69 7.29579L1270.13 0Z" fill="#F7E0C6"/>
<path d="M113.867 0L106.311 7.29579L113.867 14.5916L121.423 7.29579L113.867 0Z" fill="#F7E0C6"/>
<path d="M600.561 0L593.005 7.29579L600.561 14.5916L608.118 7.29579L600.561 0Z" fill="#F7E0C6"/>
<path d="M1148.71 0L1141.15 7.29579L1148.71 14.5916L1156.27 7.29579L1148.71 0Z" fill="#F7E0C6"/>
<path d="M356.973 0L349.677 7.29579L356.973 14.5916L364.268 7.29579L356.973 0Z" fill="#F7E0C6"/>
<path d="M843.668 0L836.372 7.29579L843.668 14.5916L850.964 7.29579L843.668 0Z" fill="#F7E0C6"/>
<path d="M432.797 0L425.24 7.29579L432.797 14.5916L440.353 7.29579L432.797 0Z" fill="#F7E0C6"/>
<path d="M980.946 0L973.39 7.29579L980.946 14.5916L988.502 7.29579L980.946 0Z" fill="#F7E0C6"/>
<path d="M919.492 0L911.936 7.29579L919.492 14.5916L927.048 7.29579L919.492 0Z" fill="#F7E0C6"/>
<path d="M53.1552 0L45.8594 7.29579L53.1552 14.5916L60.451 7.29579L53.1552 0Z" fill="#F7E0C6"/>
<path d="M539.85 0L532.554 7.29579L539.85 14.5916L547.145 7.29579L539.85 0Z" fill="#F7E0C6"/>
<path d="M1088 0L1080.7 7.29579L1088 14.5916L1095.29 7.29579L1088 0Z" fill="#F7E0C6"/>
<path d="M296.001 0L288.705 7.29579L296.001 14.5916L303.297 7.29579L296.001 0Z" fill="#F7E0C6"/>
<path d="M782.695 0L775.399 7.29579L782.695 14.5916L789.991 7.29579L782.695 0Z" fill="#F7E0C6"/>
<path d="M1330.84 0L1323.55 7.29579L1330.84 14.5916L1338.14 7.29579L1330.84 0Z" fill="#F7E0C6"/>
<path d="M1407.41 0L1400.11 7.29579L1407.41 14.5916L1414.7 7.29579L1407.41 0Z" fill="#F7E0C6"/>
<path d="M174.578 0L167.282 7.29579L174.578 14.5916L181.874 7.29579L174.578 0Z" fill="#F7E0C6"/>
<path d="M661.272 0L653.977 7.29579L661.272 14.5916L668.568 7.29579L661.272 0Z" fill="#F7E0C6"/>
<path d="M1209.42 0L1202.13 7.29579L1209.42 14.5916L1216.72 7.29579L1209.42 0Z" fill="#F7E0C6"/>
<path d="M22.6687 0L15.1123 7.29579L22.6687 14.5916L30.225 7.29579L22.6687 0Z" fill="#F7E0C6"/>
<path d="M509.364 0L501.808 7.29579L509.364 14.5916L516.92 7.29579L509.364 0Z" fill="#F7E0C6"/>
<path d="M1057.51 0L1049.96 7.29579L1057.51 14.5916L1065.07 7.29579L1057.51 0Z" fill="#F7E0C6"/>
<path d="M265.775 0L258.479 7.29579L265.775 14.5916L273.071 7.29579L265.775 0Z" fill="#F7E0C6"/>
<path d="M752.471 0L745.175 7.29579L752.471 14.5916L759.766 7.29579L752.471 0Z" fill="#F7E0C6"/>
<path d="M1300.62 0L1293.32 7.29579L1300.62 14.5916L1307.91 7.29579L1300.62 0Z" fill="#F7E0C6"/>
<path d="M1377.18 0L1369.89 7.29579L1377.18 14.5916L1384.48 7.29579L1377.18 0Z" fill="#F7E0C6"/>
<path d="M144.352 0L137.057 7.29579L144.352 14.5916L151.648 7.29579L144.352 0Z" fill="#F7E0C6"/>
<path d="M631.048 0L623.752 7.29579L631.048 14.5916L638.344 7.29579L631.048 0Z" fill="#F7E0C6"/>
<path d="M1179.2 0L1171.9 7.29579L1179.2 14.5916L1186.49 7.29579L1179.2 0Z" fill="#F7E0C6"/>
<path d="M387.198 0L379.902 7.29579L387.198 14.5916L394.494 7.29579L387.198 0Z" fill="#F7E0C6"/>
<path d="M873.893 0L866.598 7.29579L873.893 14.5916L881.189 7.29579L873.893 0Z" fill="#F7E0C6"/>
<path d="M463.283 0L455.987 7.29579L463.283 14.5916L470.579 7.29579L463.283 0Z" fill="#F7E0C6"/>
<path d="M1011.43 0L1004.14 7.29579L1011.43 14.5916L1018.73 7.29579L1011.43 0Z" fill="#F7E0C6"/>
<path d="M949.977 0L942.682 7.29579L949.977 14.5916L957.273 7.29579L949.977 0Z" fill="#F7E0C6"/>
<path d="M83.3808 0L76.085 7.29579L83.3808 14.5916L90.6765 7.29579L83.3808 0Z" fill="#F7E0C6"/>
<path d="M570.075 0L562.779 7.29579L570.075 14.5916L577.371 7.29579L570.075 0Z" fill="#F7E0C6"/>
<path d="M1118.22 0L1110.93 7.29579L1118.22 14.5916L1125.52 7.29579L1118.22 0Z" fill="#F7E0C6"/>
<path d="M326.487 0L318.931 7.29579L326.487 14.5916L334.043 7.29579L326.487 0Z" fill="#F7E0C6"/>
<path d="M813.181 0L805.625 7.29579L813.181 14.5916L820.738 7.29579L813.181 0Z" fill="#F7E0C6"/>
<path d="M1361.33 0L1353.77 7.29579L1361.33 14.5916L1368.89 7.29579L1361.33 0Z" fill="#F7E0C6"/>
<path d="M1437.89 0L1430.34 7.29579L1437.89 14.5916L1445.45 7.29579L1437.89 0Z" fill="#F7E0C6"/>
<path d="M402.31 0L395.015 7.29579L402.31 14.5916L409.606 7.29579L402.31 0Z" fill="#F7E0C6"/>
<path d="M889.006 0L881.71 7.29579L889.006 14.5916L896.302 7.29579L889.006 0Z" fill="#F7E0C6"/>
<path d="M204.804 0L197.508 7.29579L204.804 14.5916L212.099 7.29579L204.804 0Z" fill="#F7E0C6"/>
<path d="M691.498 0L684.202 7.29579L691.498 14.5916L698.794 7.29579L691.498 0Z" fill="#F7E0C6"/>
<path d="M1239.65 0L1232.35 7.29579L1239.65 14.5916L1246.94 7.29579L1239.65 0Z" fill="#F7E0C6"/>
<path d="M7.29581 0L0 7.29579L7.29581 14.5916L14.5916 7.29579L7.29581 0Z" fill="#F7E0C6"/>
<path d="M493.991 0L486.695 7.29579L493.991 14.5916L501.287 7.29579L493.991 0Z" fill="#F7E0C6"/>
<path d="M1042.14 0L1034.84 7.29579L1042.14 14.5916L1049.44 7.29579L1042.14 0Z" fill="#F7E0C6"/>
<path d="M250.663 0L243.367 7.29579L250.663 14.5916L257.959 7.29579L250.663 0Z" fill="#F7E0C6"/>
<path d="M737.357 0L730.062 7.29579L737.357 14.5916L744.653 7.29579L737.357 0Z" fill="#F7E0C6"/>
<path d="M1285.51 0L1278.21 7.29579L1285.51 14.5916L1292.8 7.29579L1285.51 0Z" fill="#F7E0C6"/>
<path d="M128.979 0L121.423 7.29579L128.979 14.5916L136.536 7.29579L128.979 0Z" fill="#F7E0C6"/>
<path d="M615.675 0L608.118 7.29579L615.675 14.5916L623.231 7.29579L615.675 0Z" fill="#F7E0C6"/>
<path d="M1163.82 0L1156.27 7.29579L1163.82 14.5916L1171.38 7.29579L1163.82 0Z" fill="#F7E0C6"/>
<path d="M372.086 0L364.79 7.29579L372.086 14.5916L379.382 7.29579L372.086 0Z" fill="#F7E0C6"/>
<path d="M858.78 0L851.484 7.29579L858.78 14.5916L866.076 7.29579L858.78 0Z" fill="#F7E0C6"/>
<path d="M448.17 0L440.874 7.29579L448.17 14.5916L455.466 7.29579L448.17 0Z" fill="#F7E0C6"/>
<path d="M996.319 0L989.023 7.29579L996.319 14.5916L1003.62 7.29579L996.319 0Z" fill="#F7E0C6"/>
<path d="M934.865 0L927.569 7.29579L934.865 14.5916L942.161 7.29579L934.865 0Z" fill="#F7E0C6"/>
<path d="M68.2675 0L60.9717 7.29579L68.2675 14.5916L75.5633 7.29579L68.2675 0Z" fill="#F7E0C6"/>
<path d="M554.963 0L547.667 7.29579L554.963 14.5916L562.259 7.29579L554.963 0Z" fill="#F7E0C6"/>
<path d="M1103.11 0L1095.82 7.29579L1103.11 14.5916L1110.41 7.29579L1103.11 0Z" fill="#F7E0C6"/>
<path d="M311.113 0L303.817 7.29579L311.113 14.5916L318.409 7.29579L311.113 0Z" fill="#F7E0C6"/>
<path d="M797.809 0L790.513 7.29579L797.809 14.5916L805.104 7.29579L797.809 0Z" fill="#F7E0C6"/>
<path d="M1345.96 0L1338.66 7.29579L1345.96 14.5916L1353.25 7.29579L1345.96 0Z" fill="#F7E0C6"/>
<path d="M1422.52 0L1415.23 7.29579L1422.52 14.5916L1429.82 7.29579L1422.52 0Z" fill="#F7E0C6"/>
<path d="M189.69 0L182.395 7.29579L189.69 14.5916L196.986 7.29579L189.69 0Z" fill="#F7E0C6"/>
<path d="M676.386 0L669.09 7.29579L676.386 14.5916L683.681 7.29579L676.386 0Z" fill="#F7E0C6"/>
<path d="M1224.54 0L1217.24 7.29579L1224.54 14.5916L1231.83 7.29579L1224.54 0Z" fill="#F7E0C6"/>
<path d="M37.782 0L30.2256 7.29579L37.782 14.5916L45.3383 7.29579L37.782 0Z" fill="#F7E0C6"/>
<path d="M524.477 0L516.921 7.29579L524.477 14.5916L532.034 7.29579L524.477 0Z" fill="#F7E0C6"/>
<path d="M1072.63 0L1065.07 7.29579L1072.63 14.5916L1080.18 7.29579L1072.63 0Z" fill="#F7E0C6"/>
<path d="M280.888 0L273.592 7.29579L280.888 14.5916L288.183 7.29579L280.888 0Z" fill="#F7E0C6"/>
<path d="M767.583 0L760.287 7.29579L767.583 14.5916L774.879 7.29579L767.583 0Z" fill="#F7E0C6"/>
<path d="M1315.73 0L1308.44 7.29579L1315.73 14.5916L1323.03 7.29579L1315.73 0Z" fill="#F7E0C6"/>
<path d="M1392.3 0L1385 7.29579L1392.3 14.5916L1399.59 7.29579L1392.3 0Z" fill="#F7E0C6"/>
<path d="M159.465 0L152.169 7.29579L159.465 14.5916L166.761 7.29579L159.465 0Z" fill="#F7E0C6"/>
<path d="M646.16 0L638.864 7.29579L646.16 14.5916L653.456 7.29579L646.16 0Z" fill="#F7E0C6"/>
<path d="M1194.31 0L1187.01 7.29579L1194.31 14.5916L1201.61 7.29579L1194.31 0Z" fill="#F7E0C6"/>
<path d="M98.4931 0L91.1973 7.29579L98.4931 14.5916L105.789 7.29579L98.4931 0Z" fill="#F7E0C6"/>
<path d="M585.188 0L577.893 7.29579L585.188 14.5916L592.484 7.29579L585.188 0Z" fill="#F7E0C6"/>
<path d="M1133.34 0L1126.04 7.29579L1133.34 14.5916L1140.63 7.29579L1133.34 0Z" fill="#F7E0C6"/>
<path d="M341.599 0L334.043 7.29579L341.599 14.5916L349.156 7.29579L341.599 0Z" fill="#F7E0C6"/>
<path d="M828.295 0L820.738 7.29579L828.295 14.5916L835.851 7.29579L828.295 0Z" fill="#F7E0C6"/>
<path d="M417.684 0L410.128 7.29579L417.684 14.5916L425.241 7.29579L417.684 0Z" fill="#F7E0C6"/>
<path d="M965.834 0L958.277 7.29579L965.834 14.5916L973.39 7.29579L965.834 0Z" fill="#F7E0C6"/>
<path d="M904.38 0L896.823 7.29579L904.38 14.5916L911.936 7.29579L904.38 0Z" fill="#F7E0C6"/>
<path d="M220.176 0L212.62 7.29579L220.176 14.5916L227.733 7.29579L220.176 0Z" fill="#F7E0C6"/>
<path d="M706.872 0L699.315 7.29579L706.872 14.5916L714.428 7.29579L706.872 0Z" fill="#F7E0C6"/>
<path d="M1255.02 0L1247.46 7.29579L1255.02 14.5916L1262.58 7.29579L1255.02 0Z" fill="#F7E0C6"/>
</svg>

