<svg width="1446" height="22" viewBox="0 0 1446 22" fill="none" xmlns="http://www.w3.org/2000/svg">
<path d="M600.173 12.06C600.173 12.82 600.093 13.52 599.933 14.16C599.773 14.7867 599.493 15.3333 599.093 15.8C598.707 16.2533 598.18 16.6067 597.513 16.86C596.86 17.1133 596.033 17.24 595.033 17.24C593.847 17.24 592.887 17.1067 592.153 16.84C591.433 16.5733 590.873 16.2133 590.473 15.76C590.087 15.2933 589.827 14.7533 589.693 14.14C589.56 13.5133 589.493 12.8467 589.493 12.14V5.5C589.493 5.22 589.407 5.02667 589.233 4.92C589.06 4.8 588.707 4.70667 588.173 4.64C588.027 4.61333 587.953 4.48667 587.953 4.26C587.953 4.22 587.953 4.16667 587.953 4.1C587.953 4.03333 587.967 3.96667 587.993 3.9C588.38 3.92667 588.787 3.95333 589.213 3.98C589.653 3.99333 590.173 4 590.773 4C591.24 4 591.727 3.99333 592.233 3.98C592.74 3.95333 593.193 3.92667 593.593 3.9C593.607 3.96667 593.613 4.03333 593.613 4.1C593.627 4.16667 593.633 4.22 593.633 4.26C593.633 4.48667 593.56 4.61333 593.413 4.64C592.867 4.70667 592.493 4.8 592.293 4.92C592.107 5.04 592.013 5.23333 592.013 5.5V11.7C592.013 13.0867 592.267 14.14 592.773 14.86C593.293 15.58 594.18 15.94 595.433 15.94C596.713 15.94 597.62 15.6067 598.153 14.94C598.7 14.26 598.973 13.16 598.973 11.64V5.5C598.973 5.23333 598.88 5.04 598.693 4.92C598.507 4.8 598.153 4.70667 597.633 4.64C597.473 4.6 597.393 4.47333 597.393 4.26C597.393 4.22 597.393 4.16667 597.393 4.1C597.407 4.03333 597.42 3.96667 597.433 3.9C597.82 3.94 598.173 3.96667 598.493 3.98C598.827 3.99333 599.18 4 599.553 4C599.98 4 600.36 3.99333 600.693 3.98C601.027 3.96667 601.353 3.94 601.673 3.9C601.687 3.96667 601.693 4.03333 601.693 4.1C601.707 4.16667 601.713 4.22 601.713 4.26C601.713 4.47333 601.633 4.6 601.473 4.64C600.98 4.69333 600.64 4.78667 600.453 4.92C600.267 5.04 600.173 5.23333 600.173 5.5V12.06ZM612.071 15.78C612.071 15.9667 612.151 16.1133 612.311 16.22C612.471 16.3133 612.765 16.3933 613.191 16.46C613.245 16.4733 613.291 16.5 613.331 16.54C613.385 16.5667 613.411 16.6267 613.411 16.72C613.411 16.8 613.405 16.8733 613.391 16.94C613.391 16.9933 613.385 17.0467 613.371 17.1C613.025 17.0733 612.678 17.0467 612.331 17.02C611.985 17.0067 611.551 17 611.031 17C610.605 17 610.205 17.0067 609.831 17.02C609.458 17.0467 609.098 17.0733 608.751 17.1C608.725 17.0333 608.711 16.9067 608.711 16.72C608.711 16.5733 608.785 16.4867 608.931 16.46C609.278 16.3933 609.511 16.3133 609.631 16.22C609.751 16.1267 609.811 15.98 609.811 15.78V11.86C609.811 11.0733 609.711 10.5333 609.511 10.24C609.325 9.93333 609.018 9.78 608.591 9.78C607.991 9.78 607.478 9.98667 607.051 10.4C606.625 10.8 606.411 11.4 606.411 12.2V15.78C606.411 15.98 606.471 16.1267 606.591 16.22C606.711 16.3133 606.945 16.3933 607.291 16.46C607.438 16.4867 607.511 16.5733 607.511 16.72C607.511 16.9067 607.498 17.0333 607.471 17.1C607.125 17.0733 606.765 17.0467 606.391 17.02C606.018 17.0067 605.618 17 605.191 17C604.671 17 604.231 17.0067 603.871 17.02C603.525 17.0467 603.185 17.0733 602.851 17.1C602.838 17.0467 602.825 16.9933 602.811 16.94C602.811 16.8733 602.811 16.8 602.811 16.72C602.811 16.6267 602.831 16.5667 602.871 16.54C602.925 16.5 602.978 16.4733 603.031 16.46C603.458 16.38 603.751 16.2933 603.911 16.2C604.071 16.1067 604.151 15.96 604.151 15.76V10.48C604.151 10.08 604.078 9.77333 603.931 9.56C603.785 9.34667 603.478 9.22 603.011 9.18C602.838 9.14 602.751 9.03333 602.751 8.86C602.751 8.82 602.751 8.77333 602.751 8.72C602.751 8.65333 602.765 8.59333 602.791 8.54C602.871 8.54 602.985 8.54 603.131 8.54C603.291 8.52667 603.458 8.52 603.631 8.52C603.805 8.50667 603.978 8.49333 604.151 8.48C604.325 8.46667 604.485 8.45333 604.631 8.44C604.965 8.4 605.285 8.34667 605.591 8.28C605.898 8.21333 606.105 8.18 606.211 8.18C606.425 8.18 606.531 8.28 606.531 8.48C606.531 8.62667 606.511 8.82 606.471 9.06C606.431 9.3 606.411 9.63333 606.411 10.06C606.838 9.5 607.311 9.04667 607.831 8.7C608.351 8.35333 608.891 8.18 609.451 8.18C610.265 8.18 610.905 8.40667 611.371 8.86C611.838 9.31333 612.071 9.99333 612.071 10.9V15.78ZM616.732 17C616.212 17 615.765 17.0067 615.392 17.02C615.018 17.0467 614.658 17.0733 614.312 17.1C614.285 16.9667 614.272 16.84 614.272 16.72C614.272 16.6267 614.292 16.5667 614.332 16.54C614.385 16.5 614.438 16.4733 614.492 16.46C614.918 16.38 615.212 16.2933 615.372 16.2C615.532 16.1067 615.612 15.96 615.612 15.76V10.48C615.612 10.08 615.545 9.77333 615.412 9.56C615.278 9.34667 614.965 9.22 614.472 9.18C614.298 9.15333 614.212 9.04667 614.212 8.86C614.212 8.82 614.212 8.77333 614.212 8.72C614.212 8.65333 614.225 8.59333 614.252 8.54C614.332 8.54 614.445 8.54 614.592 8.54C614.752 8.52667 614.918 8.52 615.092 8.52C615.265 8.50667 615.438 8.49333 615.612 8.48C615.785 8.46667 615.945 8.45333 616.092 8.44C616.425 8.4 616.745 8.34667 617.052 8.28C617.358 8.21333 617.565 8.18 617.672 8.18C617.885 8.18 617.992 8.28 617.992 8.48C617.992 8.62667 617.972 8.82 617.932 9.06C617.892 9.3 617.872 9.63333 617.872 10.06V15.76C617.872 15.96 617.958 16.1067 618.132 16.2C618.305 16.2933 618.592 16.38 618.992 16.46C619.138 16.4867 619.212 16.5733 619.212 16.72C619.212 16.7867 619.212 16.8533 619.212 16.92C619.212 16.9867 619.198 17.0467 619.172 17.1C618.838 17.0733 618.478 17.0467 618.092 17.02C617.705 17.0067 617.252 17 616.732 17ZM615.272 5.26C615.272 4.83333 615.405 4.48667 615.672 4.22C615.952 3.94 616.298 3.8 616.712 3.8C617.138 3.8 617.485 3.94 617.752 4.22C618.018 4.48667 618.152 4.83333 618.152 5.26C618.152 5.68667 618.018 6.04 617.752 6.32C617.485 6.58667 617.138 6.72 616.712 6.72C616.298 6.72 615.952 6.58667 615.672 6.32C615.405 6.04 615.272 5.68667 615.272 5.26ZM621.447 9.42H620.247V8.9C620.247 8.76667 620.307 8.68667 620.427 8.66C620.56 8.62 620.7 8.59333 620.847 8.58C620.993 8.55333 621.127 8.5 621.247 8.42C621.38 8.34 621.447 8.18 621.447 7.94V7.3C621.447 6.62 621.553 6.01333 621.767 5.48C621.98 4.94667 622.26 4.5 622.607 4.14C622.967 3.76667 623.373 3.48667 623.827 3.3C624.293 3.1 624.773 3 625.267 3C626.267 3 627.027 3.16667 627.547 3.5C628.08 3.82 628.347 4.20667 628.347 4.66C628.347 4.76667 628.267 4.87333 628.107 4.98C627.96 5.07333 627.787 5.16 627.587 5.24C627.4 5.30667 627.213 5.36667 627.027 5.42C626.853 5.46 626.733 5.48 626.667 5.48C626.547 5.48 626.453 5.46 626.387 5.42C626.32 5.38 626.267 5.29333 626.227 5.16C626.12 4.81333 625.967 4.51333 625.767 4.26C625.567 3.99333 625.273 3.86 624.887 3.86C624.46 3.86 624.153 4.02 623.967 4.34C623.793 4.66 623.707 5.22 623.707 6.02V8.42H626.067C626.067 8.79333 626.047 9.05333 626.007 9.2C625.967 9.34667 625.853 9.42 625.667 9.42H623.707V15.36C623.707 15.52 623.72 15.66 623.747 15.78C623.787 15.8867 623.867 15.98 623.987 16.06C624.107 16.14 624.293 16.2133 624.547 16.28C624.8 16.3333 625.147 16.3867 625.587 16.44C625.76 16.4667 625.847 16.56 625.847 16.72C625.847 16.7733 625.84 16.8467 625.827 16.94C625.827 17.02 625.82 17.0867 625.807 17.14C625.473 17.1133 625.033 17.08 624.487 17.04C623.953 17.0133 623.427 17 622.907 17C622.44 17 621.987 17.0067 621.547 17.02C621.12 17.0467 620.733 17.0733 620.387 17.1C620.36 16.9667 620.347 16.84 620.347 16.72C620.347 16.5733 620.42 16.4867 620.567 16.46C620.94 16.38 621.18 16.3 621.287 16.22C621.393 16.1267 621.447 15.98 621.447 15.78V9.42ZM626.744 12.72C626.744 12.0667 626.857 11.4667 627.084 10.92C627.324 10.36 627.65 9.88 628.064 9.48C628.477 9.06667 628.97 8.74667 629.544 8.52C630.117 8.29333 630.744 8.18 631.424 8.18C632.13 8.18 632.77 8.29333 633.344 8.52C633.917 8.74667 634.41 9.06667 634.824 9.48C635.237 9.88 635.55 10.36 635.764 10.92C635.99 11.4667 636.104 12.0667 636.104 12.72C636.104 13.3733 635.984 13.98 635.744 14.54C635.517 15.0867 635.19 15.56 634.764 15.96C634.35 16.36 633.857 16.6733 633.284 16.9C632.71 17.1267 632.084 17.24 631.404 17.24C630.697 17.24 630.057 17.1267 629.484 16.9C628.91 16.6733 628.417 16.36 628.004 15.96C627.604 15.56 627.29 15.0867 627.064 14.54C626.85 13.98 626.744 13.3733 626.744 12.72ZM629.264 12.32C629.264 13.5467 629.464 14.5267 629.864 15.26C630.277 15.9933 630.864 16.36 631.624 16.36C632.33 16.36 632.83 16.08 633.124 15.52C633.43 14.9467 633.584 14.1467 633.584 13.12C633.584 11.9067 633.377 10.9267 632.964 10.18C632.55 9.43333 631.97 9.06 631.224 9.06C630.517 9.06 630.01 9.35333 629.704 9.94C629.41 10.5133 629.264 11.3067 629.264 12.32ZM643.586 8.2C643.973 8.2 644.26 8.3 644.446 8.5C644.646 8.7 644.746 8.95333 644.746 9.26C644.746 9.35333 644.726 9.43333 644.686 9.5C644.66 9.56667 644.586 9.64 644.466 9.72C644.36 9.8 644.206 9.89333 644.006 10C643.806 10.0933 643.546 10.2133 643.226 10.36C643.013 10.1467 642.813 10.0067 642.626 9.94C642.453 9.86 642.28 9.82 642.106 9.82C641.946 9.82 641.786 9.84667 641.626 9.9C641.48 9.95333 641.346 10.06 641.226 10.22C641.106 10.3667 641.006 10.5667 640.926 10.82C640.86 11.0733 640.826 11.4 640.826 11.8V15.52C640.826 15.7867 640.933 15.9867 641.146 16.12C641.36 16.24 641.78 16.3533 642.406 16.46C642.553 16.4867 642.626 16.5733 642.626 16.72C642.626 16.9067 642.613 17.0333 642.586 17.1C642.413 17.0867 642.2 17.0733 641.946 17.06C641.693 17.06 641.426 17.0533 641.146 17.04C640.866 17.0267 640.586 17.0133 640.306 17C640.04 17 639.8 17 639.586 17C639.08 17 638.646 17.0067 638.286 17.02C637.926 17.0467 637.586 17.0733 637.266 17.1C637.24 17.0333 637.226 16.9067 637.226 16.72C637.226 16.5733 637.3 16.4867 637.446 16.46C637.873 16.38 638.166 16.2933 638.326 16.2C638.486 16.1067 638.566 15.96 638.566 15.76V10.38C638.566 10.0733 638.506 9.82667 638.386 9.64C638.28 9.45333 637.966 9.32667 637.446 9.26C637.26 9.23333 637.166 9.13333 637.166 8.96C637.166 8.92 637.166 8.86667 637.166 8.8C637.166 8.73333 637.18 8.68 637.206 8.64C637.286 8.64 637.4 8.64 637.546 8.64C637.693 8.62667 637.853 8.62 638.026 8.62C638.2 8.60667 638.373 8.59333 638.546 8.58C638.72 8.56667 638.873 8.54667 639.006 8.52C639.3 8.48 639.6 8.43333 639.906 8.38C640.226 8.31333 640.44 8.28 640.546 8.28C640.733 8.28 640.826 8.38 640.826 8.58V9.66C641.293 9.15333 641.74 8.78667 642.166 8.56C642.593 8.32 643.066 8.2 643.586 8.2ZM654.21 10.14C654.677 9.54 655.164 9.06667 655.67 8.72C656.19 8.36 656.717 8.18 657.25 8.18C658.917 8.18 659.75 9.08667 659.75 10.9V15.78C659.75 15.9667 659.83 16.1067 659.99 16.2C660.15 16.2933 660.444 16.38 660.87 16.46C661.017 16.4867 661.09 16.5733 661.09 16.72C661.09 16.7867 661.09 16.8533 661.09 16.92C661.09 16.9867 661.077 17.0467 661.05 17.1C660.717 17.0733 660.377 17.0467 660.03 17.02C659.684 17.0067 659.25 17 658.73 17C658.29 17 657.884 17.0067 657.51 17.02C657.15 17.0467 656.79 17.0733 656.43 17.1C656.404 16.9667 656.39 16.84 656.39 16.72C656.39 16.6267 656.41 16.5667 656.45 16.54C656.504 16.5 656.557 16.4733 656.61 16.46C656.97 16.3933 657.204 16.3133 657.31 16.22C657.43 16.1267 657.49 15.98 657.49 15.78V11.86C657.49 11.0733 657.41 10.5333 657.25 10.24C657.104 9.93333 656.824 9.78 656.41 9.78C655.81 9.78 655.304 9.98667 654.89 10.4C654.477 10.8 654.27 11.4 654.27 12.2V15.78C654.27 15.98 654.33 16.1267 654.45 16.22C654.57 16.3133 654.804 16.3933 655.15 16.46C655.297 16.4867 655.37 16.5733 655.37 16.72C655.37 16.7867 655.37 16.8533 655.37 16.92C655.37 16.9867 655.357 17.0467 655.33 17.1C655.01 17.0733 654.69 17.0467 654.37 17.02C654.05 17.0067 653.677 17 653.25 17C652.81 17 652.404 17.0067 652.03 17.02C651.67 17.0467 651.31 17.0733 650.95 17.1C650.924 16.9667 650.91 16.84 650.91 16.72C650.91 16.6267 650.93 16.5667 650.97 16.54C651.024 16.5 651.077 16.4733 651.13 16.46C651.49 16.3933 651.724 16.3133 651.83 16.22C651.95 16.1267 652.01 15.98 652.01 15.78V11.86C652.01 11.0733 651.93 10.5333 651.77 10.24C651.624 9.93333 651.344 9.78 650.93 9.78C650.33 9.78 649.824 9.98667 649.41 10.4C648.997 10.8 648.79 11.4 648.79 12.2V15.78C648.79 15.98 648.85 16.1267 648.97 16.22C649.09 16.3133 649.324 16.3933 649.67 16.46C649.817 16.4867 649.89 16.5733 649.89 16.72C649.89 16.7867 649.89 16.8533 649.89 16.92C649.89 16.9867 649.877 17.0467 649.85 17.1C649.504 17.0733 649.144 17.0467 648.77 17.02C648.397 17.0067 647.997 17 647.57 17C647.05 17 646.61 17.0067 646.25 17.02C645.904 17.0467 645.564 17.0733 645.23 17.1C645.204 16.9667 645.19 16.84 645.19 16.72C645.19 16.6267 645.21 16.5667 645.25 16.54C645.304 16.5 645.357 16.4733 645.41 16.46C645.837 16.38 646.13 16.2933 646.29 16.2C646.45 16.1067 646.53 15.96 646.53 15.76V10.48C646.53 10.08 646.457 9.77333 646.31 9.56C646.164 9.34667 645.857 9.22 645.39 9.18C645.217 9.14 645.13 9.03333 645.13 8.86C645.13 8.82 645.13 8.77333 645.13 8.72C645.13 8.65333 645.144 8.59333 645.17 8.54C645.25 8.54 645.364 8.54 645.51 8.54C645.67 8.52667 645.837 8.52 646.01 8.52C646.184 8.50667 646.357 8.49333 646.53 8.48C646.704 8.46667 646.864 8.45333 647.01 8.44C647.344 8.4 647.664 8.34667 647.97 8.28C648.277 8.21333 648.484 8.18 648.59 8.18C648.804 8.18 648.91 8.28 648.91 8.48C648.91 8.62667 648.89 8.82 648.85 9.06C648.81 9.3 648.79 9.63333 648.79 10.06C649.217 9.5 649.684 9.04667 650.19 8.7C650.71 8.35333 651.237 8.18 651.77 8.18C653.17 8.18 653.984 8.83333 654.21 10.14ZM670.663 16.38C670.863 16.38 670.963 16.5467 670.963 16.88C670.79 17 670.57 17.0867 670.303 17.14C670.05 17.2067 669.79 17.24 669.523 17.24C668.923 17.24 668.463 17.0933 668.143 16.8C667.823 16.5067 667.636 16.1667 667.583 15.78C667.316 16.3133 666.956 16.6933 666.503 16.92C666.063 17.1333 665.543 17.24 664.943 17.24C664.663 17.24 664.35 17.2133 664.003 17.16C663.67 17.12 663.356 17.0267 663.063 16.88C662.783 16.7333 662.543 16.5267 662.343 16.26C662.143 15.9933 662.043 15.64 662.043 15.2C662.043 14.7067 662.17 14.2867 662.423 13.94C662.676 13.5933 662.99 13.3067 663.363 13.08C663.75 12.84 664.17 12.6533 664.623 12.52C665.076 12.3733 665.503 12.2533 665.903 12.16C666.076 12.12 666.256 12.08 666.443 12.04C666.63 11.9867 666.776 11.9467 666.883 11.92C667.03 11.88 667.123 11.8267 667.163 11.76C667.203 11.68 667.223 11.4867 667.223 11.18C667.223 10.5 667.123 9.98 666.923 9.62C666.723 9.24667 666.383 9.06 665.903 9.06C665.516 9.06 665.236 9.18 665.063 9.42C664.903 9.66 664.75 10.04 664.603 10.56C664.563 10.7067 664.443 10.82 664.243 10.9C664.056 10.9667 663.816 11.04 663.523 11.12C663.363 11.16 663.196 11.1933 663.023 11.22C662.863 11.2467 662.716 11.26 662.583 11.26C662.503 11.26 662.45 11.2333 662.423 11.18C662.396 11.1133 662.383 10.9933 662.383 10.82C662.383 10.4867 662.503 10.16 662.743 9.84C662.996 9.52 663.31 9.24 663.683 9C664.056 8.74667 664.463 8.54667 664.903 8.4C665.356 8.25333 665.79 8.18 666.203 8.18C666.696 8.18 667.143 8.22667 667.543 8.32C667.943 8.4 668.283 8.55333 668.563 8.78C668.856 8.99333 669.083 9.28667 669.243 9.66C669.403 10.02 669.483 10.4867 669.483 11.06V14.58C669.483 15.0467 669.49 15.3867 669.503 15.6C669.53 15.8133 669.57 15.9733 669.623 16.08C669.743 16.32 669.93 16.44 670.183 16.44C670.29 16.44 670.376 16.4333 670.443 16.42C670.523 16.3933 670.596 16.38 670.663 16.38ZM667.223 12.64L666.783 12.72C666.476 12.7733 666.19 12.8533 665.923 12.96C665.656 13.0533 665.423 13.1867 665.223 13.36C665.036 13.52 664.883 13.7267 664.763 13.98C664.656 14.22 664.603 14.5133 664.603 14.86C664.603 15.38 664.683 15.7467 664.843 15.96C665.016 16.16 665.263 16.26 665.583 16.26C666.09 16.26 666.49 16.0733 666.783 15.7C667.076 15.3267 667.223 14.8067 667.223 14.14V12.64ZM676.848 10.48C676.848 10.08 676.775 9.78667 676.628 9.6C676.482 9.4 676.142 9.26667 675.608 9.2C675.422 9.16 675.328 9.04667 675.328 8.86C675.328 8.75333 675.342 8.64667 675.368 8.54C675.462 8.54 675.582 8.54 675.728 8.54C675.888 8.52667 676.055 8.52 676.228 8.52C676.415 8.50667 676.595 8.49333 676.768 8.48C676.955 8.46667 677.122 8.45333 677.268 8.44C677.602 8.4 677.928 8.34667 678.248 8.28C678.568 8.21333 678.782 8.18 678.888 8.18C679.115 8.18 679.228 8.28 679.228 8.48C679.228 8.62667 679.208 8.82 679.168 9.06C679.128 9.3 679.108 9.63333 679.108 10.06V15C679.108 15.8933 679.062 16.6333 678.968 17.22C678.875 17.82 678.688 18.36 678.408 18.84C678.142 19.32 677.755 19.78 677.248 20.22C676.742 20.6733 676.075 21.2 675.248 21.8C675.168 21.7333 675.095 21.66 675.028 21.58C674.975 21.5133 674.948 21.4333 674.948 21.34C674.948 21.2733 674.962 21.2133 674.988 21.16C675.028 21.1067 675.062 21.06 675.088 21.02C675.448 20.66 675.742 20.3333 675.968 20.04C676.195 19.7467 676.375 19.4533 676.508 19.16C676.642 18.8667 676.728 18.5467 676.768 18.2C676.822 17.8667 676.848 17.4667 676.848 17V10.48ZM676.488 5.26C676.488 4.83333 676.622 4.48667 676.888 4.22C677.168 3.94 677.522 3.8 677.948 3.8C678.362 3.8 678.702 3.94 678.968 4.22C679.248 4.48667 679.388 4.83333 679.388 5.26C679.388 5.68667 679.248 6.04 678.968 6.32C678.702 6.58667 678.362 6.72 677.948 6.72C677.522 6.72 677.168 6.58667 676.888 6.32C676.622 6.04 676.488 5.68667 676.488 5.26ZM682.347 10.18C682.347 9.86 682.294 9.62667 682.187 9.48C682.094 9.33333 681.821 9.23333 681.367 9.18C681.181 9.14 681.087 9.04667 681.087 8.9C681.087 8.86 681.087 8.80667 681.087 8.74C681.087 8.67333 681.101 8.60667 681.127 8.54C681.207 8.54 681.321 8.54 681.467 8.54C681.614 8.52667 681.767 8.52 681.927 8.52C682.087 8.50667 682.247 8.49333 682.407 8.48C682.581 8.46667 682.734 8.44667 682.867 8.42C683.174 8.38 683.467 8.33333 683.747 8.28C684.027 8.21333 684.221 8.18 684.327 8.18C684.447 8.18 684.521 8.20667 684.547 8.26C684.587 8.31333 684.607 8.38667 684.607 8.48V13.6C684.607 14.3733 684.701 14.9133 684.887 15.22C685.087 15.5133 685.401 15.66 685.827 15.66C686.427 15.66 686.941 15.46 687.367 15.06C687.794 14.66 688.007 14.0533 688.007 13.24V10.18C688.007 10.02 687.994 9.88667 687.967 9.78C687.954 9.66 687.914 9.56 687.847 9.48C687.781 9.4 687.681 9.34 687.547 9.3C687.427 9.24667 687.254 9.20667 687.027 9.18C686.947 9.15333 686.874 9.12667 686.807 9.1C686.754 9.07333 686.727 9.00667 686.727 8.9C686.727 8.86 686.727 8.80667 686.727 8.74C686.741 8.67333 686.754 8.60667 686.767 8.54C686.861 8.54 686.974 8.54 687.107 8.54C687.254 8.52667 687.407 8.52 687.567 8.52C687.741 8.50667 687.907 8.49333 688.067 8.48C688.241 8.46667 688.394 8.44667 688.527 8.42C688.821 8.38 689.107 8.33333 689.387 8.28C689.681 8.21333 689.881 8.18 689.987 8.18C690.174 8.18 690.267 8.28 690.267 8.48V15.14C690.267 15.3 690.274 15.44 690.287 15.56C690.314 15.6667 690.361 15.76 690.427 15.84C690.494 15.92 690.594 15.9867 690.727 16.04C690.861 16.08 691.041 16.1133 691.267 16.14C691.441 16.1533 691.527 16.24 691.527 16.4C691.527 16.4667 691.527 16.5333 691.527 16.6C691.527 16.6667 691.514 16.72 691.487 16.76C691.314 16.76 691.041 16.7733 690.667 16.8C690.307 16.8133 690.001 16.84 689.747 16.88C689.454 16.92 689.161 16.9667 688.867 17.02C688.587 17.0867 688.394 17.12 688.287 17.12C688.167 17.12 688.087 17.0933 688.047 17.04C688.021 17 688.007 16.9267 688.007 16.82V15.38C687.581 15.94 687.107 16.3933 686.587 16.74C686.067 17.0733 685.527 17.24 684.967 17.24C684.154 17.24 683.514 17.02 683.047 16.58C682.581 16.1267 682.347 15.4533 682.347 14.56V10.18ZM701.211 16.38C701.411 16.38 701.511 16.5467 701.511 16.88C701.337 17 701.117 17.0867 700.851 17.14C700.597 17.2067 700.337 17.24 700.071 17.24C699.471 17.24 699.011 17.0933 698.691 16.8C698.371 16.5067 698.184 16.1667 698.131 15.78C697.864 16.3133 697.504 16.6933 697.051 16.92C696.611 17.1333 696.091 17.24 695.491 17.24C695.211 17.24 694.897 17.2133 694.551 17.16C694.217 17.12 693.904 17.0267 693.611 16.88C693.331 16.7333 693.091 16.5267 692.891 16.26C692.691 15.9933 692.591 15.64 692.591 15.2C692.591 14.7067 692.717 14.2867 692.971 13.94C693.224 13.5933 693.537 13.3067 693.911 13.08C694.297 12.84 694.717 12.6533 695.171 12.52C695.624 12.3733 696.051 12.2533 696.451 12.16C696.624 12.12 696.804 12.08 696.991 12.04C697.177 11.9867 697.324 11.9467 697.431 11.92C697.577 11.88 697.671 11.8267 697.711 11.76C697.751 11.68 697.771 11.4867 697.771 11.18C697.771 10.5 697.671 9.98 697.471 9.62C697.271 9.24667 696.931 9.06 696.451 9.06C696.064 9.06 695.784 9.18 695.611 9.42C695.451 9.66 695.297 10.04 695.151 10.56C695.111 10.7067 694.991 10.82 694.791 10.9C694.604 10.9667 694.364 11.04 694.071 11.12C693.911 11.16 693.744 11.1933 693.571 11.22C693.411 11.2467 693.264 11.26 693.131 11.26C693.051 11.26 692.997 11.2333 692.971 11.18C692.944 11.1133 692.931 10.9933 692.931 10.82C692.931 10.4867 693.051 10.16 693.291 9.84C693.544 9.52 693.857 9.24 694.231 9C694.604 8.74667 695.011 8.54667 695.451 8.4C695.904 8.25333 696.337 8.18 696.751 8.18C697.244 8.18 697.691 8.22667 698.091 8.32C698.491 8.4 698.831 8.55333 699.111 8.78C699.404 8.99333 699.631 9.28667 699.791 9.66C699.951 10.02 700.031 10.4867 700.031 11.06V14.58C700.031 15.0467 700.037 15.3867 700.051 15.6C700.077 15.8133 700.117 15.9733 700.171 16.08C700.291 16.32 700.477 16.44 700.731 16.44C700.837 16.44 700.924 16.4333 700.991 16.42C701.071 16.3933 701.144 16.38 701.211 16.38ZM697.771 12.64L697.331 12.72C697.024 12.7733 696.737 12.8533 696.471 12.96C696.204 13.0533 695.971 13.1867 695.771 13.36C695.584 13.52 695.431 13.7267 695.311 13.98C695.204 14.22 695.151 14.5133 695.151 14.86C695.151 15.38 695.231 15.7467 695.391 15.96C695.564 16.16 695.811 16.26 696.131 16.26C696.637 16.26 697.037 16.0733 697.331 15.7C697.624 15.3267 697.771 14.8067 697.771 14.14V12.64ZM703.397 10.48C703.397 10.08 703.323 9.78667 703.177 9.6C703.03 9.4 702.69 9.26667 702.157 9.2C701.97 9.16 701.877 9.04667 701.877 8.86C701.877 8.75333 701.89 8.64667 701.917 8.54C702.01 8.54 702.13 8.54 702.277 8.54C702.437 8.52667 702.603 8.52 702.777 8.52C702.963 8.50667 703.143 8.49333 703.317 8.48C703.503 8.46667 703.67 8.45333 703.817 8.44C704.15 8.4 704.477 8.34667 704.797 8.28C705.117 8.21333 705.33 8.18 705.437 8.18C705.663 8.18 705.777 8.28 705.777 8.48C705.777 8.62667 705.757 8.82 705.717 9.06C705.677 9.3 705.657 9.63333 705.657 10.06V15C705.657 15.8933 705.61 16.6333 705.517 17.22C705.423 17.82 705.237 18.36 704.957 18.84C704.69 19.32 704.303 19.78 703.797 20.22C703.29 20.6733 702.623 21.2 701.797 21.8C701.717 21.7333 701.643 21.66 701.577 21.58C701.523 21.5133 701.497 21.4333 701.497 21.34C701.497 21.2733 701.51 21.2133 701.537 21.16C701.577 21.1067 701.61 21.06 701.637 21.02C701.997 20.66 702.29 20.3333 702.517 20.04C702.743 19.7467 702.923 19.4533 703.057 19.16C703.19 18.8667 703.277 18.5467 703.317 18.2C703.37 17.8667 703.397 17.4667 703.397 17V10.48ZM703.037 5.26C703.037 4.83333 703.17 4.48667 703.437 4.22C703.717 3.94 704.07 3.8 704.497 3.8C704.91 3.8 705.25 3.94 705.517 4.22C705.797 4.48667 705.937 4.83333 705.937 5.26C705.937 5.68667 705.797 6.04 705.517 6.32C705.25 6.58667 704.91 6.72 704.497 6.72C704.07 6.72 703.717 6.58667 703.437 6.32C703.17 6.04 703.037 5.68667 703.037 5.26ZM708.296 19.98C708.029 19.7933 707.896 19.6 707.896 19.4C707.896 19.28 707.942 19.18 708.036 19.1C708.396 18.74 708.649 18.42 708.796 18.14C708.942 17.8733 709.016 17.6267 709.016 17.4C709.016 17.1067 708.922 16.8733 708.736 16.7C708.549 16.5133 708.342 16.3667 708.116 16.26C707.902 16.18 707.796 15.9933 707.796 15.7C707.796 15.4333 707.902 15.1533 708.116 14.86C708.329 14.5533 708.669 14.2867 709.136 14.06C709.589 14.3 709.989 14.6267 710.336 15.04C710.682 15.4533 710.856 15.94 710.856 16.5C710.856 17.0067 710.662 17.5533 710.276 18.14C709.902 18.7267 709.242 19.34 708.296 19.98ZM724.928 20.58C724.928 20.78 724.975 20.92 725.068 21C725.175 21.0933 725.421 21.18 725.808 21.26C725.955 21.2867 726.028 21.3733 726.028 21.52C726.028 21.64 726.015 21.7667 725.988 21.9C725.628 21.8733 725.228 21.8467 724.788 21.82C724.361 21.8067 723.915 21.8 723.448 21.8C722.928 21.8 722.401 21.8067 721.868 21.82C721.335 21.8467 720.901 21.8733 720.568 21.9C720.541 21.8467 720.528 21.78 720.528 21.7C720.528 21.6333 720.528 21.5733 720.528 21.52C720.528 21.4133 720.555 21.34 720.608 21.3C720.661 21.2733 720.721 21.2533 720.788 21.24C721.228 21.1867 721.575 21.1267 721.828 21.06C722.081 21.0067 722.268 20.94 722.388 20.86C722.508 20.78 722.581 20.68 722.608 20.56C722.648 20.4533 722.668 20.32 722.668 20.16V15.62C722.495 15.86 722.315 16.08 722.128 16.28C721.941 16.48 721.728 16.6533 721.488 16.8C721.261 16.9333 721.001 17.04 720.708 17.12C720.415 17.2 720.081 17.24 719.708 17.24C719.188 17.24 718.701 17.1467 718.248 16.96C717.808 16.7733 717.421 16.5 717.088 16.14C716.755 15.7667 716.495 15.3133 716.308 14.78C716.121 14.2467 716.028 13.64 716.028 12.96C716.028 12.2267 716.168 11.5667 716.448 10.98C716.728 10.38 717.088 9.87333 717.528 9.46C717.968 9.04667 718.448 8.73333 718.968 8.52C719.501 8.29333 720.008 8.18 720.488 8.18C720.928 8.18 721.395 8.24667 721.888 8.38C722.381 8.5 722.908 8.68 723.468 8.92C723.628 8.89333 723.768 8.84667 723.888 8.78C724.021 8.71333 724.135 8.64667 724.228 8.58C724.335 8.5 724.421 8.43333 724.488 8.38C724.568 8.32667 724.635 8.3 724.688 8.3C724.768 8.3 724.835 8.31333 724.888 8.34C724.955 8.35333 725.008 8.36667 725.048 8.38C724.968 9.12667 724.928 9.83333 724.928 10.5V20.58ZM722.668 10.02C722.108 9.38 721.415 9.06 720.588 9.06C719.895 9.06 719.381 9.36667 719.048 9.98C718.715 10.5933 718.548 11.42 718.548 12.46C718.548 12.9667 718.588 13.4467 718.668 13.9C718.761 14.34 718.895 14.7267 719.068 15.06C719.241 15.38 719.461 15.6333 719.728 15.82C720.008 16.0067 720.341 16.1 720.728 16.1C720.968 16.1 721.201 16.0267 721.428 15.88C721.668 15.72 721.875 15.52 722.048 15.28C722.235 15.04 722.381 14.7667 722.488 14.46C722.608 14.1533 722.668 13.8467 722.668 13.54V10.02ZM734.502 15.16C734.622 15.0667 734.728 15.02 734.822 15.02C734.888 15.02 734.962 15.0533 735.042 15.12C735.135 15.1733 735.228 15.2867 735.322 15.46C734.802 16.0733 734.202 16.5267 733.522 16.82C732.855 17.1 732.062 17.24 731.142 17.24C730.622 17.24 730.108 17.16 729.602 17C729.108 16.8267 728.662 16.5667 728.262 16.22C727.862 15.86 727.535 15.4133 727.282 14.88C727.042 14.3467 726.922 13.7067 726.922 12.96C726.922 12.2267 727.062 11.5667 727.342 10.98C727.635 10.38 728.002 9.87333 728.442 9.46C728.882 9.04667 729.362 8.73333 729.882 8.52C730.402 8.29333 730.902 8.18 731.382 8.18C732.675 8.18 733.648 8.55333 734.302 9.3C734.968 10.0467 735.302 11.0667 735.302 12.36C735.302 12.4533 735.255 12.5 735.162 12.5L729.422 12.74C729.422 13.78 729.655 14.58 730.122 15.14C730.588 15.6867 731.288 15.96 732.222 15.96C732.635 15.96 733.042 15.8933 733.442 15.76C733.842 15.6267 734.195 15.4267 734.502 15.16ZM731.082 9.06C730.562 9.06 730.142 9.28667 729.822 9.74C729.515 10.18 729.362 10.88 729.362 11.84L732.482 11.7C732.682 11.6867 732.782 11.6 732.782 11.44C732.782 11.1867 732.748 10.92 732.682 10.64C732.615 10.36 732.508 10.1067 732.362 9.88C732.228 9.64 732.055 9.44667 731.842 9.3C731.628 9.14 731.375 9.06 731.082 9.06ZM737.55 10.2C737.55 9.88 737.496 9.64667 737.39 9.5C737.296 9.34 737.023 9.23333 736.57 9.18C736.383 9.14 736.29 9.04667 736.29 8.9C736.29 8.84667 736.29 8.78667 736.29 8.72C736.29 8.65333 736.303 8.59333 736.33 8.54C736.41 8.54 736.523 8.54 736.67 8.54C736.816 8.52667 736.97 8.52 737.13 8.52C737.29 8.50667 737.45 8.49333 737.61 8.48C737.783 8.46667 737.936 8.44667 738.07 8.42C738.376 8.38 738.67 8.33333 738.95 8.28C739.23 8.21333 739.423 8.18 739.53 8.18C739.65 8.18 739.723 8.20667 739.75 8.26C739.79 8.31333 739.81 8.38667 739.81 8.48V9.84C740.196 9.33333 740.636 8.93333 741.13 8.64C741.623 8.33333 742.17 8.18 742.77 8.18C743.29 8.18 743.77 8.28 744.21 8.48C744.663 8.66667 745.056 8.94667 745.39 9.32C745.723 9.68 745.983 10.1267 746.17 10.66C746.356 11.1933 746.45 11.8 746.45 12.48C746.45 13.2267 746.303 13.8933 746.01 14.48C745.73 15.0667 745.37 15.5667 744.93 15.98C744.49 16.3933 744.01 16.7067 743.49 16.92C742.97 17.1333 742.47 17.24 741.99 17.24C741.603 17.24 741.243 17.2067 740.91 17.14C740.59 17.0867 740.223 16.9867 739.81 16.84V20.16C739.81 20.32 739.823 20.4533 739.85 20.56C739.89 20.68 739.97 20.78 740.09 20.86C740.21 20.94 740.396 21.0067 740.65 21.06C740.903 21.1267 741.25 21.1867 741.69 21.24C741.863 21.2667 741.95 21.3667 741.95 21.54C741.95 21.7133 741.936 21.8333 741.91 21.9C741.563 21.8733 741.123 21.8467 740.59 21.82C740.056 21.8067 739.536 21.8 739.03 21.8C738.59 21.8 738.143 21.8067 737.69 21.82C737.25 21.8467 736.85 21.8733 736.49 21.9C736.463 21.7667 736.45 21.64 736.45 21.52C736.45 21.4267 736.47 21.36 736.51 21.32C736.563 21.2933 736.616 21.2733 736.67 21.26C737.043 21.1667 737.283 21.08 737.39 21C737.496 20.92 737.55 20.78 737.55 20.58V10.2ZM739.81 15.4C740.423 16.04 741.116 16.36 741.89 16.36C742.57 16.36 743.076 16.06 743.41 15.46C743.756 14.8467 743.93 14.02 743.93 12.98C743.93 12.4733 743.89 12 743.81 11.56C743.73 11.1067 743.603 10.72 743.43 10.4C743.256 10.0667 743.03 9.80667 742.75 9.62C742.483 9.42 742.163 9.32 741.79 9.32C741.536 9.32 741.29 9.4 741.05 9.56C740.823 9.70667 740.616 9.90667 740.43 10.16C740.243 10.4 740.09 10.6733 739.97 10.98C739.863 11.2867 739.81 11.5933 739.81 11.9V15.4ZM748.736 10.18C748.736 9.86 748.682 9.62667 748.576 9.48C748.482 9.33333 748.209 9.23333 747.756 9.18C747.569 9.14 747.476 9.04667 747.476 8.9C747.476 8.86 747.476 8.80667 747.476 8.74C747.476 8.67333 747.489 8.60667 747.516 8.54C747.596 8.54 747.709 8.54 747.856 8.54C748.002 8.52667 748.156 8.52 748.316 8.52C748.476 8.50667 748.636 8.49333 748.796 8.48C748.969 8.46667 749.122 8.44667 749.256 8.42C749.562 8.38 749.856 8.33333 750.136 8.28C750.416 8.21333 750.609 8.18 750.716 8.18C750.836 8.18 750.909 8.20667 750.936 8.26C750.976 8.31333 750.996 8.38667 750.996 8.48V13.6C750.996 14.3733 751.089 14.9133 751.276 15.22C751.476 15.5133 751.789 15.66 752.216 15.66C752.816 15.66 753.329 15.46 753.756 15.06C754.182 14.66 754.396 14.0533 754.396 13.24V10.18C754.396 10.02 754.382 9.88667 754.356 9.78C754.342 9.66 754.302 9.56 754.236 9.48C754.169 9.4 754.069 9.34 753.936 9.3C753.816 9.24667 753.642 9.20667 753.416 9.18C753.336 9.15333 753.262 9.12667 753.196 9.1C753.142 9.07333 753.116 9.00667 753.116 8.9C753.116 8.86 753.116 8.80667 753.116 8.74C753.129 8.67333 753.142 8.60667 753.156 8.54C753.249 8.54 753.362 8.54 753.496 8.54C753.642 8.52667 753.796 8.52 753.956 8.52C754.129 8.50667 754.296 8.49333 754.456 8.48C754.629 8.46667 754.782 8.44667 754.916 8.42C755.209 8.38 755.496 8.33333 755.776 8.28C756.069 8.21333 756.269 8.18 756.376 8.18C756.562 8.18 756.656 8.28 756.656 8.48V15.14C756.656 15.3 756.662 15.44 756.676 15.56C756.702 15.6667 756.749 15.76 756.816 15.84C756.882 15.92 756.982 15.9867 757.116 16.04C757.249 16.08 757.429 16.1133 757.656 16.14C757.829 16.1533 757.916 16.24 757.916 16.4C757.916 16.4667 757.916 16.5333 757.916 16.6C757.916 16.6667 757.902 16.72 757.876 16.76C757.702 16.76 757.429 16.7733 757.056 16.8C756.696 16.8133 756.389 16.84 756.136 16.88C755.842 16.92 755.549 16.9667 755.256 17.02C754.976 17.0867 754.782 17.12 754.676 17.12C754.556 17.12 754.476 17.0933 754.436 17.04C754.409 17 754.396 16.9267 754.396 16.82V15.38C753.969 15.94 753.496 16.3933 752.976 16.74C752.456 17.0733 751.916 17.24 751.356 17.24C750.542 17.24 749.902 17.02 749.436 16.58C748.969 16.1267 748.736 15.4533 748.736 14.56V10.18ZM765.259 8.2C765.646 8.2 765.932 8.3 766.119 8.5C766.319 8.7 766.419 8.95333 766.419 9.26C766.419 9.35333 766.399 9.43333 766.359 9.5C766.332 9.56667 766.259 9.64 766.139 9.72C766.032 9.8 765.879 9.89333 765.679 10C765.479 10.0933 765.219 10.2133 764.899 10.36C764.686 10.1467 764.486 10.0067 764.299 9.94C764.126 9.86 763.952 9.82 763.779 9.82C763.619 9.82 763.459 9.84667 763.299 9.9C763.152 9.95333 763.019 10.06 762.899 10.22C762.779 10.3667 762.679 10.5667 762.599 10.82C762.532 11.0733 762.499 11.4 762.499 11.8V15.52C762.499 15.7867 762.606 15.9867 762.819 16.12C763.032 16.24 763.452 16.3533 764.079 16.46C764.226 16.4867 764.299 16.5733 764.299 16.72C764.299 16.9067 764.286 17.0333 764.259 17.1C764.086 17.0867 763.872 17.0733 763.619 17.06C763.366 17.06 763.099 17.0533 762.819 17.04C762.539 17.0267 762.259 17.0133 761.979 17C761.712 17 761.472 17 761.259 17C760.752 17 760.319 17.0067 759.959 17.02C759.599 17.0467 759.259 17.0733 758.939 17.1C758.912 17.0333 758.899 16.9067 758.899 16.72C758.899 16.5733 758.972 16.4867 759.119 16.46C759.546 16.38 759.839 16.2933 759.999 16.2C760.159 16.1067 760.239 15.96 760.239 15.76V10.38C760.239 10.0733 760.179 9.82667 760.059 9.64C759.952 9.45333 759.639 9.32667 759.119 9.26C758.932 9.23333 758.839 9.13333 758.839 8.96C758.839 8.92 758.839 8.86667 758.839 8.8C758.839 8.73333 758.852 8.68 758.879 8.64C758.959 8.64 759.072 8.64 759.219 8.64C759.366 8.62667 759.526 8.62 759.699 8.62C759.872 8.60667 760.046 8.59333 760.219 8.58C760.392 8.56667 760.546 8.54667 760.679 8.52C760.972 8.48 761.272 8.43333 761.579 8.38C761.899 8.31333 762.112 8.28 762.219 8.28C762.406 8.28 762.499 8.38 762.499 8.58V9.66C762.966 9.15333 763.412 8.78667 763.839 8.56C764.266 8.32 764.739 8.2 765.259 8.2ZM774.462 15.76C774.462 15.96 774.542 16.1067 774.702 16.2C774.876 16.2933 775.169 16.38 775.582 16.46C775.636 16.4733 775.682 16.5 775.722 16.54C775.776 16.5667 775.802 16.6267 775.802 16.72C775.802 16.84 775.789 16.9667 775.762 17.1C775.416 17.0733 775.049 17.0467 774.662 17.02C774.276 17.0067 773.822 17 773.302 17C772.836 17 772.442 17.0067 772.122 17.02C771.816 17.0467 771.489 17.0733 771.142 17.1C771.116 17.0467 771.102 16.9867 771.102 16.92C771.102 16.8533 771.102 16.7867 771.102 16.72C771.102 16.5733 771.176 16.4867 771.322 16.46C771.709 16.38 771.949 16.3 772.042 16.22C772.149 16.1267 772.202 15.98 772.202 15.78V9.42H771.002V8.9C771.002 8.79333 771.022 8.72 771.062 8.68C771.116 8.64 771.176 8.62 771.242 8.62C771.562 8.62 771.802 8.58667 771.962 8.52C772.122 8.44 772.202 8.24667 772.202 7.94V7.4C772.202 6.70667 772.322 6.09333 772.562 5.56C772.802 5.01333 773.122 4.55333 773.522 4.18C773.922 3.79333 774.382 3.5 774.902 3.3C775.422 3.1 775.962 3 776.522 3C777.909 3 778.969 3.30667 779.702 3.92C779.849 4.04 779.949 4.17333 780.002 4.32C780.069 4.45333 780.102 4.56667 780.102 4.66C780.102 4.75333 780.036 4.85333 779.902 4.96C779.769 5.06667 779.609 5.16667 779.422 5.26C779.236 5.34 779.042 5.41333 778.842 5.48C778.656 5.53333 778.502 5.56 778.382 5.56C778.276 5.56 778.189 5.52667 778.122 5.46C778.056 5.38 777.996 5.30667 777.942 5.24C777.702 4.81333 777.429 4.48 777.122 4.24C776.816 4 776.442 3.88 776.002 3.88C775.536 3.88 775.162 4.06667 774.882 4.44C774.602 4.81333 774.462 5.5 774.462 6.5V8.42H777.862C778.196 8.42 778.462 8.41333 778.662 8.4C778.876 8.38667 779.056 8.37333 779.202 8.36C779.362 8.33333 779.502 8.31333 779.622 8.3C779.756 8.27333 779.902 8.26 780.062 8.26C780.289 8.26 780.402 8.36 780.402 8.56C780.402 8.70667 780.382 8.9 780.342 9.14C780.302 9.38 780.282 9.71333 780.282 10.14V15.76C780.282 15.96 780.362 16.1067 780.522 16.2C780.696 16.2933 780.989 16.38 781.402 16.46C781.456 16.4733 781.502 16.5 781.542 16.54C781.596 16.5667 781.622 16.6267 781.622 16.72C781.622 16.84 781.609 16.9667 781.582 17.1C781.236 17.0733 780.869 17.0467 780.482 17.02C780.096 17.0067 779.642 17 779.122 17C778.602 17 778.156 17.0067 777.782 17.02C777.409 17.0467 777.056 17.0733 776.722 17.1C776.696 17.0467 776.682 16.9867 776.682 16.92C776.682 16.8533 776.682 16.7867 776.682 16.72C776.682 16.5733 776.756 16.4867 776.902 16.46C777.329 16.38 777.622 16.2933 777.782 16.2C777.942 16.1067 778.022 15.96 778.022 15.76V10.48C778.022 10.08 777.949 9.80667 777.802 9.66C777.669 9.5 777.356 9.42 776.862 9.42H774.462V15.76ZM783.858 10.48C783.858 10.08 783.784 9.78667 783.638 9.6C783.491 9.4 783.151 9.26667 782.618 9.2C782.431 9.16 782.338 9.04667 782.338 8.86C782.338 8.75333 782.351 8.64667 782.378 8.54C782.471 8.54 782.591 8.54 782.738 8.54C782.898 8.52667 783.064 8.52 783.238 8.52C783.424 8.50667 783.604 8.49333 783.778 8.48C783.964 8.46667 784.131 8.45333 784.278 8.44C784.611 8.4 784.938 8.34667 785.258 8.28C785.578 8.21333 785.791 8.18 785.898 8.18C786.124 8.18 786.238 8.28 786.238 8.48C786.238 8.62667 786.218 8.82 786.178 9.06C786.138 9.3 786.118 9.63333 786.118 10.06V15C786.118 15.8933 786.071 16.6333 785.978 17.22C785.884 17.82 785.698 18.36 785.418 18.84C785.151 19.32 784.764 19.78 784.258 20.22C783.751 20.6733 783.084 21.2 782.258 21.8C782.178 21.7333 782.104 21.66 782.038 21.58C781.984 21.5133 781.958 21.4333 781.958 21.34C781.958 21.2733 781.971 21.2133 781.998 21.16C782.038 21.1067 782.071 21.06 782.098 21.02C782.458 20.66 782.751 20.3333 782.978 20.04C783.204 19.7467 783.384 19.4533 783.518 19.16C783.651 18.8667 783.738 18.5467 783.778 18.2C783.831 17.8667 783.858 17.4667 783.858 17V10.48ZM783.498 5.26C783.498 4.83333 783.631 4.48667 783.898 4.22C784.178 3.94 784.531 3.8 784.958 3.8C785.371 3.8 785.711 3.94 785.978 4.22C786.258 4.48667 786.398 4.83333 786.398 5.26C786.398 5.68667 786.258 6.04 785.978 6.32C785.711 6.58667 785.371 6.72 784.958 6.72C784.531 6.72 784.178 6.58667 783.898 6.32C783.631 6.04 783.498 5.68667 783.498 5.26ZM795.817 15.16C795.937 15.0667 796.043 15.02 796.137 15.02C796.203 15.02 796.277 15.0533 796.357 15.12C796.45 15.1733 796.543 15.2867 796.637 15.46C796.117 16.0733 795.517 16.5267 794.837 16.82C794.17 17.1 793.377 17.24 792.457 17.24C791.937 17.24 791.423 17.16 790.917 17C790.423 16.8267 789.977 16.5667 789.577 16.22C789.177 15.86 788.85 15.4133 788.597 14.88C788.357 14.3467 788.237 13.7067 788.237 12.96C788.237 12.2267 788.377 11.5667 788.657 10.98C788.95 10.38 789.317 9.87333 789.757 9.46C790.197 9.04667 790.677 8.73333 791.197 8.52C791.717 8.29333 792.217 8.18 792.697 8.18C793.99 8.18 794.963 8.55333 795.617 9.3C796.283 10.0467 796.617 11.0667 796.617 12.36C796.617 12.4533 796.57 12.5 796.477 12.5L790.737 12.74C790.737 13.78 790.97 14.58 791.437 15.14C791.903 15.6867 792.603 15.96 793.537 15.96C793.95 15.96 794.357 15.8933 794.757 15.76C795.157 15.6267 795.51 15.4267 795.817 15.16ZM792.397 9.06C791.877 9.06 791.457 9.28667 791.137 9.74C790.83 10.18 790.677 10.88 790.677 11.84L793.797 11.7C793.997 11.6867 794.097 11.6 794.097 11.44C794.097 11.1867 794.063 10.92 793.997 10.64C793.93 10.36 793.823 10.1067 793.677 9.88C793.543 9.64 793.37 9.44667 793.157 9.3C792.943 9.14 792.69 9.06 792.397 9.06ZM802.864 10.2C802.864 9.88 802.811 9.64667 802.704 9.5C802.611 9.34 802.337 9.23333 801.884 9.18C801.697 9.14 801.604 9.04667 801.604 8.9C801.604 8.84667 801.604 8.78667 801.604 8.72C801.604 8.65333 801.617 8.59333 801.644 8.54C801.724 8.54 801.837 8.54 801.984 8.54C802.131 8.52667 802.284 8.52 802.444 8.52C802.604 8.50667 802.764 8.49333 802.924 8.48C803.097 8.46667 803.251 8.44667 803.384 8.42C803.691 8.38 803.984 8.33333 804.264 8.28C804.544 8.21333 804.737 8.18 804.844 8.18C804.964 8.18 805.037 8.20667 805.064 8.26C805.104 8.31333 805.124 8.38667 805.124 8.48V9.84C805.511 9.33333 805.951 8.93333 806.444 8.64C806.937 8.33333 807.484 8.18 808.084 8.18C808.604 8.18 809.084 8.28 809.524 8.48C809.977 8.66667 810.371 8.94667 810.704 9.32C811.037 9.68 811.297 10.1267 811.484 10.66C811.671 11.1933 811.764 11.8 811.764 12.48C811.764 13.2267 811.617 13.8933 811.324 14.48C811.044 15.0667 810.684 15.5667 810.244 15.98C809.804 16.3933 809.324 16.7067 808.804 16.92C808.284 17.1333 807.784 17.24 807.304 17.24C806.917 17.24 806.557 17.2067 806.224 17.14C805.904 17.0867 805.537 16.9867 805.124 16.84V20.16C805.124 20.32 805.137 20.4533 805.164 20.56C805.204 20.68 805.284 20.78 805.404 20.86C805.524 20.94 805.711 21.0067 805.964 21.06C806.217 21.1267 806.564 21.1867 807.004 21.24C807.177 21.2667 807.264 21.3667 807.264 21.54C807.264 21.7133 807.251 21.8333 807.224 21.9C806.877 21.8733 806.437 21.8467 805.904 21.82C805.371 21.8067 804.851 21.8 804.344 21.8C803.904 21.8 803.457 21.8067 803.004 21.82C802.564 21.8467 802.164 21.8733 801.804 21.9C801.777 21.7667 801.764 21.64 801.764 21.52C801.764 21.4267 801.784 21.36 801.824 21.32C801.877 21.2933 801.931 21.2733 801.984 21.26C802.357 21.1667 802.597 21.08 802.704 21C802.811 20.92 802.864 20.78 802.864 20.58V10.2ZM805.124 15.4C805.737 16.04 806.431 16.36 807.204 16.36C807.884 16.36 808.391 16.06 808.724 15.46C809.071 14.8467 809.244 14.02 809.244 12.98C809.244 12.4733 809.204 12 809.124 11.56C809.044 11.1067 808.917 10.72 808.744 10.4C808.571 10.0667 808.344 9.80667 808.064 9.62C807.797 9.42 807.477 9.32 807.104 9.32C806.851 9.32 806.604 9.4 806.364 9.56C806.137 9.70667 805.931 9.90667 805.744 10.16C805.557 10.4 805.404 10.6733 805.284 10.98C805.177 11.2867 805.124 11.5933 805.124 11.9V15.4ZM820.51 15.16C820.63 15.0667 820.736 15.02 820.83 15.02C820.896 15.02 820.97 15.0533 821.05 15.12C821.143 15.1733 821.236 15.2867 821.33 15.46C820.81 16.0733 820.21 16.5267 819.53 16.82C818.863 17.1 818.07 17.24 817.15 17.24C816.63 17.24 816.116 17.16 815.61 17C815.116 16.8267 814.67 16.5667 814.27 16.22C813.87 15.86 813.543 15.4133 813.29 14.88C813.05 14.3467 812.93 13.7067 812.93 12.96C812.93 12.2267 813.07 11.5667 813.35 10.98C813.643 10.38 814.01 9.87333 814.45 9.46C814.89 9.04667 815.37 8.73333 815.89 8.52C816.41 8.29333 816.91 8.18 817.39 8.18C818.683 8.18 819.656 8.55333 820.31 9.3C820.976 10.0467 821.31 11.0667 821.31 12.36C821.31 12.4533 821.263 12.5 821.17 12.5L815.43 12.74C815.43 13.78 815.663 14.58 816.13 15.14C816.596 15.6867 817.296 15.96 818.23 15.96C818.643 15.96 819.05 15.8933 819.45 15.76C819.85 15.6267 820.203 15.4267 820.51 15.16ZM817.09 9.06C816.57 9.06 816.15 9.28667 815.83 9.74C815.523 10.18 815.37 10.88 815.37 11.84L818.49 11.7C818.69 11.6867 818.79 11.6 818.79 11.44C818.79 11.1867 818.756 10.92 818.69 10.64C818.623 10.36 818.516 10.1067 818.37 9.88C818.236 9.64 818.063 9.44667 817.85 9.3C817.636 9.14 817.383 9.06 817.09 9.06ZM816.77 5.14C816.77 5.51333 816.65 5.82667 816.41 6.08C816.183 6.32 815.896 6.44 815.55 6.44C815.176 6.44 814.863 6.32 814.61 6.08C814.356 5.82667 814.23 5.51333 814.23 5.14C814.23 4.79333 814.356 4.48667 814.61 4.22C814.863 3.95333 815.176 3.82 815.55 3.82C815.896 3.82 816.183 3.95333 816.41 4.22C816.65 4.48667 816.77 4.79333 816.77 5.14ZM820.71 5.14C820.71 5.51333 820.59 5.82667 820.35 6.08C820.123 6.32 819.836 6.44 819.49 6.44C819.103 6.44 818.783 6.32 818.53 6.08C818.29 5.82667 818.17 5.51333 818.17 5.14C818.17 4.79333 818.29 4.48667 818.53 4.22C818.783 3.95333 819.103 3.82 819.49 3.82C819.836 3.82 820.123 3.95333 820.35 4.22C820.59 4.48667 820.71 4.79333 820.71 5.14ZM828.718 8.2C829.104 8.2 829.391 8.3 829.578 8.5C829.778 8.7 829.878 8.95333 829.878 9.26C829.878 9.35333 829.858 9.43333 829.818 9.5C829.791 9.56667 829.718 9.64 829.598 9.72C829.491 9.8 829.338 9.89333 829.138 10C828.938 10.0933 828.678 10.2133 828.358 10.36C828.144 10.1467 827.944 10.0067 827.758 9.94C827.584 9.86 827.411 9.82 827.238 9.82C827.078 9.82 826.918 9.84667 826.758 9.9C826.611 9.95333 826.478 10.06 826.358 10.22C826.238 10.3667 826.138 10.5667 826.058 10.82C825.991 11.0733 825.958 11.4 825.958 11.8V15.52C825.958 15.7867 826.064 15.9867 826.278 16.12C826.491 16.24 826.911 16.3533 827.538 16.46C827.684 16.4867 827.758 16.5733 827.758 16.72C827.758 16.9067 827.744 17.0333 827.718 17.1C827.544 17.0867 827.331 17.0733 827.078 17.06C826.824 17.06 826.558 17.0533 826.278 17.04C825.998 17.0267 825.718 17.0133 825.438 17C825.171 17 824.931 17 824.718 17C824.211 17 823.778 17.0067 823.418 17.02C823.058 17.0467 822.718 17.0733 822.398 17.1C822.371 17.0333 822.358 16.9067 822.358 16.72C822.358 16.5733 822.431 16.4867 822.578 16.46C823.004 16.38 823.298 16.2933 823.458 16.2C823.618 16.1067 823.698 15.96 823.698 15.76V10.38C823.698 10.0733 823.638 9.82667 823.518 9.64C823.411 9.45333 823.098 9.32667 822.578 9.26C822.391 9.23333 822.298 9.13333 822.298 8.96C822.298 8.92 822.298 8.86667 822.298 8.8C822.298 8.73333 822.311 8.68 822.338 8.64C822.418 8.64 822.531 8.64 822.678 8.64C822.824 8.62667 822.984 8.62 823.158 8.62C823.331 8.60667 823.504 8.59333 823.678 8.58C823.851 8.56667 824.004 8.54667 824.138 8.52C824.431 8.48 824.731 8.43333 825.038 8.38C825.358 8.31333 825.571 8.28 825.678 8.28C825.864 8.28 825.958 8.38 825.958 8.58V9.66C826.424 9.15333 826.871 8.78667 827.298 8.56C827.724 8.32 828.198 8.2 828.718 8.2ZM835.521 10.2C835.521 9.88 835.468 9.64667 835.361 9.5C835.268 9.34 834.994 9.23333 834.541 9.18C834.354 9.14 834.261 9.04667 834.261 8.9C834.261 8.84667 834.261 8.78667 834.261 8.72C834.261 8.65333 834.274 8.59333 834.301 8.54C834.381 8.54 834.494 8.54 834.641 8.54C834.788 8.52667 834.941 8.52 835.101 8.52C835.261 8.50667 835.421 8.49333 835.581 8.48C835.754 8.46667 835.908 8.44667 836.041 8.42C836.348 8.38 836.641 8.33333 836.921 8.28C837.201 8.21333 837.394 8.18 837.501 8.18C837.621 8.18 837.694 8.20667 837.721 8.26C837.761 8.31333 837.781 8.38667 837.781 8.48V9.84C838.168 9.33333 838.608 8.93333 839.101 8.64C839.594 8.33333 840.141 8.18 840.741 8.18C841.261 8.18 841.741 8.28 842.181 8.48C842.634 8.66667 843.028 8.94667 843.361 9.32C843.694 9.68 843.954 10.1267 844.141 10.66C844.328 11.1933 844.421 11.8 844.421 12.48C844.421 13.2267 844.274 13.8933 843.981 14.48C843.701 15.0667 843.341 15.5667 842.901 15.98C842.461 16.3933 841.981 16.7067 841.461 16.92C840.941 17.1333 840.441 17.24 839.961 17.24C839.574 17.24 839.214 17.2067 838.881 17.14C838.561 17.0867 838.194 16.9867 837.781 16.84V20.16C837.781 20.32 837.794 20.4533 837.821 20.56C837.861 20.68 837.941 20.78 838.061 20.86C838.181 20.94 838.368 21.0067 838.621 21.06C838.874 21.1267 839.221 21.1867 839.661 21.24C839.834 21.2667 839.921 21.3667 839.921 21.54C839.921 21.7133 839.908 21.8333 839.881 21.9C839.534 21.8733 839.094 21.8467 838.561 21.82C838.028 21.8067 837.508 21.8 837.001 21.8C836.561 21.8 836.114 21.8067 835.661 21.82C835.221 21.8467 834.821 21.8733 834.461 21.9C834.434 21.7667 834.421 21.64 834.421 21.52C834.421 21.4267 834.441 21.36 834.481 21.32C834.534 21.2933 834.588 21.2733 834.641 21.26C835.014 21.1667 835.254 21.08 835.361 21C835.468 20.92 835.521 20.78 835.521 20.58V10.2ZM837.781 15.4C838.394 16.04 839.088 16.36 839.861 16.36C840.541 16.36 841.048 16.06 841.381 15.46C841.728 14.8467 841.901 14.02 841.901 12.98C841.901 12.4733 841.861 12 841.781 11.56C841.701 11.1067 841.574 10.72 841.401 10.4C841.228 10.0667 841.001 9.80667 840.721 9.62C840.454 9.42 840.134 9.32 839.761 9.32C839.508 9.32 839.261 9.4 839.021 9.56C838.794 9.70667 838.588 9.90667 838.401 10.16C838.214 10.4 838.061 10.6733 837.941 10.98C837.834 11.2867 837.781 11.5933 837.781 11.9V15.4ZM853.167 15.16C853.287 15.0667 853.393 15.02 853.487 15.02C853.553 15.02 853.627 15.0533 853.707 15.12C853.8 15.1733 853.893 15.2867 853.987 15.46C853.467 16.0733 852.867 16.5267 852.187 16.82C851.52 17.1 850.727 17.24 849.807 17.24C849.287 17.24 848.773 17.16 848.267 17C847.773 16.8267 847.327 16.5667 846.927 16.22C846.527 15.86 846.2 15.4133 845.947 14.88C845.707 14.3467 845.587 13.7067 845.587 12.96C845.587 12.2267 845.727 11.5667 846.007 10.98C846.3 10.38 846.667 9.87333 847.107 9.46C847.547 9.04667 848.027 8.73333 848.547 8.52C849.067 8.29333 849.567 8.18 850.047 8.18C851.34 8.18 852.313 8.55333 852.967 9.3C853.633 10.0467 853.967 11.0667 853.967 12.36C853.967 12.4533 853.92 12.5 853.827 12.5L848.087 12.74C848.087 13.78 848.32 14.58 848.787 15.14C849.253 15.6867 849.953 15.96 850.887 15.96C851.3 15.96 851.707 15.8933 852.107 15.76C852.507 15.6267 852.86 15.4267 853.167 15.16ZM849.747 9.06C849.227 9.06 848.807 9.28667 848.487 9.74C848.18 10.18 848.027 10.88 848.027 11.84L851.147 11.7C851.347 11.6867 851.447 11.6 851.447 11.44C851.447 11.1867 851.413 10.92 851.347 10.64C851.28 10.36 851.173 10.1067 851.027 9.88C850.893 9.64 850.72 9.44667 850.507 9.3C850.293 9.14 850.04 9.06 849.747 9.06ZM855.635 3.9C856.315 3.74 856.868 3.66 857.295 3.66C857.708 3.66 858.008 3.72667 858.195 3.86C858.395 3.98 858.495 4.15333 858.495 4.38C858.495 4.40667 858.488 4.44667 858.475 4.5C858.475 4.55333 858.468 4.59333 858.455 4.62C858.335 5.20667 858.221 5.85333 858.115 6.56C858.008 7.25333 857.908 7.97333 857.815 8.72C857.735 9.46667 857.661 10.2267 857.595 11C857.528 11.7733 857.475 12.52 857.435 13.24C857.368 13.2533 857.301 13.2667 857.235 13.28C857.181 13.28 857.128 13.28 857.075 13.28C856.848 13.28 856.708 13.2467 856.655 13.18C856.615 13.1 856.588 13.02 856.575 12.94L855.635 3.9ZM855.575 15.74C855.575 15.3133 855.715 14.9533 855.995 14.66C856.288 14.3667 856.641 14.22 857.055 14.22C857.455 14.22 857.795 14.3667 858.075 14.66C858.368 14.9533 858.515 15.3133 858.515 15.74C858.515 16.1533 858.368 16.5067 858.075 16.8C857.795 17.0933 857.455 17.24 857.055 17.24C856.641 17.24 856.288 17.0933 855.995 16.8C855.715 16.5067 855.575 16.1533 855.575 15.74Z" fill="#F7E0C6"/>
<path d="M478.878 4L471.582 11.2958L478.878 18.5916L486.174 11.2958L478.878 4Z" fill="#F7E0C6"/>
<path d="M1027.03 4L1019.73 11.2958L1027.03 18.5916L1034.32 11.2958L1027.03 4Z" fill="#F7E0C6"/>
<path d="M235.29 4L227.733 11.2958L235.29 18.5916L242.846 11.2958L235.29 4Z" fill="#F7E0C6"/>
<path d="M1270.13 4L1262.58 11.2958L1270.13 18.5916L1277.69 11.2958L1270.13 4Z" fill="#F7E0C6"/>
<path d="M113.867 4L106.311 11.2958L113.867 18.5916L121.423 11.2958L113.867 4Z" fill="#F7E0C6"/>
<path d="M1148.71 4L1141.15 11.2958L1148.71 18.5916L1156.27 11.2958L1148.71 4Z" fill="#F7E0C6"/>
<path d="M356.973 4L349.677 11.2958L356.973 18.5916L364.268 11.2958L356.973 4Z" fill="#F7E0C6"/>
<path d="M432.797 4L425.24 11.2958L432.797 18.5916L440.353 11.2958L432.797 4Z" fill="#F7E0C6"/>
<path d="M980.946 4L973.39 11.2958L980.946 18.5916L988.502 11.2958L980.946 4Z" fill="#F7E0C6"/>
<path d="M919.492 4L911.936 11.2958L919.492 18.5916L927.048 11.2958L919.492 4Z" fill="#F7E0C6"/>
<path d="M53.1552 4L45.8594 11.2958L53.1552 18.5916L60.451 11.2958L53.1552 4Z" fill="#F7E0C6"/>
<path d="M539.85 4L532.554 11.2958L539.85 18.5916L547.145 11.2958L539.85 4Z" fill="#F7E0C6"/>
<path d="M1088 4L1080.7 11.2958L1088 18.5916L1095.29 11.2958L1088 4Z" fill="#F7E0C6"/>
<path d="M296.001 4L288.705 11.2958L296.001 18.5916L303.297 11.2958L296.001 4Z" fill="#F7E0C6"/>
<path d="M1330.84 4L1323.55 11.2958L1330.84 18.5916L1338.14 11.2958L1330.84 4Z" fill="#F7E0C6"/>
<path d="M1407.41 4L1400.11 11.2958L1407.41 18.5916L1414.7 11.2958L1407.41 4Z" fill="#F7E0C6"/>
<path d="M174.578 4L167.282 11.2958L174.578 18.5916L181.874 11.2958L174.578 4Z" fill="#F7E0C6"/>
<path d="M1209.42 4L1202.13 11.2958L1209.42 18.5916L1216.72 11.2958L1209.42 4Z" fill="#F7E0C6"/>
<path d="M22.6687 4L15.1123 11.2958L22.6687 18.5916L30.225 11.2958L22.6687 4Z" fill="#F7E0C6"/>
<path d="M509.364 4L501.808 11.2958L509.364 18.5916L516.92 11.2958L509.364 4Z" fill="#F7E0C6"/>
<path d="M1057.51 4L1049.96 11.2958L1057.51 18.5916L1065.07 11.2958L1057.51 4Z" fill="#F7E0C6"/>
<path d="M265.775 4L258.479 11.2958L265.775 18.5916L273.071 11.2958L265.775 4Z" fill="#F7E0C6"/>
<path d="M1300.62 4L1293.32 11.2958L1300.62 18.5916L1307.92 11.2958L1300.62 4Z" fill="#F7E0C6"/>
<path d="M1377.18 4L1369.89 11.2958L1377.18 18.5916L1384.48 11.2958L1377.18 4Z" fill="#F7E0C6"/>
<path d="M144.352 4L137.057 11.2958L144.352 18.5916L151.648 11.2958L144.352 4Z" fill="#F7E0C6"/>
<path d="M1179.2 4L1171.9 11.2958L1179.2 18.5916L1186.49 11.2958L1179.2 4Z" fill="#F7E0C6"/>
<path d="M387.198 4L379.902 11.2958L387.198 18.5916L394.494 11.2958L387.198 4Z" fill="#F7E0C6"/>
<path d="M873.893 4L866.598 11.2958L873.893 18.5916L881.189 11.2958L873.893 4Z" fill="#F7E0C6"/>
<path d="M463.283 4L455.987 11.2958L463.283 18.5916L470.579 11.2958L463.283 4Z" fill="#F7E0C6"/>
<path d="M1011.43 4L1004.14 11.2958L1011.43 18.5916L1018.73 11.2958L1011.43 4Z" fill="#F7E0C6"/>
<path d="M949.977 4L942.682 11.2958L949.977 18.5916L957.273 11.2958L949.977 4Z" fill="#F7E0C6"/>
<path d="M83.3808 4L76.085 11.2958L83.3808 18.5916L90.6765 11.2958L83.3808 4Z" fill="#F7E0C6"/>
<path d="M570.075 4L562.779 11.2958L570.075 18.5916L577.371 11.2958L570.075 4Z" fill="#F7E0C6"/>
<path d="M1118.22 4L1110.93 11.2958L1118.22 18.5916L1125.52 11.2958L1118.22 4Z" fill="#F7E0C6"/>
<path d="M326.487 4L318.931 11.2958L326.487 18.5916L334.043 11.2958L326.487 4Z" fill="#F7E0C6"/>
<path d="M1361.33 4L1353.77 11.2958L1361.33 18.5916L1368.89 11.2958L1361.33 4Z" fill="#F7E0C6"/>
<path d="M1437.89 4L1430.34 11.2958L1437.89 18.5916L1445.45 11.2958L1437.89 4Z" fill="#F7E0C6"/>
<path d="M402.311 4L395.016 11.2958L402.311 18.5916L409.607 11.2958L402.311 4Z" fill="#F7E0C6"/>
<path d="M889.006 4L881.71 11.2958L889.006 18.5916L896.302 11.2958L889.006 4Z" fill="#F7E0C6"/>
<path d="M204.804 4L197.508 11.2958L204.804 18.5916L212.099 11.2958L204.804 4Z" fill="#F7E0C6"/>
<path d="M1239.65 4L1232.35 11.2958L1239.65 18.5916L1246.94 11.2958L1239.65 4Z" fill="#F7E0C6"/>
<path d="M7.29581 4L0 11.2958L7.29581 18.5916L14.5916 11.2958L7.29581 4Z" fill="#F7E0C6"/>
<path d="M493.991 4L486.695 11.2958L493.991 18.5916L501.287 11.2958L493.991 4Z" fill="#F7E0C6"/>
<path d="M1042.14 4L1034.84 11.2958L1042.14 18.5916L1049.44 11.2958L1042.14 4Z" fill="#F7E0C6"/>
<path d="M250.663 4L243.367 11.2958L250.663 18.5916L257.959 11.2958L250.663 4Z" fill="#F7E0C6"/>
<path d="M1285.51 4L1278.21 11.2958L1285.51 18.5916L1292.8 11.2958L1285.51 4Z" fill="#F7E0C6"/>
<path d="M128.979 4L121.423 11.2958L128.979 18.5916L136.536 11.2958L128.979 4Z" fill="#F7E0C6"/>
<path d="M1163.82 4L1156.27 11.2958L1163.82 18.5916L1171.38 11.2958L1163.82 4Z" fill="#F7E0C6"/>
<path d="M372.086 4L364.79 11.2958L372.086 18.5916L379.382 11.2958L372.086 4Z" fill="#F7E0C6"/>
<path d="M448.17 4L440.874 11.2958L448.17 18.5916L455.466 11.2958L448.17 4Z" fill="#F7E0C6"/>
<path d="M996.319 4L989.023 11.2958L996.319 18.5916L1003.62 11.2958L996.319 4Z" fill="#F7E0C6"/>
<path d="M934.865 4L927.569 11.2958L934.865 18.5916L942.161 11.2958L934.865 4Z" fill="#F7E0C6"/>
<path d="M68.2675 4L60.9717 11.2958L68.2675 18.5916L75.5633 11.2958L68.2675 4Z" fill="#F7E0C6"/>
<path d="M554.963 4L547.667 11.2958L554.963 18.5916L562.259 11.2958L554.963 4Z" fill="#F7E0C6"/>
<path d="M1103.11 4L1095.82 11.2958L1103.11 18.5916L1110.41 11.2958L1103.11 4Z" fill="#F7E0C6"/>
<path d="M311.113 4L303.817 11.2958L311.113 18.5916L318.409 11.2958L311.113 4Z" fill="#F7E0C6"/>
<path d="M1345.96 4L1338.66 11.2958L1345.96 18.5916L1353.25 11.2958L1345.96 4Z" fill="#F7E0C6"/>
<path d="M1422.52 4L1415.23 11.2958L1422.52 18.5916L1429.82 11.2958L1422.52 4Z" fill="#F7E0C6"/>
<path d="M189.69 4L182.395 11.2958L189.69 18.5916L196.986 11.2958L189.69 4Z" fill="#F7E0C6"/>
<path d="M1224.54 4L1217.24 11.2958L1224.54 18.5916L1231.83 11.2958L1224.54 4Z" fill="#F7E0C6"/>
<path d="M37.782 4L30.2256 11.2958L37.782 18.5916L45.3383 11.2958L37.782 4Z" fill="#F7E0C6"/>
<path d="M524.476 4L516.92 11.2958L524.476 18.5916L532.033 11.2958L524.476 4Z" fill="#F7E0C6"/>
<path d="M1072.63 4L1065.07 11.2958L1072.63 18.5916L1080.18 11.2958L1072.63 4Z" fill="#F7E0C6"/>
<path d="M280.888 4L273.592 11.2958L280.888 18.5916L288.183 11.2958L280.888 4Z" fill="#F7E0C6"/>
<path d="M1315.73 4L1308.44 11.2958L1315.73 18.5916L1323.03 11.2958L1315.73 4Z" fill="#F7E0C6"/>
<path d="M1392.3 4L1385 11.2958L1392.3 18.5916L1399.59 11.2958L1392.3 4Z" fill="#F7E0C6"/>
<path d="M159.466 4L152.17 11.2958L159.466 18.5916L166.762 11.2958L159.466 4Z" fill="#F7E0C6"/>
<path d="M1194.31 4L1187.01 11.2958L1194.31 18.5916L1201.61 11.2958L1194.31 4Z" fill="#F7E0C6"/>
<path d="M98.4931 4L91.1973 11.2958L98.4931 18.5916L105.789 11.2958L98.4931 4Z" fill="#F7E0C6"/>
<path d="M1133.34 4L1126.04 11.2958L1133.34 18.5916L1140.63 11.2958L1133.34 4Z" fill="#F7E0C6"/>
<path d="M341.599 4L334.043 11.2958L341.599 18.5916L349.156 11.2958L341.599 4Z" fill="#F7E0C6"/>
<path d="M417.684 4L410.128 11.2958L417.684 18.5916L425.241 11.2958L417.684 4Z" fill="#F7E0C6"/>
<path d="M965.834 4L958.277 11.2958L965.834 18.5916L973.39 11.2958L965.834 4Z" fill="#F7E0C6"/>
<path d="M904.379 4L896.822 11.2958L904.379 18.5916L911.935 11.2958L904.379 4Z" fill="#F7E0C6"/>
<path d="M220.176 4L212.62 11.2958L220.176 18.5916L227.733 11.2958L220.176 4Z" fill="#F7E0C6"/>
<path d="M1255.02 4L1247.46 11.2958L1255.02 18.5916L1262.58 11.2958L1255.02 4Z" fill="#F7E0C6"/>
</svg>
