<svg width="300" height="120" viewBox="0 0 300 120" fill="none" xmlns="http://www.w3.org/2000/svg">
<path d="M156.452 37.332C156.527 37.164 156.648 37.0333 156.816 36.94C156.984 36.8467 157.395 36.8 158.048 36.8C158.197 36.8 158.412 36.8 158.692 36.8C158.991 36.7813 159.308 36.772 159.644 36.772C159.98 36.7533 160.316 36.7347 160.652 36.716C160.988 36.6973 161.277 36.6787 161.52 36.66C161.557 36.7533 161.576 36.8467 161.576 36.94C161.576 37.0333 161.576 37.108 161.576 37.164C161.576 37.4627 161.473 37.64 161.268 37.696C160.895 37.752 160.596 37.808 160.372 37.864C160.167 37.92 160.008 37.9947 159.896 38.088C159.784 38.1627 159.709 38.256 159.672 38.368C159.635 38.48 159.616 38.6107 159.616 38.76C159.616 38.7973 159.625 39.152 159.644 39.824C159.681 40.496 159.728 41.3267 159.784 42.316C159.84 43.3053 159.896 44.3787 159.952 45.536C160.008 46.6933 160.064 47.7947 160.12 48.84C160.176 49.8667 160.223 50.7627 160.26 51.528C160.297 52.2933 160.325 52.76 160.344 52.928C160.344 53.1147 160.363 53.2733 160.4 53.404C160.456 53.516 160.54 53.6187 160.652 53.712C160.783 53.8053 160.96 53.8893 161.184 53.964C161.408 54.02 161.697 54.076 162.052 54.132C162.257 54.1693 162.36 54.3467 162.36 54.664C162.36 54.7947 162.341 54.9533 162.304 55.14C161.651 55.1027 161.053 55.0653 160.512 55.028C159.989 55.0093 159.392 55 158.72 55C158.104 55 157.441 55.0093 156.732 55.028C156.041 55.0653 155.463 55.1027 154.996 55.14C154.959 54.9533 154.94 54.7947 154.94 54.664C154.94 54.4587 154.968 54.3187 155.024 54.244C155.099 54.1693 155.164 54.132 155.22 54.132C155.985 54.0013 156.48 53.852 156.704 53.684C156.928 53.4973 157.04 53.2173 157.04 52.844C157.04 52.788 157.021 52.4893 156.984 51.948C156.965 51.4067 156.937 50.7347 156.9 49.932C156.881 49.1293 156.844 48.2613 156.788 47.328C156.751 46.3947 156.704 45.5173 156.648 44.696C156.611 43.8747 156.573 43.1653 156.536 42.568C156.517 41.9707 156.499 41.6067 156.48 41.476L150.74 54.832C150.647 55 150.563 55.1213 150.488 55.196C150.432 55.2893 150.348 55.336 150.236 55.336C150.199 55.336 150.143 55.336 150.068 55.336C149.993 55.336 149.937 55.3267 149.9 55.308L143.404 39.74C143.385 39.9827 143.357 40.4773 143.32 41.224C143.301 41.952 143.264 42.792 143.208 43.744C143.171 44.696 143.124 45.704 143.068 46.768C143.031 47.8133 142.993 48.784 142.956 49.68C142.919 50.576 142.881 51.332 142.844 51.948C142.825 52.5453 142.816 52.872 142.816 52.928C142.816 53.096 142.835 53.2453 142.872 53.376C142.909 53.488 142.984 53.5907 143.096 53.684C143.208 53.7773 143.376 53.8613 143.6 53.936C143.824 53.992 144.132 54.0573 144.524 54.132C144.729 54.1693 144.832 54.3467 144.832 54.664C144.832 54.72 144.823 54.7947 144.804 54.888C144.804 54.9627 144.795 55.0467 144.776 55.14C144.272 55.1027 143.805 55.0653 143.376 55.028C142.947 55.0093 142.517 55 142.088 55C141.715 55 141.248 55.0093 140.688 55.028C140.128 55.0653 139.624 55.1027 139.176 55.14C139.139 55.0653 139.12 54.9813 139.12 54.888C139.12 54.7947 139.12 54.72 139.12 54.664C139.12 54.4587 139.148 54.328 139.204 54.272C139.26 54.1973 139.335 54.1507 139.428 54.132C140.007 54.0013 140.427 53.852 140.688 53.684C140.949 53.516 141.099 53.264 141.136 52.928C141.136 52.7787 141.155 52.3307 141.192 51.584C141.229 50.8187 141.276 49.9227 141.332 48.896C141.388 47.8507 141.444 46.7493 141.5 45.592C141.556 44.416 141.603 43.3333 141.64 42.344C141.696 41.336 141.733 40.496 141.752 39.824C141.789 39.152 141.808 38.7973 141.808 38.76C141.808 38.4427 141.705 38.2187 141.5 38.088C141.295 37.9387 140.847 37.808 140.156 37.696C139.951 37.6773 139.848 37.5 139.848 37.164C139.848 37.108 139.848 37.0333 139.848 36.94C139.848 36.8467 139.867 36.7533 139.904 36.66C140.147 36.6787 140.483 36.6973 140.912 36.716C141.341 36.7347 141.78 36.7533 142.228 36.772C142.676 36.772 143.096 36.7813 143.488 36.8C143.88 36.8 144.16 36.8 144.328 36.8C144.664 36.8 144.925 36.8187 145.112 36.856C145.299 36.8747 145.448 36.9027 145.56 36.94C145.672 36.9773 145.747 37.0333 145.784 37.108C145.84 37.1827 145.887 37.2573 145.924 37.332L151.132 49.904L156.452 37.332ZM175.727 54.132C176.007 54.132 176.147 54.3653 176.147 54.832C175.904 55 175.596 55.1213 175.223 55.196C174.868 55.2893 174.504 55.336 174.131 55.336C173.291 55.336 172.647 55.1307 172.199 54.72C171.751 54.3093 171.49 53.8333 171.415 53.292C171.042 54.0387 170.538 54.5707 169.903 54.888C169.287 55.1867 168.559 55.336 167.719 55.336C167.327 55.336 166.888 55.2987 166.403 55.224C165.936 55.168 165.498 55.0373 165.087 54.832C164.695 54.6267 164.359 54.3373 164.079 53.964C163.799 53.5907 163.659 53.096 163.659 52.48C163.659 51.7893 163.836 51.2013 164.191 50.716C164.546 50.2307 164.984 49.8293 165.507 49.512C166.048 49.176 166.636 48.9147 167.271 48.728C167.906 48.5227 168.503 48.3547 169.063 48.224C169.306 48.168 169.558 48.112 169.819 48.056C170.08 47.9813 170.286 47.9253 170.435 47.888C170.64 47.832 170.771 47.7573 170.827 47.664C170.883 47.552 170.911 47.2813 170.911 46.852C170.911 45.9 170.771 45.172 170.491 44.668C170.211 44.1453 169.735 43.884 169.063 43.884C168.522 43.884 168.13 44.052 167.887 44.388C167.663 44.724 167.448 45.256 167.243 45.984C167.187 46.1893 167.019 46.348 166.739 46.46C166.478 46.5533 166.142 46.656 165.731 46.768C165.507 46.824 165.274 46.8707 165.031 46.908C164.807 46.9453 164.602 46.964 164.415 46.964C164.303 46.964 164.228 46.9267 164.191 46.852C164.154 46.7587 164.135 46.5907 164.135 46.348C164.135 45.8813 164.303 45.424 164.639 44.976C164.994 44.528 165.432 44.136 165.955 43.8C166.478 43.4453 167.047 43.1653 167.663 42.96C168.298 42.7547 168.904 42.652 169.483 42.652C170.174 42.652 170.799 42.7173 171.359 42.848C171.919 42.96 172.395 43.1747 172.787 43.492C173.198 43.7907 173.515 44.2013 173.739 44.724C173.963 45.228 174.075 45.8813 174.075 46.684V51.612C174.075 52.2653 174.084 52.7413 174.103 53.04C174.14 53.3387 174.196 53.5627 174.271 53.712C174.439 54.048 174.7 54.216 175.055 54.216C175.204 54.216 175.326 54.2067 175.419 54.188C175.531 54.1507 175.634 54.132 175.727 54.132ZM170.911 48.896L170.295 49.008C169.866 49.0827 169.464 49.1947 169.091 49.344C168.718 49.4747 168.391 49.6613 168.111 49.904C167.85 50.128 167.635 50.4173 167.467 50.772C167.318 51.108 167.243 51.5187 167.243 52.004C167.243 52.732 167.355 53.2453 167.579 53.544C167.822 53.824 168.167 53.964 168.615 53.964C169.324 53.964 169.884 53.7027 170.295 53.18C170.706 52.6573 170.911 51.9293 170.911 50.996V48.896ZM183.915 53.18C184.101 53.068 184.26 53.012 184.391 53.012C184.577 53.012 184.773 53.208 184.979 53.6C184.195 54.3093 183.504 54.776 182.907 55C182.328 55.224 181.712 55.336 181.059 55.336C180.685 55.336 180.321 55.2893 179.967 55.196C179.631 55.1027 179.323 54.9347 179.043 54.692C178.763 54.4493 178.539 54.1227 178.371 53.712C178.203 53.2827 178.119 52.7413 178.119 52.088V44.388H176.439V43.688C176.439 43.6133 176.457 43.52 176.495 43.408C176.532 43.296 176.644 43.24 176.831 43.24C177.335 43.24 177.801 43.1 178.231 42.82C178.66 42.5213 179.005 42.0827 179.267 41.504C179.472 41.0747 179.696 40.7293 179.939 40.468C180.2 40.2067 180.452 40.076 180.695 40.076H181.283V42.988H184.559C184.559 43.5853 184.512 43.968 184.419 44.136C184.344 44.304 184.195 44.388 183.971 44.388H181.283V51.304C181.283 51.864 181.301 52.312 181.339 52.648C181.376 52.9653 181.432 53.208 181.507 53.376C181.6 53.544 181.712 53.656 181.843 53.712C181.992 53.7493 182.16 53.768 182.347 53.768C182.552 53.768 182.795 53.7213 183.075 53.628C183.355 53.516 183.635 53.3667 183.915 53.18ZM195.954 52.424C196.122 52.2933 196.272 52.228 196.402 52.228C196.496 52.228 196.598 52.2747 196.71 52.368C196.841 52.4427 196.972 52.6013 197.102 52.844C196.374 53.7027 195.534 54.3373 194.582 54.748C193.649 55.14 192.538 55.336 191.25 55.336C190.522 55.336 189.804 55.224 189.094 55C188.404 54.7573 187.778 54.3933 187.218 53.908C186.658 53.404 186.201 52.7787 185.846 52.032C185.51 51.2853 185.342 50.3893 185.342 49.344C185.342 48.3173 185.538 47.3933 185.93 46.572C186.341 45.732 186.854 45.0227 187.47 44.444C188.086 43.8653 188.758 43.4267 189.486 43.128C190.214 42.8107 190.914 42.652 191.586 42.652C193.397 42.652 194.76 43.1747 195.674 44.22C196.608 45.2653 197.074 46.6933 197.074 48.504C197.074 48.6347 197.009 48.7 196.878 48.7L188.842 49.036C188.842 50.492 189.169 51.612 189.822 52.396C190.476 53.1613 191.456 53.544 192.762 53.544C193.341 53.544 193.91 53.4507 194.47 53.264C195.03 53.0773 195.525 52.7973 195.954 52.424ZM191.166 43.884C190.438 43.884 189.85 44.2013 189.402 44.836C188.973 45.452 188.758 46.432 188.758 47.776L193.126 47.58C193.406 47.5613 193.546 47.44 193.546 47.216C193.546 46.8613 193.5 46.488 193.406 46.096C193.313 45.704 193.164 45.3493 192.958 45.032C192.772 44.696 192.529 44.4253 192.23 44.22C191.932 43.996 191.577 43.884 191.166 43.884ZM207.165 42.68C207.707 42.68 208.108 42.82 208.369 43.1C208.649 43.38 208.789 43.7347 208.789 44.164C208.789 44.2947 208.761 44.4067 208.705 44.5C208.668 44.5933 208.565 44.696 208.397 44.808C208.248 44.92 208.033 45.0507 207.753 45.2C207.473 45.3307 207.109 45.4987 206.661 45.704C206.363 45.4053 206.083 45.2093 205.821 45.116C205.579 45.004 205.336 44.948 205.093 44.948C204.869 44.948 204.645 44.9853 204.421 45.06C204.216 45.1347 204.029 45.284 203.861 45.508C203.693 45.7133 203.553 45.9933 203.441 46.348C203.348 46.7027 203.301 47.16 203.301 47.72V52.928C203.301 53.3013 203.451 53.5813 203.749 53.768C204.048 53.936 204.636 54.0947 205.513 54.244C205.719 54.2813 205.821 54.4027 205.821 54.608C205.821 54.8693 205.803 55.0467 205.765 55.14C205.523 55.1213 205.224 55.1027 204.869 55.084C204.515 55.084 204.141 55.0747 203.749 55.056C203.357 55.0373 202.965 55.0187 202.573 55C202.2 55 201.864 55 201.565 55C200.856 55 200.249 55.0093 199.745 55.028C199.241 55.0653 198.765 55.1027 198.317 55.14C198.28 55.0467 198.261 54.8693 198.261 54.608C198.261 54.4027 198.364 54.2813 198.569 54.244C199.167 54.132 199.577 54.0107 199.801 53.88C200.025 53.7493 200.137 53.544 200.137 53.264V45.732C200.137 45.3027 200.053 44.9573 199.885 44.696C199.736 44.4347 199.297 44.2573 198.569 44.164C198.308 44.1267 198.177 43.9867 198.177 43.744C198.177 43.688 198.177 43.6133 198.177 43.52C198.177 43.4267 198.196 43.352 198.233 43.296C198.345 43.296 198.504 43.296 198.709 43.296C198.915 43.2773 199.139 43.268 199.381 43.268C199.624 43.2493 199.867 43.2307 200.109 43.212C200.352 43.1933 200.567 43.1653 200.753 43.128C201.164 43.072 201.584 43.0067 202.013 42.932C202.461 42.8387 202.76 42.792 202.909 42.792C203.171 42.792 203.301 42.932 203.301 43.212V44.724C203.955 44.0147 204.58 43.5013 205.177 43.184C205.775 42.848 206.437 42.68 207.165 42.68ZM212.575 55C211.847 55 211.222 55.0093 210.699 55.028C210.176 55.0653 209.672 55.1027 209.187 55.14C209.15 54.9533 209.131 54.776 209.131 54.608C209.131 54.4773 209.159 54.3933 209.215 54.356C209.29 54.3 209.364 54.2627 209.439 54.244C210.036 54.132 210.447 54.0107 210.671 53.88C210.895 53.7493 211.007 53.544 211.007 53.264V45.872C211.007 45.312 210.914 44.8827 210.727 44.584C210.54 44.2853 210.102 44.108 209.411 44.052C209.168 44.0147 209.047 43.8653 209.047 43.604C209.047 43.548 209.047 43.4827 209.047 43.408C209.047 43.3147 209.066 43.2307 209.103 43.156C209.215 43.156 209.374 43.156 209.579 43.156C209.803 43.1373 210.036 43.128 210.279 43.128C210.522 43.1093 210.764 43.0907 211.007 43.072C211.25 43.0533 211.474 43.0347 211.679 43.016C212.146 42.96 212.594 42.8853 213.023 42.792C213.452 42.6987 213.742 42.652 213.891 42.652C214.19 42.652 214.339 42.792 214.339 43.072C214.339 43.2773 214.311 43.548 214.255 43.884C214.199 44.22 214.171 44.6867 214.171 45.284V53.264C214.171 53.544 214.292 53.7493 214.535 53.88C214.778 54.0107 215.179 54.132 215.739 54.244C215.944 54.2813 216.047 54.4027 216.047 54.608C216.047 54.7013 216.047 54.7947 216.047 54.888C216.047 54.9813 216.028 55.0653 215.991 55.14C215.524 55.1027 215.02 55.0653 214.479 55.028C213.938 55.0093 213.303 55 212.575 55ZM210.531 38.564C210.531 37.9667 210.718 37.4813 211.091 37.108C211.483 36.716 211.968 36.52 212.547 36.52C213.144 36.52 213.63 36.716 214.003 37.108C214.376 37.4813 214.563 37.9667 214.563 38.564C214.563 39.1613 214.376 39.656 214.003 40.048C213.63 40.4213 213.144 40.608 212.547 40.608C211.968 40.608 211.483 40.4213 211.091 40.048C210.718 39.656 210.531 39.1613 210.531 38.564ZM229.2 54.132C229.48 54.132 229.62 54.3653 229.62 54.832C229.378 55 229.07 55.1213 228.696 55.196C228.342 55.2893 227.978 55.336 227.604 55.336C226.764 55.336 226.12 55.1307 225.672 54.72C225.224 54.3093 224.963 53.8333 224.888 53.292C224.515 54.0387 224.011 54.5707 223.376 54.888C222.76 55.1867 222.032 55.336 221.192 55.336C220.8 55.336 220.362 55.2987 219.876 55.224C219.41 55.168 218.971 55.0373 218.56 54.832C218.168 54.6267 217.832 54.3373 217.552 53.964C217.272 53.5907 217.132 53.096 217.132 52.48C217.132 51.7893 217.31 51.2013 217.664 50.716C218.019 50.2307 218.458 49.8293 218.98 49.512C219.522 49.176 220.11 48.9147 220.744 48.728C221.379 48.5227 221.976 48.3547 222.536 48.224C222.779 48.168 223.031 48.112 223.292 48.056C223.554 47.9813 223.759 47.9253 223.908 47.888C224.114 47.832 224.244 47.7573 224.3 47.664C224.356 47.552 224.384 47.2813 224.384 46.852C224.384 45.9 224.244 45.172 223.964 44.668C223.684 44.1453 223.208 43.884 222.536 43.884C221.995 43.884 221.603 44.052 221.36 44.388C221.136 44.724 220.922 45.256 220.716 45.984C220.66 46.1893 220.492 46.348 220.212 46.46C219.951 46.5533 219.615 46.656 219.204 46.768C218.98 46.824 218.747 46.8707 218.504 46.908C218.28 46.9453 218.075 46.964 217.888 46.964C217.776 46.964 217.702 46.9267 217.664 46.852C217.627 46.7587 217.608 46.5907 217.608 46.348C217.608 45.8813 217.776 45.424 218.112 44.976C218.467 44.528 218.906 44.136 219.428 43.8C219.951 43.4453 220.52 43.1653 221.136 42.96C221.771 42.7547 222.378 42.652 222.956 42.652C223.647 42.652 224.272 42.7173 224.832 42.848C225.392 42.96 225.868 43.1747 226.26 43.492C226.671 43.7907 226.988 44.2013 227.212 44.724C227.436 45.228 227.548 45.8813 227.548 46.684V51.612C227.548 52.2653 227.558 52.7413 227.576 53.04C227.614 53.3387 227.67 53.5627 227.744 53.712C227.912 54.048 228.174 54.216 228.528 54.216C228.678 54.216 228.799 54.2067 228.892 54.188C229.004 54.1507 229.107 54.132 229.2 54.132ZM224.384 48.896L223.768 49.008C223.339 49.0827 222.938 49.1947 222.564 49.344C222.191 49.4747 221.864 49.6613 221.584 49.904C221.323 50.128 221.108 50.4173 220.94 50.772C220.791 51.108 220.716 51.5187 220.716 52.004C220.716 52.732 220.828 53.2453 221.052 53.544C221.295 53.824 221.64 53.964 222.088 53.964C222.798 53.964 223.358 53.7027 223.768 53.18C224.179 52.6573 224.384 51.9293 224.384 50.996V48.896ZM236.965 55.14C236.48 55.1027 235.92 55.0653 235.285 55.028C234.669 55.0093 234.09 55 233.549 55C232.952 55 232.354 55.0093 231.757 55.028C231.178 55.0653 230.646 55.1027 230.161 55.14C230.142 55.0653 230.124 54.9907 230.105 54.916C230.105 54.8227 230.105 54.72 230.105 54.608C230.105 54.4773 230.133 54.3933 230.189 54.356C230.264 54.3 230.338 54.2627 230.413 54.244C231.01 54.132 231.421 54.0107 231.645 53.88C231.869 53.7493 231.981 53.544 231.981 53.264V38.592C231.981 38.032 231.878 37.612 231.673 37.332C231.468 37.0333 231.038 36.856 230.385 36.8C230.142 36.744 230.021 36.5947 230.021 36.352C230.021 36.296 230.021 36.2213 230.021 36.128C230.021 36.0347 230.04 35.96 230.077 35.904C230.189 35.904 230.348 35.904 230.553 35.904C230.777 35.8853 231.01 35.876 231.253 35.876C231.496 35.8573 231.738 35.8387 231.981 35.82C232.224 35.8013 232.448 35.7827 232.653 35.764C233.12 35.708 233.568 35.6333 233.997 35.54C234.426 35.4467 234.716 35.4 234.865 35.4C235.164 35.4 235.313 35.54 235.313 35.82C235.313 36.0253 235.285 36.296 235.229 36.632C235.173 36.9493 235.145 37.4067 235.145 38.004V53.264C235.145 53.544 235.257 53.7493 235.481 53.88C235.705 54.0107 236.116 54.132 236.713 54.244C236.918 54.2813 237.021 54.4027 237.021 54.608C237.021 54.8693 237.002 55.0467 236.965 55.14ZM248.635 52.424C248.803 52.2933 248.952 52.228 249.083 52.228C249.176 52.228 249.279 52.2747 249.391 52.368C249.521 52.4427 249.652 52.6013 249.783 52.844C249.055 53.7027 248.215 54.3373 247.263 54.748C246.329 55.14 245.219 55.336 243.931 55.336C243.203 55.336 242.484 55.224 241.775 55C241.084 54.7573 240.459 54.3933 239.899 53.908C239.339 53.404 238.881 52.7787 238.527 52.032C238.191 51.2853 238.023 50.3893 238.023 49.344C238.023 48.3173 238.219 47.3933 238.611 46.572C239.021 45.732 239.535 45.0227 240.151 44.444C240.767 43.8653 241.439 43.4267 242.167 43.128C242.895 42.8107 243.595 42.652 244.267 42.652C246.077 42.652 247.44 43.1747 248.355 44.22C249.288 45.2653 249.755 46.6933 249.755 48.504C249.755 48.6347 249.689 48.7 249.559 48.7L241.523 49.036C241.523 50.492 241.849 51.612 242.503 52.396C243.156 53.1613 244.136 53.544 245.443 53.544C246.021 53.544 246.591 53.4507 247.151 53.264C247.711 53.0773 248.205 52.7973 248.635 52.424ZM243.847 43.884C243.119 43.884 242.531 44.2013 242.083 44.836C241.653 45.452 241.439 46.432 241.439 47.776L245.807 47.58C246.087 47.5613 246.227 47.44 246.227 47.216C246.227 46.8613 246.18 46.488 246.087 46.096C245.993 45.704 245.844 45.3493 245.639 45.032C245.452 44.696 245.209 44.4253 244.911 44.22C244.612 43.996 244.257 43.884 243.847 43.884ZM263.681 53.18C263.868 53.068 264.026 53.012 264.157 53.012C264.344 53.012 264.54 53.208 264.745 53.6C263.961 54.3093 263.27 54.776 262.673 55C262.094 55.224 261.478 55.336 260.825 55.336C260.452 55.336 260.088 55.2893 259.733 55.196C259.397 55.1027 259.089 54.9347 258.809 54.692C258.529 54.4493 258.305 54.1227 258.137 53.712C257.969 53.2827 257.885 52.7413 257.885 52.088V44.388H256.205V43.688C256.205 43.6133 256.224 43.52 256.261 43.408C256.298 43.296 256.41 43.24 256.597 43.24C257.101 43.24 257.568 43.1 257.997 42.82C258.426 42.5213 258.772 42.0827 259.033 41.504C259.238 41.0747 259.462 40.7293 259.705 40.468C259.966 40.2067 260.218 40.076 260.461 40.076H261.049V42.988H264.325C264.325 43.5853 264.278 43.968 264.185 44.136C264.11 44.304 263.961 44.388 263.737 44.388H261.049V51.304C261.049 51.864 261.068 52.312 261.105 52.648C261.142 52.9653 261.198 53.208 261.273 53.376C261.366 53.544 261.478 53.656 261.609 53.712C261.758 53.7493 261.926 53.768 262.113 53.768C262.318 53.768 262.561 53.7213 262.841 53.628C263.121 53.516 263.401 53.3667 263.681 53.18ZM275.72 52.424C275.888 52.2933 276.038 52.228 276.168 52.228C276.262 52.228 276.364 52.2747 276.476 52.368C276.607 52.4427 276.738 52.6013 276.868 52.844C276.14 53.7027 275.3 54.3373 274.348 54.748C273.415 55.14 272.304 55.336 271.016 55.336C270.288 55.336 269.57 55.224 268.86 55C268.17 54.7573 267.544 54.3933 266.984 53.908C266.424 53.404 265.967 52.7787 265.612 52.032C265.276 51.2853 265.108 50.3893 265.108 49.344C265.108 48.3173 265.304 47.3933 265.696 46.572C266.107 45.732 266.62 45.0227 267.236 44.444C267.852 43.8653 268.524 43.4267 269.252 43.128C269.98 42.8107 270.68 42.652 271.352 42.652C273.163 42.652 274.526 43.1747 275.44 44.22C276.374 45.2653 276.84 46.6933 276.84 48.504C276.84 48.6347 276.775 48.7 276.644 48.7L268.608 49.036C268.608 50.492 268.935 51.612 269.588 52.396C270.242 53.1613 271.222 53.544 272.528 53.544C273.107 53.544 273.676 53.4507 274.236 53.264C274.796 53.0773 275.291 52.7973 275.72 52.424ZM270.932 43.884C270.204 43.884 269.616 44.2013 269.168 44.836C268.739 45.452 268.524 46.432 268.524 47.776L272.892 47.58C273.172 47.5613 273.312 47.44 273.312 47.216C273.312 46.8613 273.266 46.488 273.172 46.096C273.079 45.704 272.93 45.3493 272.724 45.032C272.538 44.696 272.295 44.4253 271.996 44.22C271.698 43.996 271.343 43.884 270.932 43.884ZM270.484 38.396C270.484 38.9187 270.316 39.3573 269.98 39.712C269.663 40.048 269.262 40.216 268.776 40.216C268.254 40.216 267.815 40.048 267.46 39.712C267.106 39.3573 266.928 38.9187 266.928 38.396C266.928 37.9107 267.106 37.4813 267.46 37.108C267.815 36.7347 268.254 36.548 268.776 36.548C269.262 36.548 269.663 36.7347 269.98 37.108C270.316 37.4813 270.484 37.9107 270.484 38.396ZM276 38.396C276 38.9187 275.832 39.3573 275.496 39.712C275.179 40.048 274.778 40.216 274.292 40.216C273.751 40.216 273.303 40.048 272.948 39.712C272.612 39.3573 272.444 38.9187 272.444 38.396C272.444 37.9107 272.612 37.4813 272.948 37.108C273.303 36.7347 273.751 36.548 274.292 36.548C274.778 36.548 275.179 36.7347 275.496 37.108C275.832 37.4813 276 37.9107 276 38.396ZM151.412 91.012C151.412 91.292 151.477 91.488 151.608 91.6C151.757 91.7307 152.103 91.852 152.644 91.964C152.849 92.0013 152.952 92.1227 152.952 92.328C152.952 92.496 152.933 92.6733 152.896 92.86C152.392 92.8227 151.832 92.7853 151.216 92.748C150.619 92.7293 149.993 92.72 149.34 92.72C148.612 92.72 147.875 92.7293 147.128 92.748C146.381 92.7853 145.775 92.8227 145.308 92.86C145.271 92.7853 145.252 92.692 145.252 92.58C145.252 92.4867 145.252 92.4027 145.252 92.328C145.252 92.1787 145.289 92.076 145.364 92.02C145.439 91.9827 145.523 91.9547 145.616 91.936C146.232 91.8613 146.717 91.7773 147.072 91.684C147.427 91.6093 147.688 91.516 147.856 91.404C148.024 91.292 148.127 91.152 148.164 90.984C148.22 90.8347 148.248 90.648 148.248 90.424V84.068C148.005 84.404 147.753 84.712 147.492 84.992C147.231 85.272 146.932 85.5147 146.596 85.72C146.279 85.9067 145.915 86.056 145.504 86.168C145.093 86.28 144.627 86.336 144.104 86.336C143.376 86.336 142.695 86.2053 142.06 85.944C141.444 85.6827 140.903 85.3 140.436 84.796C139.969 84.2733 139.605 83.6387 139.344 82.892C139.083 82.1453 138.952 81.296 138.952 80.344C138.952 79.3173 139.148 78.3933 139.54 77.572C139.932 76.732 140.436 76.0227 141.052 75.444C141.668 74.8653 142.34 74.4267 143.068 74.128C143.815 73.8107 144.524 73.652 145.196 73.652C145.812 73.652 146.465 73.7453 147.156 73.932C147.847 74.1 148.584 74.352 149.368 74.688C149.592 74.6507 149.788 74.5853 149.956 74.492C150.143 74.3987 150.301 74.3053 150.432 74.212C150.581 74.1 150.703 74.0067 150.796 73.932C150.908 73.8573 151.001 73.82 151.076 73.82C151.188 73.82 151.281 73.8387 151.356 73.876C151.449 73.8947 151.524 73.9133 151.58 73.932C151.468 74.9773 151.412 75.9667 151.412 76.9V91.012ZM148.248 76.228C147.464 75.332 146.493 74.884 145.336 74.884C144.365 74.884 143.647 75.3133 143.18 76.172C142.713 77.0307 142.48 78.188 142.48 79.644C142.48 80.3533 142.536 81.0253 142.648 81.66C142.779 82.276 142.965 82.8173 143.208 83.284C143.451 83.732 143.759 84.0867 144.132 84.348C144.524 84.6093 144.991 84.74 145.532 84.74C145.868 84.74 146.195 84.6373 146.512 84.432C146.848 84.208 147.137 83.928 147.38 83.592C147.641 83.256 147.847 82.8733 147.996 82.444C148.164 82.0147 148.248 81.5853 148.248 81.156V76.228ZM164.535 83.424C164.703 83.2933 164.853 83.228 164.983 83.228C165.077 83.228 165.179 83.2747 165.291 83.368C165.422 83.4427 165.553 83.6013 165.683 83.844C164.955 84.7027 164.115 85.3373 163.163 85.748C162.23 86.14 161.119 86.336 159.831 86.336C159.103 86.336 158.385 86.224 157.675 86C156.985 85.7573 156.359 85.3933 155.799 84.908C155.239 84.404 154.782 83.7787 154.427 83.032C154.091 82.2853 153.923 81.3893 153.923 80.344C153.923 79.3173 154.119 78.3933 154.511 77.572C154.922 76.732 155.435 76.0227 156.051 75.444C156.667 74.8653 157.339 74.4267 158.067 74.128C158.795 73.8107 159.495 73.652 160.167 73.652C161.978 73.652 163.341 74.1747 164.255 75.22C165.189 76.2653 165.655 77.6933 165.655 79.504C165.655 79.6347 165.59 79.7 165.459 79.7L157.423 80.036C157.423 81.492 157.75 82.612 158.403 83.396C159.057 84.1613 160.037 84.544 161.343 84.544C161.922 84.544 162.491 84.4507 163.051 84.264C163.611 84.0773 164.106 83.7973 164.535 83.424ZM159.747 74.884C159.019 74.884 158.431 75.2013 157.983 75.836C157.554 76.452 157.339 77.432 157.339 78.776L161.707 78.58C161.987 78.5613 162.127 78.44 162.127 78.216C162.127 77.8613 162.081 77.488 161.987 77.096C161.894 76.704 161.745 76.3493 161.539 76.032C161.353 75.696 161.11 75.4253 160.811 75.22C160.513 74.996 160.158 74.884 159.747 74.884ZM159.299 69.396C159.299 69.9187 159.131 70.3573 158.795 70.712C158.478 71.048 158.077 71.216 157.591 71.216C157.069 71.216 156.63 71.048 156.275 70.712C155.921 70.3573 155.743 69.9187 155.743 69.396C155.743 68.9107 155.921 68.4813 156.275 68.108C156.63 67.7347 157.069 67.548 157.591 67.548C158.077 67.548 158.478 67.7347 158.795 68.108C159.131 68.4813 159.299 68.9107 159.299 69.396ZM164.815 69.396C164.815 69.9187 164.647 70.3573 164.311 70.712C163.994 71.048 163.593 71.216 163.107 71.216C162.566 71.216 162.118 71.048 161.763 70.712C161.427 70.3573 161.259 69.9187 161.259 69.396C161.259 68.9107 161.427 68.4813 161.763 68.108C162.118 67.7347 162.566 67.548 163.107 67.548C163.593 67.548 163.994 67.7347 164.311 68.108C164.647 68.4813 164.815 68.9107 164.815 69.396ZM179.806 84.292C179.806 84.5533 179.918 84.7587 180.142 84.908C180.366 85.0387 180.777 85.1507 181.374 85.244C181.449 85.2627 181.514 85.3 181.57 85.356C181.645 85.3933 181.682 85.4773 181.682 85.608C181.682 85.72 181.673 85.8227 181.654 85.916C181.654 85.9907 181.645 86.0653 181.626 86.14C181.141 86.1027 180.656 86.0653 180.17 86.028C179.685 86.0093 179.078 86 178.35 86C177.753 86 177.193 86.0093 176.67 86.028C176.148 86.0653 175.644 86.1027 175.158 86.14C175.121 86.0467 175.102 85.8693 175.102 85.608C175.102 85.4027 175.205 85.2813 175.41 85.244C175.896 85.1507 176.222 85.0387 176.39 84.908C176.558 84.7773 176.642 84.572 176.642 84.292V78.804C176.642 77.7027 176.502 76.9467 176.222 76.536C175.961 76.1067 175.532 75.892 174.934 75.892C174.094 75.892 173.376 76.1813 172.778 76.76C172.181 77.32 171.882 78.16 171.882 79.28V84.292C171.882 84.572 171.966 84.7773 172.134 84.908C172.302 85.0387 172.629 85.1507 173.114 85.244C173.32 85.2813 173.422 85.4027 173.422 85.608C173.422 85.8693 173.404 86.0467 173.366 86.14C172.881 86.1027 172.377 86.0653 171.854 86.028C171.332 86.0093 170.772 86 170.174 86C169.446 86 168.83 86.0093 168.326 86.028C167.841 86.0653 167.365 86.1027 166.898 86.14C166.88 86.0653 166.861 85.9907 166.842 85.916C166.842 85.8227 166.842 85.72 166.842 85.608C166.842 85.4773 166.87 85.3933 166.926 85.356C167.001 85.3 167.076 85.2627 167.15 85.244C167.748 85.132 168.158 85.0107 168.382 84.88C168.606 84.7493 168.718 84.544 168.718 84.264V76.872C168.718 76.312 168.616 75.8827 168.41 75.584C168.205 75.2853 167.776 75.108 167.122 75.052C166.88 74.996 166.758 74.8467 166.758 74.604C166.758 74.548 166.758 74.4827 166.758 74.408C166.758 74.3147 166.777 74.2307 166.814 74.156C166.926 74.156 167.085 74.156 167.29 74.156C167.514 74.1373 167.748 74.128 167.99 74.128C168.233 74.1093 168.476 74.0907 168.718 74.072C168.961 74.0533 169.185 74.0347 169.39 74.016C169.857 73.96 170.305 73.8853 170.734 73.792C171.164 73.6987 171.453 73.652 171.602 73.652C171.901 73.652 172.05 73.792 172.05 74.072C172.05 74.2773 172.022 74.548 171.966 74.884C171.91 75.22 171.882 75.6867 171.882 76.284C172.48 75.5 173.142 74.8653 173.87 74.38C174.598 73.8947 175.354 73.652 176.138 73.652C177.277 73.652 178.173 73.9693 178.826 74.604C179.48 75.2387 179.806 76.1907 179.806 77.46V84.292ZM195.123 83.396C195.123 83.62 195.132 83.816 195.151 83.984C195.169 84.1333 195.225 84.264 195.319 84.376C195.412 84.488 195.552 84.5813 195.739 84.656C195.925 84.712 196.177 84.7587 196.495 84.796C196.756 84.8333 196.887 84.9547 196.887 85.16C196.887 85.2533 196.887 85.3467 196.887 85.44C196.887 85.5333 196.868 85.608 196.831 85.664C196.588 85.664 196.205 85.6827 195.683 85.72C195.179 85.7387 194.749 85.776 194.395 85.832C193.984 85.888 193.573 85.9533 193.163 86.028C192.771 86.1213 192.5 86.168 192.351 86.168C192.183 86.168 192.071 86.1307 192.015 86.056C191.977 86 191.959 85.8973 191.959 85.748V84.068C191.716 84.404 191.464 84.712 191.203 84.992C190.941 85.272 190.643 85.5147 190.307 85.72C189.989 85.9067 189.625 86.056 189.215 86.168C188.804 86.28 188.337 86.336 187.815 86.336C187.087 86.336 186.405 86.2053 185.771 85.944C185.155 85.6827 184.613 85.3 184.147 84.796C183.68 84.2733 183.316 83.6387 183.055 82.892C182.793 82.1453 182.663 81.296 182.663 80.344C182.663 79.3173 182.859 78.3933 183.251 77.572C183.661 76.732 184.175 76.0227 184.791 75.444C185.407 74.8653 186.079 74.4267 186.807 74.128C187.535 73.8107 188.235 73.652 188.907 73.652C189.448 73.652 189.943 73.708 190.391 73.82C190.857 73.9133 191.38 74.0533 191.959 74.24V69.592C191.959 69.0133 191.865 68.5933 191.679 68.332C191.492 68.052 191.053 67.8747 190.363 67.8C190.251 67.7627 190.157 67.716 190.083 67.66C190.008 67.604 189.971 67.5013 189.971 67.352C189.971 67.24 189.989 67.0907 190.027 66.904C190.157 66.904 190.325 66.904 190.531 66.904C190.736 66.8853 190.96 66.876 191.203 66.876C191.445 66.8573 191.688 66.8387 191.931 66.82C192.173 66.8013 192.397 66.7827 192.603 66.764C193.088 66.708 193.536 66.6333 193.947 66.54C194.376 66.4467 194.665 66.4 194.815 66.4C195.132 66.4 195.291 66.54 195.291 66.82C195.291 67.1747 195.263 67.5853 195.207 68.052C195.151 68.5 195.123 69.0227 195.123 69.62V83.396ZM191.959 76.172C191.1 75.3133 190.129 74.884 189.047 74.884C188.076 74.884 187.357 75.3133 186.891 76.172C186.424 77.012 186.191 78.1693 186.191 79.644C186.191 80.3533 186.247 81.0253 186.359 81.66C186.489 82.276 186.676 82.8173 186.919 83.284C187.161 83.732 187.469 84.0867 187.843 84.348C188.235 84.6093 188.701 84.74 189.243 84.74C189.579 84.74 189.905 84.6373 190.223 84.432C190.559 84.208 190.848 83.928 191.091 83.592C191.352 83.256 191.557 82.8733 191.707 82.444C191.875 82.0147 191.959 81.5853 191.959 81.156V76.172ZM206.837 73.68C207.379 73.68 207.78 73.82 208.041 74.1C208.321 74.38 208.461 74.7347 208.461 75.164C208.461 75.2947 208.433 75.4067 208.377 75.5C208.34 75.5933 208.237 75.696 208.069 75.808C207.92 75.92 207.705 76.0507 207.425 76.2C207.145 76.3307 206.781 76.4987 206.333 76.704C206.035 76.4053 205.755 76.2093 205.493 76.116C205.251 76.004 205.008 75.948 204.765 75.948C204.541 75.948 204.317 75.9853 204.093 76.06C203.888 76.1347 203.701 76.284 203.533 76.508C203.365 76.7133 203.225 76.9933 203.113 77.348C203.02 77.7027 202.973 78.16 202.973 78.72V83.928C202.973 84.3013 203.123 84.5813 203.421 84.768C203.72 84.936 204.308 85.0947 205.185 85.244C205.391 85.2813 205.493 85.4027 205.493 85.608C205.493 85.8693 205.475 86.0467 205.437 86.14C205.195 86.1213 204.896 86.1027 204.541 86.084C204.187 86.084 203.813 86.0747 203.421 86.056C203.029 86.0373 202.637 86.0187 202.245 86C201.872 86 201.536 86 201.237 86C200.528 86 199.921 86.0093 199.417 86.028C198.913 86.0653 198.437 86.1027 197.989 86.14C197.952 86.0467 197.933 85.8693 197.933 85.608C197.933 85.4027 198.036 85.2813 198.241 85.244C198.839 85.132 199.249 85.0107 199.473 84.88C199.697 84.7493 199.809 84.544 199.809 84.264V76.732C199.809 76.3027 199.725 75.9573 199.557 75.696C199.408 75.4347 198.969 75.2573 198.241 75.164C197.98 75.1267 197.849 74.9867 197.849 74.744C197.849 74.688 197.849 74.6133 197.849 74.52C197.849 74.4267 197.868 74.352 197.905 74.296C198.017 74.296 198.176 74.296 198.381 74.296C198.587 74.2773 198.811 74.268 199.053 74.268C199.296 74.2493 199.539 74.2307 199.781 74.212C200.024 74.1933 200.239 74.1653 200.425 74.128C200.836 74.072 201.256 74.0067 201.685 73.932C202.133 73.8387 202.432 73.792 202.581 73.792C202.843 73.792 202.973 73.932 202.973 74.212V75.724C203.627 75.0147 204.252 74.5013 204.849 74.184C205.447 73.848 206.109 73.68 206.837 73.68ZM210.427 76.452C210.427 76.004 210.352 75.6773 210.203 75.472C210.072 75.2667 209.69 75.1267 209.055 75.052C208.794 74.996 208.663 74.8653 208.663 74.66C208.663 74.604 208.663 74.5293 208.663 74.436C208.663 74.3427 208.682 74.2493 208.719 74.156C208.831 74.156 208.99 74.156 209.195 74.156C209.4 74.1373 209.615 74.128 209.839 74.128C210.063 74.1093 210.287 74.0907 210.511 74.072C210.754 74.0533 210.968 74.0253 211.155 73.988C211.584 73.932 211.995 73.8667 212.387 73.792C212.779 73.6987 213.05 73.652 213.199 73.652C213.367 73.652 213.47 73.6893 213.507 73.764C213.563 73.8387 213.591 73.9413 213.591 74.072V81.24C213.591 82.3227 213.722 83.0787 213.983 83.508C214.263 83.9187 214.702 84.124 215.299 84.124C216.139 84.124 216.858 83.844 217.455 83.284C218.052 82.724 218.351 81.8747 218.351 80.736V76.452C218.351 76.228 218.332 76.0413 218.295 75.892C218.276 75.724 218.22 75.584 218.127 75.472C218.034 75.36 217.894 75.276 217.707 75.22C217.539 75.1453 217.296 75.0893 216.979 75.052C216.867 75.0147 216.764 74.9773 216.671 74.94C216.596 74.9027 216.559 74.8093 216.559 74.66C216.559 74.604 216.559 74.5293 216.559 74.436C216.578 74.3427 216.596 74.2493 216.615 74.156C216.746 74.156 216.904 74.156 217.091 74.156C217.296 74.1373 217.511 74.128 217.735 74.128C217.978 74.1093 218.211 74.0907 218.435 74.072C218.678 74.0533 218.892 74.0253 219.079 73.988C219.49 73.932 219.891 73.8667 220.283 73.792C220.694 73.6987 220.974 73.652 221.123 73.652C221.384 73.652 221.515 73.792 221.515 74.072V83.396C221.515 83.62 221.524 83.816 221.543 83.984C221.58 84.1333 221.646 84.264 221.739 84.376C221.832 84.488 221.972 84.5813 222.159 84.656C222.346 84.712 222.598 84.7587 222.915 84.796C223.158 84.8147 223.279 84.936 223.279 85.16C223.279 85.2533 223.279 85.3467 223.279 85.44C223.279 85.5333 223.26 85.608 223.223 85.664C222.98 85.664 222.598 85.6827 222.075 85.72C221.571 85.7387 221.142 85.776 220.787 85.832C220.376 85.888 219.966 85.9533 219.555 86.028C219.163 86.1213 218.892 86.168 218.743 86.168C218.575 86.168 218.463 86.1307 218.407 86.056C218.37 86 218.351 85.8973 218.351 85.748V83.732C217.754 84.516 217.091 85.1507 216.363 85.636C215.635 86.1027 214.879 86.336 214.095 86.336C212.956 86.336 212.06 86.028 211.407 85.412C210.754 84.7773 210.427 83.8347 210.427 82.584V76.452ZM235.044 83.424C235.212 83.2933 235.361 83.228 235.492 83.228C235.585 83.228 235.688 83.2747 235.8 83.368C235.931 83.4427 236.061 83.6013 236.192 83.844C235.464 84.7027 234.624 85.3373 233.672 85.748C232.739 86.14 231.628 86.336 230.34 86.336C229.612 86.336 228.893 86.224 228.184 86C227.493 85.7573 226.868 85.3933 226.308 84.908C225.748 84.404 225.291 83.7787 224.936 83.032C224.6 82.2853 224.432 81.3893 224.432 80.344C224.432 79.3173 224.628 78.3933 225.02 77.572C225.431 76.732 225.944 76.0227 226.56 75.444C227.176 74.8653 227.848 74.4267 228.576 74.128C229.304 73.8107 230.004 73.652 230.676 73.652C232.487 73.652 233.849 74.1747 234.764 75.22C235.697 76.2653 236.164 77.6933 236.164 79.504C236.164 79.6347 236.099 79.7 235.968 79.7L227.932 80.036C227.932 81.492 228.259 82.612 228.912 83.396C229.565 84.1613 230.545 84.544 231.852 84.544C232.431 84.544 233 84.4507 233.56 84.264C234.12 84.0773 234.615 83.7973 235.044 83.424ZM230.256 74.884C229.528 74.884 228.94 75.2013 228.492 75.836C228.063 76.452 227.848 77.432 227.848 78.776L232.216 78.58C232.496 78.5613 232.636 78.44 232.636 78.216C232.636 77.8613 232.589 77.488 232.496 77.096C232.403 76.704 232.253 76.3493 232.048 76.032C231.861 75.696 231.619 75.4253 231.32 75.22C231.021 74.996 230.667 74.884 230.256 74.884ZM245.303 77.404C245.042 77.3853 244.892 77.2827 244.855 77.096C244.724 76.3307 244.426 75.7707 243.959 75.416C243.492 75.0613 242.904 74.884 242.195 74.884C241.56 74.884 241.075 75.0427 240.739 75.36C240.403 75.6773 240.235 76.0507 240.235 76.48C240.235 76.6853 240.263 76.872 240.319 77.04C240.375 77.208 240.487 77.3667 240.655 77.516C240.842 77.6653 241.094 77.8147 241.411 77.964C241.728 78.0947 242.158 78.244 242.699 78.412C243.334 78.5987 243.894 78.804 244.379 79.028C244.864 79.2333 245.275 79.4853 245.611 79.784C245.947 80.0827 246.199 80.4467 246.367 80.876C246.554 81.2867 246.647 81.7813 246.647 82.36C246.647 82.9013 246.554 83.4147 246.367 83.9C246.199 84.3853 245.919 84.8147 245.527 85.188C245.135 85.5427 244.64 85.8227 244.043 86.028C243.446 86.2333 242.727 86.336 241.887 86.336C241.29 86.336 240.599 86.2707 239.815 86.14C239.05 86.0093 238.35 85.776 237.715 85.44C237.678 84.9547 237.64 84.4413 237.603 83.9C237.584 83.34 237.575 82.7893 237.575 82.248H237.939C238.144 82.248 238.322 82.2853 238.471 82.36C238.62 82.416 238.704 82.5187 238.723 82.668C238.798 83.452 239.106 84.0587 239.647 84.488C240.188 84.8987 240.935 85.104 241.887 85.104C242.54 85.104 243.072 84.9547 243.483 84.656C243.894 84.3573 244.099 83.9653 244.099 83.48C244.099 83.032 243.912 82.6493 243.539 82.332C243.184 82.0147 242.503 81.7067 241.495 81.408C240.132 81.016 239.171 80.5027 238.611 79.868C238.07 79.2147 237.799 78.44 237.799 77.544C237.799 76.368 238.191 75.4253 238.975 74.716C239.778 74.0067 240.814 73.652 242.083 73.652C242.811 73.652 243.511 73.7453 244.183 73.932C244.874 74.1 245.424 74.2867 245.835 74.492C245.854 74.6413 245.872 74.8467 245.891 75.108C245.91 75.3507 245.928 75.6213 245.947 75.92C245.966 76.2 245.975 76.48 245.975 76.76C245.994 77.0213 246.003 77.2453 246.003 77.432L245.303 77.404ZM254.335 86.14C253.849 86.1027 253.345 86.0653 252.823 86.028C252.3 86.0093 251.74 86 251.143 86C250.415 86 249.799 86.0093 249.295 86.028C248.809 86.0653 248.333 86.1027 247.867 86.14C247.829 85.9533 247.811 85.776 247.811 85.608C247.811 85.4773 247.839 85.3933 247.895 85.356C247.969 85.3 248.044 85.2627 248.119 85.244C248.716 85.1507 249.127 85.0387 249.351 84.908C249.575 84.7587 249.687 84.544 249.687 84.264V69.592C249.687 69.032 249.593 68.612 249.407 68.332C249.22 68.0333 248.781 67.856 248.091 67.8C247.848 67.7627 247.727 67.6133 247.727 67.352C247.727 67.296 247.727 67.2307 247.727 67.156C247.727 67.0627 247.745 66.9787 247.783 66.904C247.895 66.904 248.053 66.904 248.259 66.904C248.483 66.8853 248.716 66.876 248.959 66.876C249.201 66.8573 249.444 66.8387 249.687 66.82C249.929 66.8013 250.153 66.7827 250.359 66.764C250.825 66.708 251.273 66.6333 251.703 66.54C252.132 66.4467 252.421 66.4 252.571 66.4C252.869 66.4 253.019 66.54 253.019 66.82C253.019 67.0253 252.991 67.296 252.935 67.632C252.879 67.9493 252.851 68.4067 252.851 69.004V76.256C253.448 75.472 254.111 74.8467 254.839 74.38C255.567 73.8947 256.323 73.652 257.107 73.652C258.245 73.652 259.141 73.9693 259.795 74.604C260.448 75.2387 260.775 76.1907 260.775 77.46V84.292C260.775 84.5533 260.877 84.7493 261.083 84.88C261.307 85.0107 261.727 85.132 262.343 85.244C262.417 85.2627 262.483 85.3 262.539 85.356C262.613 85.3933 262.651 85.4773 262.651 85.608C262.651 85.776 262.632 85.9533 262.595 86.14C262.109 86.1027 261.624 86.0653 261.139 86.028C260.653 86.0093 260.047 86 259.319 86C258.721 86 258.161 86.0093 257.639 86.028C257.116 86.0653 256.612 86.1027 256.127 86.14C256.089 86.0653 256.071 85.9813 256.071 85.888C256.071 85.7947 256.071 85.7013 256.071 85.608C256.071 85.4027 256.173 85.2813 256.379 85.244C256.883 85.1507 257.209 85.0387 257.359 84.908C257.527 84.7773 257.611 84.572 257.611 84.292V78.804C257.611 77.7027 257.471 76.9467 257.191 76.536C256.929 76.1067 256.5 75.892 255.903 75.892C255.063 75.892 254.344 76.1813 253.747 76.76C253.149 77.32 252.851 78.16 252.851 79.28V84.292C252.851 84.572 252.925 84.7773 253.075 84.908C253.224 85.0387 253.56 85.1507 254.083 85.244C254.288 85.2813 254.391 85.4027 254.391 85.608C254.391 85.7013 254.391 85.7947 254.391 85.888C254.391 85.9813 254.372 86.0653 254.335 86.14ZM276.203 76.396C276.856 75.556 277.537 74.8933 278.247 74.408C278.975 73.904 279.712 73.652 280.459 73.652C282.792 73.652 283.959 74.9213 283.959 77.46V84.292C283.959 84.5533 284.071 84.7493 284.295 84.88C284.519 85.0107 284.929 85.132 285.527 85.244C285.732 85.2813 285.835 85.4027 285.835 85.608C285.835 85.7013 285.835 85.7947 285.835 85.888C285.835 85.9813 285.816 86.0653 285.779 86.14C285.312 86.1027 284.836 86.0653 284.351 86.028C283.865 86.0093 283.259 86 282.531 86C281.915 86 281.345 86.0093 280.823 86.028C280.319 86.0653 279.815 86.1027 279.311 86.14C279.273 85.9533 279.255 85.776 279.255 85.608C279.255 85.4773 279.283 85.3933 279.339 85.356C279.413 85.3 279.488 85.2627 279.563 85.244C280.067 85.1507 280.393 85.0387 280.543 84.908C280.711 84.7773 280.795 84.572 280.795 84.292V78.804C280.795 77.7027 280.683 76.9467 280.459 76.536C280.253 76.1067 279.861 75.892 279.283 75.892C278.443 75.892 277.733 76.1813 277.155 76.76C276.576 77.32 276.287 78.16 276.287 79.28V84.292C276.287 84.572 276.371 84.7773 276.539 84.908C276.707 85.0387 277.033 85.1507 277.519 85.244C277.724 85.2813 277.827 85.4027 277.827 85.608C277.827 85.7013 277.827 85.7947 277.827 85.888C277.827 85.9813 277.808 86.0653 277.771 86.14C277.323 86.1027 276.875 86.0653 276.427 86.028C275.979 86.0093 275.456 86 274.859 86C274.243 86 273.673 86.0093 273.151 86.028C272.647 86.0653 272.143 86.1027 271.639 86.14C271.601 85.9533 271.583 85.776 271.583 85.608C271.583 85.4773 271.611 85.3933 271.667 85.356C271.741 85.3 271.816 85.2627 271.891 85.244C272.395 85.1507 272.721 85.0387 272.871 84.908C273.039 84.7773 273.123 84.572 273.123 84.292V78.804C273.123 77.7027 273.011 76.9467 272.787 76.536C272.581 76.1067 272.189 75.892 271.611 75.892C270.771 75.892 270.061 76.1813 269.483 76.76C268.904 77.32 268.615 78.16 268.615 79.28V84.292C268.615 84.572 268.699 84.7773 268.867 84.908C269.035 85.0387 269.361 85.1507 269.847 85.244C270.052 85.2813 270.155 85.4027 270.155 85.608C270.155 85.7013 270.155 85.7947 270.155 85.888C270.155 85.9813 270.136 86.0653 270.099 86.14C269.613 86.1027 269.109 86.0653 268.587 86.028C268.064 86.0093 267.504 86 266.907 86C266.179 86 265.563 86.0093 265.059 86.028C264.573 86.0653 264.097 86.1027 263.631 86.14C263.593 85.9533 263.575 85.776 263.575 85.608C263.575 85.4773 263.603 85.3933 263.659 85.356C263.733 85.3 263.808 85.2627 263.883 85.244C264.48 85.132 264.891 85.0107 265.115 84.88C265.339 84.7493 265.451 84.544 265.451 84.264V76.872C265.451 76.312 265.348 75.8827 265.143 75.584C264.937 75.2853 264.508 75.108 263.855 75.052C263.612 74.996 263.491 74.8467 263.491 74.604C263.491 74.548 263.491 74.4827 263.491 74.408C263.491 74.3147 263.509 74.2307 263.547 74.156C263.659 74.156 263.817 74.156 264.023 74.156C264.247 74.1373 264.48 74.128 264.723 74.128C264.965 74.1093 265.208 74.0907 265.451 74.072C265.693 74.0533 265.917 74.0347 266.123 74.016C266.589 73.96 267.037 73.8853 267.467 73.792C267.896 73.6987 268.185 73.652 268.335 73.652C268.633 73.652 268.783 73.792 268.783 74.072C268.783 74.2773 268.755 74.548 268.699 74.884C268.643 75.22 268.615 75.6867 268.615 76.284C269.212 75.5 269.865 74.8653 270.575 74.38C271.303 73.8947 272.04 73.652 272.787 73.652C274.747 73.652 275.885 74.5667 276.203 76.396ZM297.444 83.424C297.612 83.2933 297.762 83.228 297.892 83.228C297.986 83.228 298.088 83.2747 298.2 83.368C298.331 83.4427 298.462 83.6013 298.592 83.844C297.864 84.7027 297.024 85.3373 296.072 85.748C295.139 86.14 294.028 86.336 292.74 86.336C292.012 86.336 291.294 86.224 290.584 86C289.894 85.7573 289.268 85.3933 288.708 84.908C288.148 84.404 287.691 83.7787 287.336 83.032C287 82.2853 286.832 81.3893 286.832 80.344C286.832 79.3173 287.028 78.3933 287.42 77.572C287.831 76.732 288.344 76.0227 288.96 75.444C289.576 74.8653 290.248 74.4267 290.976 74.128C291.704 73.8107 292.404 73.652 293.076 73.652C294.887 73.652 296.25 74.1747 297.164 75.22C298.098 76.2653 298.564 77.6933 298.564 79.504C298.564 79.6347 298.499 79.7 298.368 79.7L290.332 80.036C290.332 81.492 290.659 82.612 291.312 83.396C291.966 84.1613 292.946 84.544 294.252 84.544C294.831 84.544 295.4 84.4507 295.96 84.264C296.52 84.0773 297.015 83.7973 297.444 83.424ZM292.656 74.884C291.928 74.884 291.34 75.2013 290.892 75.836C290.463 76.452 290.248 77.432 290.248 78.776L294.616 78.58C294.896 78.5613 295.036 78.44 295.036 78.216C295.036 77.8613 294.99 77.488 294.896 77.096C294.803 76.704 294.654 76.3493 294.448 76.032C294.262 75.696 294.019 75.4253 293.72 75.22C293.422 74.996 293.067 74.884 292.656 74.884Z" fill="black"/>
<path d="M100.11 39.6434C106.921 37.6072 114.371 39.5722 117.635 46.214C122.756 56.6524 113.936 63.6143 104.902 56.9103C100.51 53.6472 98.6516 47.4855 97.7358 42.3641C89 45.1149 85.1844 56.9103 85.1844 56.9103C85.1844 56.9103 93 63.1149 97.7561 70.948C100.957 75.7405 103.793 81.4042 105.554 86.908C106.105 88.6329 107.457 96.8218 107.866 97.1507C108.755 97.8621 112.32 96.2616 113.938 100.236C117.655 109.341 103.233 112.773 96.9203 114.542C74.7454 120.757 29.6931 122.589 8.49617 113.377C-0.155082 109.616 -5.00085 99.7026 7.9538 98.5467C9.14523 86.9346 14.5067 76.2206 22.1621 67.5782L15.547 49.4577C7.67817 48.4708 8.54063 37.3033 16.8451 39.8729C20.6862 42.6025 17.6453 46.9948 17.8232 49.111C17.9121 50.1335 23.6114 64.8041 24.3049 65.3287L40.5316 54.0279L29.782 24.3753C20.0904 22.1436 26.9012 8.73551 33.0984 14.1148C36.6016 17.1467 33.0362 21.6546 33.2407 24.0997C33.5074 27.265 40.4338 46.8081 42.0965 50.5869C42.4076 51.2982 42.8078 52.8453 43.6169 52.9609C46.1153 52.0273 48.6582 51.1471 51.2812 50.578C52.9527 50.2135 56.287 51.0226 56.8294 49.2888L54.8199 21.5835C55.2111 17.0578 53.9397 11.8564 55.8602 7.64187C58.8477 1.09786 61.9152 8.88666 62.3064 12.7455C63.5067 24.6776 61.2039 37.7568 61.6307 49.7334C67.2678 48.782 71.9802 51.9028 77.2705 52.8453L87.78 26.038C81.3072 9.60686 105.003 15.3062 90.8475 26.5181L79.2444 54.099L84.4966 56.6258C85.5547 49.6372 91.5474 43.5377 97.7624 40.3813C93.868 14.0808 108.213 -0.851557 137.403 0.0375747V2.06479C121.648 0.962272 106.607 6.75384 100.8 20.651C99.7691 23.1228 99 28.7587 99 31.1149C99 33.4711 100.11 39.6345 100.11 39.6345V39.6434ZM59.5857 28.6698C58.3676 21.9035 62.6354 13.4835 58.5721 7.64187C55.3623 7.64187 57.6029 23.7974 58.2342 26.2959C58.4743 27.2383 58.2253 28.412 59.5857 28.6698ZM113.447 43.9467C110.068 40.7992 105.151 40.079 100.785 40.9948C100.697 46.134 103.96 53.416 108.281 56.2345C116.701 61.7294 119.555 49.6461 113.447 43.9467ZM56.8738 51.0759L56.207 52.4274L43.9814 55.1571C43.5724 55.7083 47.6535 65.3198 47.9114 67.187C48.0981 68.5296 48.3293 69.1787 47.04 70.0678L41.9364 56.5085C40.745 55.6283 28.146 64.324 26.9723 66.3157C24.9807 69.6766 31.4624 76.7718 31.0801 80.9419C29.0974 83.1202 24.1805 68.5652 22.9446 69.4098C16.7206 78.2834 11.0302 88.1794 10.31 99.3113C41.2251 107.847 75.3855 109.554 105.723 97.8798C102.071 79.2382 90.7706 59.6158 77.9196 56.5174C76.5948 60.5007 74.941 66.5735 72.7626 70.0411C71.9802 71.2859 71.4467 71.8994 70.442 70.4234L75.8923 56.2151L61.6218 51.7695L60.2525 82.9958H58.2253L56.8649 51.0937L56.8738 51.0759Z" fill="black"/>
</svg>
