<svg width="171" height="65" viewBox="0 0 171 65" fill="none" xmlns="http://www.w3.org/2000/svg">
<g clip-path="url(#clip0_75_1129)">
<path d="M32.4033 61.147C48.3646 61.147 61.3037 48.2401 61.3037 32.3186C61.3037 16.3971 48.3646 3.49023 32.4033 3.49023C16.4421 3.49023 3.50293 16.3971 3.50293 32.3186C3.50293 48.2401 16.4421 61.147 32.4033 61.147Z" fill="#F7E0C6"/>
<path d="M32.3989 64.6364C23.7446 64.6364 15.6085 61.2747 9.4893 55.1707C3.37007 49.0667 0 40.9509 0 32.3182C0 23.6855 3.37007 15.5696 9.4893 9.46565C15.6085 3.36167 23.7446 0 32.3989 0C41.0532 0 49.1893 3.36167 55.3085 9.46565C61.4278 15.5696 64.7978 23.6855 64.7978 32.3182C64.7978 40.9509 61.4278 49.0667 55.3085 55.1707C49.1893 61.2747 41.0532 64.6364 32.3989 64.6364ZM32.3989 1.17893C24.0615 1.17893 16.2209 4.41673 10.3243 10.2986C4.42777 16.1805 1.18188 24.0016 1.18188 32.3182C1.18188 40.6348 4.42777 48.4559 10.3243 54.3378C16.2209 60.2196 24.0615 63.4574 32.3989 63.4574C40.7363 63.4574 48.577 60.2196 54.4735 54.3378C60.3701 48.4559 63.616 40.6348 63.616 32.3182C63.616 24.0016 60.3701 16.1805 54.4735 10.2986C48.577 4.41673 40.7363 1.17893 32.3989 1.17893Z" fill="#F7E0C6"/>
<path d="M21.7393 19.0296L24.0559 16.7188L26.4282 19.0296L24.0559 21.3405L21.7393 19.0296ZM21.7393 24.3007L24.0559 21.9343L26.4282 24.3007L24.0559 26.5603L21.7393 24.3007ZM21.7393 29.5162L24.0559 27.1498L26.4282 29.5162L24.0559 31.7758L21.7393 29.5162ZM21.7393 35.0392L24.0559 32.6728L26.4282 35.0392L24.0559 37.3501L21.7393 35.0392ZM21.7393 40.353L24.0559 37.9866L26.4282 40.353L24.0559 42.6638L21.7393 40.353ZM27.0235 19.0296L29.2887 16.7188L31.6611 19.0296L29.2887 21.3405L27.0235 19.0296ZM27.0235 35.0392L29.2887 32.6728L31.6611 35.0392L29.2887 37.3501L27.0235 35.0392ZM32.252 19.0296L34.5173 16.7188L36.8896 19.0296L34.5173 21.3405L32.252 19.0296ZM32.252 35.0392L34.5173 32.6728L36.8896 35.0392L34.5173 37.3501L32.252 35.0392Z" fill="#511110"/>
<path d="M21.7393 45.6066L24.0602 43.2402L26.4325 45.6066L24.0602 47.9175L21.7393 45.6066Z" fill="#511110"/>
<path d="M44.5122 26.826L41.9258 24.3058L44.5122 21.666L47.0986 24.3058L44.5122 26.826ZM42.4653 24.2973L44.5122 26.2921L46.5591 24.2973L44.5122 22.2042L42.4653 24.2973Z" fill="#511110"/>
<path d="M44.5122 32.0408L41.9258 29.5206L44.5122 26.8809L47.0986 29.5206L44.5122 32.0408ZM42.4653 29.5121L44.5122 31.5069L46.5591 29.5121L44.5122 27.4191L42.4653 29.5121Z" fill="#511110"/>
<path d="M40.1968 37.6963L37.6104 35.1164L40.1968 32.4766L42.7832 35.1164L40.1968 37.6963ZM38.1456 35.1121L40.1968 37.1581L42.2479 35.1121L40.1968 33.019L38.1456 35.1121Z" fill="#511110"/>
<path d="M39.9747 16.7332L37.6553 19.0469L39.9747 21.3605L42.2941 19.0469L39.9747 16.7332Z" fill="#511110"/>
<path d="M76.2188 7.97919L77.5548 6.64648L78.9251 7.97919L77.5548 9.3119L76.2188 7.97919ZM76.2188 11.0205L77.5548 9.65362L78.9251 11.0205L77.5548 12.3233L76.2188 11.0205ZM76.2188 14.0276L77.5548 12.6608L78.9251 14.0276L77.5548 15.3304L76.2188 14.0276ZM76.2188 17.039L77.5548 15.6722L78.9251 17.039L77.5548 18.3718L76.2188 17.039ZM76.2188 20.0462L77.5548 18.6793L78.9251 20.0462L77.5548 21.3789L76.2188 20.0462ZM76.2188 23.0533L77.5548 21.6864L78.9251 23.0533L77.5548 24.386L76.2188 23.0533ZM76.2188 26.0647L77.5548 24.6978L78.9251 26.0647L77.5548 27.3974L76.2188 26.0647ZM79.2677 7.97919L80.5737 6.64648L81.944 7.97919L80.5737 9.3119L79.2677 7.97919ZM79.2677 17.039L80.5737 15.6722L81.944 17.039L80.5737 18.3718L79.2677 17.039ZM82.2823 7.97919L83.5884 6.64648L84.9587 7.97919L83.5884 9.3119L82.2823 7.97919ZM82.2823 17.039L83.5884 15.6722L84.9587 17.039L83.5884 18.3718L82.2823 17.039ZM85.297 7.97919L86.633 6.64648L87.969 7.97919L86.633 9.3119L85.297 7.97919ZM85.297 17.039L86.633 15.6722L87.969 17.039L86.633 18.3718L85.297 17.039ZM88.3159 7.97919L89.6519 6.64648L90.988 7.97919L89.6519 9.3119L88.3159 7.97919Z" fill="#F7E0C6"/>
<path d="M93.6367 7.97919L94.9728 6.64648L96.343 7.97919L94.9728 9.3119L93.6367 7.97919ZM93.6367 26.0647L94.9728 24.6978L96.343 26.0647L94.9728 27.3974L93.6367 26.0647ZM96.6813 7.97919L97.9874 6.64648L99.3577 7.97919L97.9874 9.3119L96.6813 7.97919ZM96.6813 26.0647L97.9874 24.6978L99.3577 26.0647L97.9874 27.3974L96.6813 26.0647ZM99.7003 7.97919L101.006 6.64648L102.377 7.97919L101.006 9.3119L99.7003 7.97919ZM99.7003 11.0205L101.006 9.65362L102.377 11.0205L101.006 12.3233L99.7003 11.0205ZM99.7003 14.0276L101.006 12.6608L102.377 14.0276L101.006 15.3304L99.7003 14.0276ZM99.7003 17.039L101.006 15.6722L102.377 17.039L101.006 18.3718L99.7003 17.039ZM99.7003 20.0462L101.006 18.6793L102.377 20.0462L101.006 21.3789L99.7003 20.0462ZM99.7003 23.0533L101.006 21.6864L102.377 23.0533L101.006 24.386L99.7003 23.0533ZM99.7003 26.0647L101.006 24.6978L102.377 26.0647L101.006 27.3974L99.7003 26.0647ZM102.715 7.97919L104.051 6.64648L105.387 7.97919L104.051 9.3119L102.715 7.97919ZM102.715 26.0647L104.051 24.6978L105.387 26.0647L104.051 27.3974L102.715 26.0647ZM105.734 7.97919L107.07 6.64648L108.406 7.97919L107.07 9.3119L105.734 7.97919ZM105.734 26.0647L107.07 24.6978L108.406 26.0647L107.07 27.3974L105.734 26.0647Z" fill="#F7E0C6"/>
<path d="M111.049 7.97919L112.355 6.64648L113.725 7.97919L112.355 9.3119L111.049 7.97919ZM111.049 23.0533L112.355 21.6864L113.725 23.0533L112.355 24.386L111.049 23.0533ZM114.063 7.97919L115.4 6.64648L116.736 7.97919L115.4 9.3119L114.063 7.97919ZM114.063 26.0647L115.4 24.6978L116.736 26.0647L115.4 27.3974L114.063 26.0647ZM117.078 7.97919L118.414 6.64648L119.75 7.97919L118.414 9.3119L117.078 7.97919ZM117.078 26.0647L118.414 24.6978L119.75 26.0647L118.414 27.3974L117.078 26.0647ZM120.097 7.97919L121.433 6.64648L122.803 7.97919L121.433 9.3119L120.097 7.97919ZM120.097 11.0205L121.433 9.65362L122.803 11.0205L121.433 12.3233L120.097 11.0205ZM120.097 14.0276L121.433 12.6608L122.803 14.0276L121.433 15.3304L120.097 14.0276ZM120.097 17.039L121.433 15.6722L122.803 17.039L121.433 18.3718L120.097 17.039ZM120.097 20.0462L121.433 18.6793L122.803 20.0462L121.433 21.3789L120.097 20.0462ZM120.097 23.0533L121.433 21.6864L122.803 23.0533L121.433 24.386L120.097 23.0533Z" fill="#F7E0C6"/>
<path d="M128.461 7.97919L129.797 6.64648L131.167 7.97919L129.797 9.3119L128.461 7.97919ZM128.461 11.0205L129.797 9.65362L131.167 11.0205L129.797 12.3233L128.461 11.0205ZM128.461 14.0276L129.797 12.6608L131.167 14.0276L129.797 15.3304L128.461 14.0276ZM128.461 17.039L129.797 15.6722L131.167 17.039L129.797 18.3718L128.461 17.039ZM128.461 20.0462L129.797 18.6793L131.167 20.0462L129.797 21.3789L128.461 20.0462ZM128.461 23.0533L129.797 21.6864L131.167 23.0533L129.797 24.386L128.461 23.0533ZM128.461 26.0647L129.797 24.6978L131.167 26.0647L129.797 27.3974L128.461 26.0647ZM131.51 7.97919L132.816 6.64648L134.186 7.97919L132.816 9.3119L131.51 7.97919ZM131.51 17.039L132.816 15.6722L134.186 17.039L132.816 18.3718L131.51 17.039ZM131.51 26.0647L132.816 24.6978L134.186 26.0647L132.816 27.3974L131.51 26.0647ZM134.524 7.97919L135.831 6.64648L137.201 7.97919L135.831 9.3119L134.524 7.97919ZM134.524 17.039L135.831 15.6722L137.201 17.039L135.831 18.3718L134.524 17.039ZM134.524 26.0647L135.831 24.6978L137.201 26.0647L135.831 27.3974L134.524 26.0647ZM137.543 7.97919L138.879 6.64648L140.216 7.97919L138.879 9.3119L137.543 7.97919ZM137.543 17.039L138.879 15.6722L140.216 17.039L138.879 18.3718L137.543 17.039ZM137.543 26.0647L138.879 24.6978L140.216 26.0647L138.879 27.3974L137.543 26.0647ZM140.558 7.97919L141.894 6.64648L143.23 7.97919L141.894 9.3119L140.558 7.97919ZM140.558 26.0647L141.894 24.6978L143.23 26.0647L141.894 27.3974L140.558 26.0647Z" fill="#F7E0C6"/>
<path d="M76.2188 38.571L77.5548 37.2383L78.9251 38.571L77.5548 39.9037L76.2188 38.571ZM76.2188 41.6123L77.5548 40.2454L78.9251 41.6123L77.5548 42.9151L76.2188 41.6123ZM76.2188 44.6194L77.5548 43.2526L78.9251 44.6194L77.5548 45.9222L76.2188 44.6194ZM76.2188 47.6266L77.5548 46.2597L78.9251 47.6266L77.5548 48.9593L76.2188 47.6266ZM76.2188 50.638L77.5548 49.2711L78.9251 50.638L77.5548 51.9707L76.2188 50.638ZM76.2188 53.6451L77.5548 52.2782L78.9251 53.6451L77.5548 54.9778L76.2188 53.6451ZM76.2188 56.6565L77.5548 55.2896L78.9251 56.6565L77.5548 57.9892L76.2188 56.6565ZM79.2677 38.571L80.5737 37.2383L81.944 38.571L80.5737 39.9037L79.2677 38.571ZM79.2677 50.638L80.5737 49.2711L81.944 50.638L80.5737 51.9707L79.2677 50.638ZM82.2823 38.571L83.5884 37.2383L84.9587 38.571L83.5884 39.9037L82.2823 38.571ZM82.2823 50.638L83.5884 49.2711L84.9587 50.638L83.5884 51.9707L82.2823 50.638ZM85.297 38.571L86.633 37.2383L87.969 38.571L86.633 39.9037L85.297 38.571ZM85.297 50.638L86.633 49.2711L87.969 50.638L86.633 51.9707L85.297 50.638ZM88.3159 41.6123L89.6519 40.2454L90.988 41.6123L89.6519 42.9151L88.3159 41.6123ZM88.3159 44.6194L89.6519 43.2526L90.988 44.6194L89.6519 45.9222L88.3159 44.6194ZM88.3159 47.6266L89.6519 46.2597L90.988 47.6266L89.6519 48.9593L88.3159 47.6266Z" fill="#F7E0C6"/>
<path d="M93.4131 38.571L94.7491 37.2383L96.1194 38.571L94.7491 39.9037L93.4131 38.571ZM93.4131 41.6123L94.7491 40.2454L96.1194 41.6123L94.7491 42.9151L93.4131 41.6123ZM93.4131 44.6194L94.7491 43.2526L96.1194 44.6194L94.7491 45.9222L93.4131 44.6194ZM93.4131 47.6266L94.7491 46.2597L96.1194 47.6266L94.7491 48.9593L93.4131 47.6266ZM93.4131 50.638L94.7491 49.2711L96.1194 50.638L94.7491 51.9707L93.4131 50.638ZM93.4131 53.6451L94.7491 52.2782L96.1194 53.6451L94.7491 54.9778L93.4131 53.6451ZM93.4131 56.6565L94.7491 55.2896L96.1194 56.6565L94.7491 57.9892L93.4131 56.6565ZM96.462 38.571L97.7681 37.2383L99.1384 38.571L97.7681 39.9037L96.462 38.571ZM96.462 47.6266L97.7681 46.2597L99.1384 47.6266L97.7681 48.9593L96.462 47.6266ZM96.462 56.6565L97.7681 55.2896L99.1384 56.6565L97.7681 57.9892L96.462 56.6565ZM99.4766 38.571L100.783 37.2383L102.153 38.571L100.783 39.9037L99.4766 38.571ZM99.4766 47.6266L100.783 46.2597L102.153 47.6266L100.783 48.9593L99.4766 47.6266ZM99.4766 56.6565L100.783 55.2896L102.153 56.6565L100.783 57.9892L99.4766 56.6565ZM102.491 38.571L103.827 37.2383L105.163 38.571L103.827 39.9037L102.491 38.571ZM102.491 47.6266L103.827 46.2597L105.163 47.6266L103.827 48.9593L102.491 47.6266ZM102.491 56.6565L103.827 55.2896L105.163 56.6565L103.827 57.9892L102.491 56.6565ZM105.51 38.571L106.846 37.2383L108.182 38.571L106.846 39.9037L105.51 38.571ZM105.51 56.6565L106.846 55.2896L108.182 56.6565L106.846 57.9892L105.51 56.6565Z" fill="#F7E0C6"/>
<path d="M109.898 38.571L111.234 37.2383L112.605 38.571L111.234 39.9037L109.898 38.571ZM109.898 41.6123L111.234 40.2454L112.605 41.6123L111.234 42.9151L109.898 41.6123ZM109.898 44.6194L111.234 43.2526L112.605 44.6194L111.234 45.9222L109.898 44.6194ZM109.898 47.6266L111.234 46.2597L112.605 47.6266L111.234 48.9593L109.898 47.6266ZM109.898 50.638L111.234 49.2711L112.605 50.638L111.234 51.9707L109.898 50.638ZM109.898 53.6451L111.234 52.2782L112.605 53.6451L111.234 54.9778L109.898 53.6451ZM109.898 56.6565L111.234 55.2896L112.605 56.6565L111.234 57.9892L109.898 56.6565ZM112.943 38.571L114.249 37.2383L115.619 38.571L114.249 39.9037L112.943 38.571ZM112.943 47.6266L114.249 46.2597L115.619 47.6266L114.249 48.9593L112.943 47.6266ZM115.962 38.571L117.268 37.2383L118.638 38.571L117.268 39.9037L115.962 38.571ZM115.962 47.6266L117.268 46.2597L118.638 47.6266L117.268 48.9593L115.962 47.6266ZM118.977 38.571L120.313 37.2383L121.649 38.571L120.313 39.9037L118.977 38.571ZM118.977 47.6266L120.313 46.2597L121.649 47.6266L120.313 48.9593L118.977 47.6266ZM118.977 50.638L120.313 49.2711L121.649 50.638L120.313 51.9707L118.977 50.638ZM121.996 41.6123L123.332 40.2454L124.668 41.6123L123.332 42.9151L121.996 41.6123ZM121.996 44.6194L123.332 43.2526L124.668 44.6194L123.332 45.9222L121.996 44.6194ZM121.996 53.6451L123.332 52.2782L124.668 53.6451L123.332 54.9778L121.996 53.6451ZM121.996 56.6565L123.332 55.2896L124.668 56.6565L123.332 57.9892L121.996 56.6565Z" fill="#F7E0C6"/>
<path d="M138.196 38.571L139.532 37.2383L140.903 38.571L139.532 39.9037L138.196 38.571ZM138.196 41.6123L139.532 40.2454L140.903 41.6123L139.532 42.9151L138.196 41.6123ZM138.196 44.6194L139.532 43.2526L140.903 44.6194L139.532 45.9222L138.196 44.6194ZM138.196 47.6266L139.532 46.2597L140.903 47.6266L139.532 48.9593L138.196 47.6266ZM138.196 50.638L139.532 49.2711L140.903 50.638L139.532 51.9707L138.196 50.638ZM138.196 53.6451L139.532 52.2782L140.903 53.6451L139.532 54.9778L138.196 53.6451ZM138.196 56.6565L139.532 55.2896L140.903 56.6565L139.532 57.9892L138.196 56.6565ZM141.241 38.571L142.547 37.2383L143.917 38.571L142.547 39.9037L141.241 38.571ZM141.241 50.638L142.547 49.2711L143.917 50.638L142.547 51.9707L141.241 50.638ZM144.26 38.571L145.566 37.2383L146.936 38.571L145.566 39.9037L144.26 38.571ZM144.26 50.638L145.566 49.2711L146.936 50.638L145.566 51.9707L144.26 50.638ZM147.274 38.571L148.611 37.2383L149.947 38.571L148.611 39.9037L147.274 38.571ZM147.274 50.638L148.611 49.2711L149.947 50.638L148.611 51.9707L147.274 50.638ZM150.289 41.6123L151.625 40.2454L152.961 41.6123L151.625 42.9151L150.289 41.6123ZM150.289 44.6194L151.625 43.2526L152.961 44.6194L151.625 45.9222L150.289 44.6194ZM150.289 47.6266L151.625 46.2597L152.961 47.6266L151.625 48.9593L150.289 47.6266Z" fill="#F7E0C6"/>
<path d="M156.234 38.571L157.57 37.2383L158.941 38.571L157.57 39.9037L156.234 38.571ZM156.234 41.6123L157.57 40.2454L158.941 41.6123L157.57 42.9151L156.234 41.6123ZM156.234 44.6194L157.57 43.2526L158.941 44.6194L157.57 45.9222L156.234 44.6194ZM156.234 47.6266L157.57 46.2597L158.941 47.6266L157.57 48.9593L156.234 47.6266ZM156.234 50.638L157.57 49.2711L158.941 50.638L157.57 51.9707L156.234 50.638ZM156.234 53.6451L157.57 52.2782L158.941 53.6451L157.57 54.9778L156.234 53.6451ZM156.234 56.6565L157.57 55.2896L158.941 56.6565L157.57 57.9892L156.234 56.6565ZM159.279 38.571L160.585 37.2383L161.955 38.571L160.585 39.9037L159.279 38.571ZM159.279 47.6266L160.585 46.2597L161.955 47.6266L160.585 48.9593L159.279 47.6266ZM159.279 56.6565L160.585 55.2896L161.955 56.6565L160.585 57.9892L159.279 56.6565ZM162.298 38.571L163.604 37.2383L164.974 38.571L163.604 39.9037L162.298 38.571ZM162.298 47.6266L163.604 46.2597L164.974 47.6266L163.604 48.9593L162.298 47.6266ZM162.298 56.6565L163.604 55.2896L164.974 56.6565L163.604 57.9892L162.298 56.6565ZM165.313 38.571L166.649 37.2383L167.985 38.571L166.649 39.9037L165.313 38.571ZM165.313 47.6266L166.649 46.2597L167.985 47.6266L166.649 48.9593L165.313 47.6266ZM165.313 56.6565L166.649 55.2896L167.985 56.6565L166.649 57.9892L165.313 56.6565ZM168.332 38.571L169.668 37.2383L171.004 38.571L169.668 39.9037L168.332 38.571ZM168.332 56.6565L169.668 55.2896L171.004 56.6565L169.668 57.9892L168.332 56.6565Z" fill="#F7E0C6"/>
<path d="M148.325 6.64648V6.90277H147.665V9.06415H147.348V6.90277H146.685V6.64648H148.325Z" fill="#F7E0C6"/>
<path d="M151.173 6.66406V9.06465H150.856V7.27489L150.056 9.06465H149.833L149.028 7.27062V9.06465H148.711V6.66406H149.054L149.944 8.65031L150.835 6.66406H151.173Z" fill="#F7E0C6"/>
<path d="M96.418 33.4675L97.724 32.1348L99.0601 33.4675L97.724 34.7703L96.418 33.4675Z" fill="#F7E0C6"/>
<path d="M102.445 33.4675L103.751 32.1348L105.092 33.4675L103.751 34.7703L102.445 33.4675Z" fill="#F7E0C6"/>
</g>
<defs>
<clipPath id="clip0_75_1129">
<rect width="171" height="64.6364" fill="white"/>
</clipPath>
</defs>
</svg>
